<?xml version="1.0" standalone="no"?>
<!DOCTYPE svg PUBLIC "-//W3C//DTD SVG 1.1//EN" "http://www.w3.org/Graphics/SVG/1.1/DTD/svg11.dtd" >
<svg xmlns="http://www.w3.org/2000/svg" xmlns:xlink="http://www.w3.org/1999/xlink" version="1.1">
<metadata>
Created by FontForge 20170731 at Thu May 19 19:01:56 2022
 By Aleksey,,,
Credit Card (version 1.01)  by Keith Bates      (c) 2009   www.k-type.com      keith@k-type.com  . Caps Only font for simulating bank cards. Small 1 &#62; 9 for dates at lowercase a &#62; i.
</metadata>
<defs>
<font id="CreditCard" horiz-adv-x="1146" >
  <font-face 
    font-family="Credit Card"
    font-weight="400"
    font-stretch="normal"
    units-per-em="2048"
    panose-1="2 0 4 0 0 0 0 0 0 0"
    ascent="1638"
    descent="-410"
    x-height="1464"
    cap-height="1470"
    bbox="-49 -334 1823 2224"
    underline-thickness="40"
    underline-position="-373"
    unicode-range="U+0020-FB02"
  />
<missing-glyph horiz-adv-x="1024" 
d="M129 0v1638h768v-1638h-768zM256 129h512v1382h-512v-1382z" />
    <glyph glyph-name=".notdef" horiz-adv-x="1024" 
d="M129 0v1638h768v-1638h-768zM256 129h512v1382h-512v-1382z" />
    <glyph glyph-name=".null" horiz-adv-x="0" 
 />
    <glyph glyph-name="nonmarkingreturn" 
 />
    <glyph glyph-name="space" unicode=" " 
 />
    <glyph glyph-name="exclam" unicode="!" 
d="M782 1337q0 -63 -39 -96q-18 -11 -24 -20l-10 -58l-19 -559q-5 -101 -27 -133q-24 -35 -88 -35q-123 0 -124 172l-13 555q-1 12 -5 40q-3 23 -15 30q-53 35 -53 104q0 133 161 133q113 0 113 -2q66 0 98 -16q45 -30 45 -115zM764 162q0 -80 -55 -136q-55 -57 -136 -57
q-36 0 -73 16q-35 15 -61 41t-41 60t-15 76q0 40 15 74t41 60t61 41q34 15 73 15t74 -15q34 -15 62 -41q25 -24 41 -60q14 -32 14 -74z" />
    <glyph glyph-name="quotedbl" unicode="&#x22;" horiz-adv-x="860" 
d="M772 1434l-41 -320q-17 -123 -119 -123q-79 0 -94 123l-41 313q-7 62 32 93.5t124 31.5q54 0 98 -28q51 -35 41 -90zM383 1434l-41 -320q-16 -123 -119 -123q-79 0 -94 123l-41 313q-7 62 32 93.5t124 31.5q54 0 98 -28q51 -35 41 -90z" />
    <glyph glyph-name="numbersign" unicode="#" 
d="M1065 920q0 -91 -90 -91h-50q-19 0 -57 2q-46 0 -47 -32l-14 -74q-6 -26 29 -31q-3 1 4 2h55q102 0 102 -92q0 -90 -90 -90q-92 0 -92 2q-2 5 -11 3q-11 -2 -19 -6q-9 -5 -18 -15q-10 -11 -11 -27q-13 -59 -16 -74q-10 -54 -21 -112q-17 -78 -74 -78q-108 0 -108 78
q0 17 12 73l11 45q6 25 18 74q8 45 -43 45q-99 0 -105 -49q-12 -68 -37 -188q-17 -78 -74 -78q-108 0 -108 78q0 17 12 73l25 115q2 6 2 12q0 29 -82 29q-90 0 -90 88q0 94 100 94q93 0 105 -1q15 -1 -15 -2l-14 -1q47 5 53 29l12 57q9 18 9 25q0 23 -39 24h-27q-10 2 -29 2
q-88 0 -88 89q0 92 99 92h92q31 0 41 43l22 110q15 65 21 76q21 39 63 39q107 0 107 -76q0 -9 -17 -80l-14 -71q-12 -47 43 -47h57q33 0 43 49l23 110q8 57 20 76q21 39 64 39q106 0 106 -76q0 -14 -16 -78q-14 -53 -14 -77q0 -34 20 -35h29q14 -2 29 -2q102 0 102 -90z
M649 803q2 17 -10 26t-37 9h-67q-36 -6 -43 -45l-19 -72q-6 -33 62 -33h57q34 1 39 27l14 63z" />
    <glyph glyph-name="dollar" unicode="$" horiz-adv-x="1204" 
d="M1069 434q0 -152 -106 -258q-100 -100 -244 -115q-42 -5 -43 -53q-2 -63 -105 -63q-55 0 -81.5 21t-24.5 63l-10 22q-12 16 -41 21q-86 18 -158 73q-89 63 -119 146q-11 21 -49 61q-41 41 -41 68q0 102 172 102q105 0 123 -6q55 -16 55 -84q0 -17 -14 -37t-14 -33
q0 -31 59 -55q35 -12 35 41q-2 54 -2 109v159q2 40 -39 58q-334 144 -334 368q0 310 342 351q37 0 27 28q6 70 110 70q91 0 97 -64q2 -31 30 -47q63 -22 125 -55q129 -74 152 -164q15 -56 39 -83q23 -26 28 -52q6 -42 -29.5 -63t-113.5 -21q-90 0 -117 6q-65 16 -65 64
q0 22 12 43t12 32q0 34 -43 52q-23 20 -28 -21q-2 -142 -2 -163v-62q2 -52 38 -59q367 -141 367 -400zM459 983l-2 143q1 27 -21 27q-12 0 -28 -8q-56 -29 -56 -84q0 -36 31 -70q4 -3 32 -26q16 -13 27 -13q19 0 17 31zM803 416q0 69 -105 135q-34 22 -34 -12v-121
q0 -42 2 -96q2 -25 20 -27q19 -5 19 0q0 -9 49 37q49 45 49 84z" />
    <glyph glyph-name="percent" unicode="%" 
d="M1116 260q0 -117 -41 -201q-55 -110 -178 -110q-120 0 -176 110q-43 82 -43 197q0 125 39 203q55 114 178 114t180 -112q41 -84 41 -201zM496 735q0 -120 -39 -198q-56 -113 -178 -113q-120 0 -177 111q-43 82 -43 198q0 123 39 203q56 113 178 113q121 0 181 -111
q39 -79 39 -203zM639 815l14 39q17 53 84 53q80 0 80 -80q0 -18 -13 -44q-10 -20 -24 -50q-49 -117 -98 -225q-109 -244 -166 -367q-16 -46 -43 -106q-18 -41 -80 -41q-82 0 -82 76q0 14 19 57q11 25 45 68q64 146 83 193q9 23 18.5 45.5t18 43t11.5 29.5l63 147l56 123z
M954 258v53q-4 111 -59 111q-57 0 -57 -164q0 -158 59 -158q57 0 57 158zM336 735v51q-4 111 -60 111q-57 0 -57 -164q0 -155 60 -155q57 0 57 157z" />
    <glyph glyph-name="ampersand" unicode="&#x26;" horiz-adv-x="1603" 
d="M1292 664q0 -44 -39 -91q-18 -26 -22 -71q0 -83 -62 -178q-16 -28 -16 -48q0 -23 14 -43q46 -67 113 -96q16 -6 34 -38q17 -30 17 -60q0 -51 -61 -51h-197q-50 0 -57 14l-17 51q-11 19 -30 19q-31 0 -66 -23q-115 -74 -250 -74q-172 0 -307 115q-143 124 -143 318
q0 224 159 370l80 68q17 17 17 33q0 23 -21 51q-61 104 -61 196q0 148 100 242q102 96 236 96q131 0 229 -98q100 -94 100 -242q0 -119 -67 -204q-37 -46 -150 -134q-10 -10 -10 -18q0 -4 19 -45l120 -186q16 -24 31 -25q17 0 19 8q14 25 14 53q0 18 -4 27l-8 21
q-6 14 -9 22q-4 11 -4 31q0 56 103 61h98q98 -4 98 -71zM809 1124q0 37 -21 64q-27 39 -77 39q-38 0 -68 -27q-31 -28 -31 -74q0 -41 39 -98q33 -41 68 -18q90 52 90 114zM786 260q17 12 17 33q0 34 -19 45q-6 2 -166 256q-7 20 -30 20q-22 0 -37 -14q-84 -60 -84 -168
q0 -46 17 -81q18 -38 45 -65q28 -28 65 -43q40 -16 78 -16q68 0 114 33z" />
    <glyph glyph-name="quotesingle" unicode="'" horiz-adv-x="548" 
d="M422 1434l-41 -320q-17 -123 -119 -123q-79 0 -94 123l-41 313q-7 62 32 93.5t124 31.5q54 0 98 -28q51 -35 41 -90z" />
    <glyph glyph-name="parenleft" unicode="(" 
d="M850 -51q0 -76 -45 -103q-24 -18 -66 -18h-4h-6q-83 0 -174 98q-96 97 -164 219q-151 268 -149 551v41q-2 283 149 551q68 122 164 219q91 99 174 99h6h4q41 0 66 -19q45 -27 45 -102q0 -39 -78 -135q-74 -91 -120 -160q-45 -67 -74 -129q-62 -147 -62 -344
q0 -199 62 -344q29 -62 74 -129q46 -69 120 -160q78 -96 78 -135z" />
    <glyph glyph-name="parenright" unicode=")" 
d="M850 696q2 -281 -150 -551q-32 -57 -75 -116q-41 -56 -88 -103q-91 -98 -174 -98h-7h-4q-41 0 -65 18q-45 27 -45 103q0 40 77 135q74 91 120 160q48 72 75 129q64 143 64 344t-64 344q-27 57 -75 129q-46 69 -120 160q-77 95 -77 135q0 75 45 102q25 19 65 19h4h7
q83 0 174 -99q50 -50 88 -102q41 -55 75 -117q152 -270 150 -551v-41z" />
    <glyph glyph-name="asterisk" unicode="*" 
d="M918 1128l-119 -32q-43 -12 -43 -17q-33 -12 -27 -24l39 -62l78 -98q43 -52 43 -84q0 -37 -45 -70q-35 -24 -60 -24q-39 0 -88 71l-69 105l-35 47q-12 16 -31 0l-39 -49l-69 -107q-46 -67 -86 -67q-28 0 -62 22q-43 33 -43 70q0 31 43 86l78 98l31 45q12 21 -6 29l-62 25
l-121 34q-94 27 -94 84q0 18 6 41q21 68 74 68q22 0 74 -19l116 -45l66 -16q15 -1 16 12l2 70l-4 127q-4 61 13 86q18 35 79 35q64 0 82 -39q11 -29 9 -86l-5 -125l3 -62q4 -21 18 -16l65 19l119 45q48 16 70 16q53 0 76 -68q8 -19 8 -41q0 -57 -100 -84z" />
    <glyph glyph-name="plus" unicode="+" 
d="M1030 637q0 -93 -36 -123q-37 -31 -136 -25l-88 5q-55 -6 -47 -56q0 -17 1 -31q1 -16 3 -53q2 -99 -28 -133q-30 -35 -119 -35t-124 35t-30 131l2 76q4 34 -8.5 50.5t-40.5 15.5l-88 -5q-93 -4 -131 26q-37 30 -37 122q0 90 34 123q34 32 132 31l88 -5q26 -1 39 13.5
t12 44.5q2 1 1.5 20t-3.5 62q-2 51 4 82q6 32 24 52q17 18 48 26q32 8 76 8t76 -8q29 -7 47 -25q19 -19 23 -52q4 -35 3 -87l-4 -72q0 -39 10 -52q11 -14 41 -12l88 5q99 2 133 -32q35 -35 35 -122z" />
    <glyph glyph-name="comma" unicode="," 
d="M764 170q0 -86 -8 -121q-85 -364 -242 -364q-70 0 -70 51q0 6 19 69q18 56 18 82q0 81 -28 97q-111 63 -111 186q0 44 16 82q16 39 45 69q27 29 68 46q38 16 82 16t82 -16q39 -16 67 -46q30 -32 46 -69q16 -38 16 -82z" />
    <glyph glyph-name="hyphen" unicode="-" 
d="M989 637q0 -158 -172 -148l-246 11l-239 -11q-168 -8 -168 148q0 160 166 154l241 -11l250 11q168 6 168 -154z" />
    <glyph glyph-name="hyphen" unicode="&#x2010;" 
d="M989 637q0 -158 -172 -148l-246 11l-239 -11q-168 -8 -168 148q0 160 166 154l241 -11l250 11q168 6 168 -154z" />
    <glyph glyph-name="period" unicode="." 
d="M764 170q0 -44 -16 -82t-46 -68q-29 -29 -67 -45t-82 -16t-82 16q-40 17 -68 45t-45 68q-16 38 -16 82t16 82q16 39 45 69q27 29 68 46q38 16 82 16t82 -16q39 -16 67 -46q30 -32 46 -69q16 -38 16 -82z" />
    <glyph glyph-name="slash" unicode="/" horiz-adv-x="1124" 
d="M965 1397q0 -31 -21 -70q-43 -82 -49 -100q-67 -162 -181 -417q-101 -227 -308 -681l-78 -197q-34 -65 -129 -65q-55 0 -96 32q-40 31 -40 91q0 24 31 98q17 47 68 115q121 267 173 384q67 153 87 206q4 14 61 144q57 131 168 378q15 35 43 123q29 91 152 86
q119 -2 119 -127z" />
    <glyph glyph-name="zero" unicode="0" horiz-adv-x="1689" 
d="M1563 1448q0 -86 -1 -143q-1 -84 -3 -203q0 -26 -1.5 -97.5t-1.5 -104.5v-142q0 -310 -47 -463q-56 -176 -209 -250t-466 -74q-436 0 -580 166q-129 150 -129 600v703q0 451 135 604q146 164 588 164q427 0 577 -174q138 -158 138 -586zM1178 1530q0 190 -74 252
q-67 55 -268 55q-141 0 -207 -27q-101 -39 -119 -151q-6 -41 -6 -105v-42q0 -14 2 -60t2 -63v-52v-141q0 -47 -2 -199v-338q0 -194 67 -251q67 -58 269 -58q193 0 260 62q65 61 65 254q0 107 1 179q2 109 3 253q7 338 7 432z" />
    <glyph glyph-name="one" unicode="1" horiz-adv-x="1689" 
d="M1563 180q0 -34 -14 -70q-13 -34 -36 -60q-22 -25 -53 -42q-29 -16 -67 -16l-1090 -2q-83 0 -129 52q-47 53 -47 134q0 193 166 203q88 -6 268 -6q76 1 82 43q14 102 22 263q7 144 7 359q0 188 -25 602q-1 60 -82 121q-76 57 -76 150q0 119 117 211q106 88 228 88
q213 0 213 -172q-3 -45 -3 -71q0 -22 -2 -126q-2 -82 -2 -110v-89v-1226q0 -59 154 -54q37 0 121 7q40 5 57 6q5 0 9.5 0.5t7 1t5 0.5h3.5q59 0 112 -68q54 -71 54 -129z" />
    <glyph glyph-name="two" unicode="2" horiz-adv-x="1689" 
d="M1565 150q0 -79 -52 -128t-131 -49q-12 0 -30 3l-43 8q-49 10 -70 10h-879q-106 0 -156 45q-51 46 -57 149q-4 73 -9 176.5t-7 133.5q-6 112 -6 147q0 201 53 309q68 132 246 187q65 20 171 40q109 21 239 38q348 47 348 303q0 217 -103 278q-66 39 -313 39
q-153 0 -252 -37q-138 -49 -184 -49q-79 0 -123 70q-35 61 -35 137q0 248 639 248q394 0 557 -119q195 -146 195 -526q0 -559 -510 -648q-16 -2 -34 -4t-40 -4.5t-34 -3.5q-33 -4 -107 -10q-142 -18 -220 -59q-102 -60 -102 -172q0 -260 39 -281q24 -13 82 -14q84 -6 126 -7
q84 -2 126 -2q247 0 317 7q15 3 29 5q12 2 53 11q24 5 45 6q28 2 37 2q93 0 148 -76q47 -70 47 -163z" />
    <glyph glyph-name="three" unicode="3" horiz-adv-x="1689" 
d="M1563 645q0 -310 -125 -467q-106 -133 -332 -180q-73 -14 -196 -22q-112 -7 -285 -7q-498 0 -498 228q0 87 56 147q57 62 143 62q45 0 145 -35t145 -35q300 0 388 31q174 57 174 288q0 122 -19 181q-33 88 -129 88q-129 0 -171 -1q-62 -1 -79 -3q-4 -1 -17.5 -3.5
t-20.5 -3.5q-35 -6 -64 -14q-62 -12 -100 -12q-41 0 -77 15q-38 16 -64 42q-29 29 -43 63q-15 36 -15 76q0 145 147 185q64 16 260 16q48 0 138 -6q88 -6 135 -6q115 0 115 258q0 196 -89 258q-69 45 -280 45q-39 0 -268 -18q-6 -1 -20.5 -4t-22.5 -4q-27 -5 -66 -15
q-68 -18 -117 -18q-76 0 -124 53t-48 129q0 163 248 219q136 29 379 29q423 0 580 -95q217 -130 217 -528q0 -315 -131 -467q-5 -8 -5 -12t11 -15q78 -72 106 -208q19 -89 19 -234z" />
    <glyph glyph-name="four" unicode="4" horiz-adv-x="1689" 
d="M1581 1061q0 -130 -182 -152l-121 -12q-54 -11 -55 -31q-9 -47 -9 -209q0 -61 1 -102q0 -12 1.5 -62.5t2.5 -82.5q1 -82 3 -144q1 -41 1 -102q0 -82 -48 -137q-48 -56 -126 -56q-36 0 -73 14t-63 37q-27 24 -43 56t-16 69q0 31 3 77q0 3 2.5 44t4.5 66t4.5 66t2.5 44
q3 46 3 78q0 264 -8 314q0 1 -1.5 7.5t-2.5 10.5q-2 11 -6 23q-8 8 -70 20q-121 23 -337 23q-15 0 -52 -8q-32 -7 -53 -7q-178 0 -186 236q-12 255 -16 431q-5 238 -5 431q0 86 46 145q47 60 132 60q131 0 170 -101q23 -58 23 -204q0 -25 -2 -109q-2 -64 -6 -149
q-4 -84 -6 -150q-2 -84 -2 -109q0 -72 23 -98q24 -27 89 -31q16 -2 37 -2h64q140 0 163 29q15 15 15 115q0 89 -13 307l-7 179q-3 76 -3 130q0 193 189 193q101 0 141 -64q33 -51 33 -157q0 -95 -6 -275q-1 -35 -2.5 -89.5t-1.5 -68.5q-1 -45 -1 -114q0 -189 72 -189
q43 0 82 14q36 13 59 13q75 0 119 -74q37 -61 37 -143z" />
    <glyph glyph-name="five" unicode="5" horiz-adv-x="1689" 
d="M1548 641q0 -361 -147 -514q-152 -160 -508 -160q-69 0 -170 6q-16 0 -43 1q-40 1 -127 3q-177 1 -270 41q-144 57 -144 215q0 74 50 130q49 55 126 55q49 0 220 -43q178 -41 249 -41q243 0 312 63t69 303q0 71 -47 127q-46 55 -119 60q-166 9 -226 11q-87 3 -126 3
q-25 0 -56 -3q-28 -3 -73 -11q-46 -8 -71 -11q-40 -4 -50 -4q-145 0 -202 76q-54 68 -54 213q0 31 2 167q1 48 7 237q5 136 6 236q2 136 2 169q0 90 45 150q49 69 137 69q26 0 64 -3q33 -3 90 -11q59 -9 92 -11q39 -3 65 -3q97 0 479 37l35 5q19 2 62 11q11 2 53 7
q24 3 43 3q42 0 77 -16q34 -16 61 -44q26 -28 41 -65q16 -40 16 -78q0 -127 -101 -166q-53 -26 -194 -26q-411 0 -609 -31q-60 -7 -65 -59l-12 -183q-7 -94 -8 -103q-3 -47 -3 -81q0 -100 43 -121q19 -8 133 -8h199h41q13 0 57 2q37 2 58 3q16 1 41 1q263 0 370 -182
q80 -142 80 -426z" />
    <glyph glyph-name="six" unicode="6" horiz-adv-x="1689" 
d="M1547 623q0 -367 -180 -517q-163 -137 -534 -137q-656 0 -668 623l-27 1421q-1 89 54 141q57 54 141 54q88 0 139 -52t51 -141l11 -684q0 -61 59 -61q16 0 42 3q49 6 58 7q14 2 36 4.5t25 2.5q25 3 42 3q409 0 567 -125q184 -145 184 -542zM1170 635q0 83 -14 136
q-15 57 -48 90q-34 34 -88 49q-58 16 -134 16q-8 0 -268 -13q-33 -1 -54 -33q-20 -30 -20 -69v-174q5 -115 26 -168q51 -125 271 -125q194 0 258 47q71 59 71 244z" />
    <glyph glyph-name="seven" unicode="7" horiz-adv-x="1689" 
d="M1548 1892l-10 -1722q-1 -87 -53 -143q-51 -56 -137 -56q-200 0 -195 197q8 792 -25 1530q-6 114 -135 112l-665 -4q-87 -2 -138 49t-51 140q0 76 54 130q51 51 133 56q420 18 854 -6q201 -7 274 -53q99 -60 94 -230z" />
    <glyph glyph-name="eight" unicode="8" horiz-adv-x="1689" 
d="M1548 623q0 -401 -159 -531q-145 -117 -547 -117q-398 0 -543 119q-160 136 -160 529q0 235 68 315q42 48 248 160q-194 57 -260 174q-52 92 -52 317q0 365 181 502q153 117 528 117q372 0 524 -123q168 -137 168 -506q0 -220 -53 -305q-55 -89 -252 -166
q205 -91 258 -172q51 -78 51 -313zM1159 1606q0 147 -82 198q-65 43 -219 43q-177 0 -240 -45q-86 -56 -86 -219q0 -108 54 -176q42 -48 151 -98q27 -11 123 -56q27 14 59 27q11 5 31 13.5t27 11.5q75 34 108 65q74 68 74 236zM1167 649q0 151 -307 268q-90 -38 -131 -58
q-57 -28 -82 -46q-121 -84 -121 -186q0 -291 322 -291q189 0 254 61t65 252z" />
    <glyph glyph-name="nine" unicode="9" horiz-adv-x="1689" 
d="M1550 164q2 -87 -53 -140q-57 -55 -141 -55q-88 0 -138 51q-51 53 -51 140l-6 684q0 55 -71 55q-11 0 -47 -2q-26 -1 -64 -6q-72 -6 -109 -6q-404 0 -559 127q-172 144 -172 542q0 383 170 523q151 125 547 125q385 0 530 -115q160 -130 156 -504q-4 -247 -2 -651
q1 -280 10 -768zM1159 1376v164q0 191 -53 244t-248 53q-209 0 -270 -41q-72 -52 -72 -250q0 -184 68 -235q57 -45 250 -45h75q39 0 83 3q38 3 95 11q48 6 60 24t12 72z" />
    <glyph glyph-name="colon" unicode=":" 
d="M764 989q0 -44 -16 -82q-15 -36 -46 -67q-29 -29 -67 -45q-40 -17 -82 -17t-82 17t-68 45q-29 29 -45 67t-16 82t16 82q16 39 45 69q27 29 68 46q38 16 82 16t82 -16q39 -16 67 -46q30 -32 46 -69q16 -38 16 -82zM764 293q0 -44 -16 -82t-46 -68q-29 -29 -67 -45t-82 -16
t-82 16q-40 17 -68 45t-45 68q-16 38 -16 82t16 82q16 37 45 68q27 29 68 46q40 17 82 17t82 -17q39 -16 67 -46q31 -33 46 -68q16 -38 16 -82z" />
    <glyph glyph-name="semicolon" unicode=";" 
d="M764 989q0 -44 -16 -82q-15 -36 -46 -67q-29 -29 -67 -45q-40 -17 -82 -17t-82 17t-68 45q-29 29 -45 67t-16 82t16 82q16 39 45 69q27 29 68 46q38 16 82 16t82 -16q39 -16 67 -46q30 -32 46 -69q16 -38 16 -82zM764 293q0 -86 -8 -121q-86 -365 -242 -365q-70 0 -70 52
q0 6 19 69q18 55 18 82q0 80 -28 96q-111 63 -111 187q0 44 16 82q16 37 45 68q27 29 68 46q40 17 82 17t82 -17q39 -16 67 -46q31 -33 46 -68q16 -38 16 -82z" />
    <glyph glyph-name="less" unicode="&#x3c;" 
d="M1100 338q0 -28 -9 -55q-8 -25 -25 -50q-14 -20 -38 -35q-23 -14 -49 -14q-65 0 -227 76q-21 10 -60 28.5t-57 26.5q-57 27 -117 54l-148 56q-60 23 -212 79q-119 45 -119 139t119 139l360 136q21 10 60 28.5t57 26.5q15 7 117 53q162 76 227 76q27 0 49 -13
q23 -14 38 -36q16 -24 25 -51t9 -54q0 -68 -127 -117l-123 -40q-71 -24 -121 -43q-197 -74 -197 -105q0 -29 76 -53l365 -135q127 -46 127 -117z" />
    <glyph glyph-name="equal" unicode="=" 
d="M985 817q0 -85 -49 -112q-34 -21 -123 -17l-246 10l-239 -10q-88 -4 -119 17q-49 27 -49 110t45 113q39 22 121 20l241 -10l252 10q166 6 166 -131zM985 469q0 -86 -49 -113q-32 -21 -123 -16l-246 10l-239 -10q-90 -5 -119 16q-49 27 -49 111q0 83 45 113q39 22 121 20
l241 -10l252 10q166 6 166 -131z" />
    <glyph glyph-name="greater" unicode="&#x3e;" 
d="M1100 643q0 -93 -121 -139q-18 -7 -40.5 -15t-55.5 -20t-54 -20q-47 -17 -211 -80q-40 -18 -116 -54q-18 -8 -57 -26.5t-60 -28.5q-162 -76 -227 -76q-24 0 -47 14q-24 15 -38 35q-17 25 -25 50q-9 27 -9 55q0 71 127 117l362 135q76 24 76 53q0 32 -194 105l-244 83
q-127 49 -127 117q0 27 9 54t25 51q15 22 38 36q22 13 47 13q65 0 227 -76q102 -46 117 -53q76 -36 116 -55l361 -134q121 -46 121 -141z" />
    <glyph glyph-name="question" unicode="?" 
d="M1024 1077q0 -193 -172 -317q-7 -5 -28.5 -17.5t-35.5 -20.5q-8 -5 -40 -24t-52 -32q-106 -63 -106 -140q0 -44 -34 -74q-35 -31 -83 -32q-63 -4 -115 37q-51 41 -51 114q0 185 189 287q8 4 45 25q38 22 73 43q129 76 129 176q0 46 -45 90q-40 35 -110 35q-52 0 -86 -24
q-35 -24 -35 -54q0 -19 22 -53q15 -21 15 -52q0 -56 -98 -71q-40 -6 -144 -6q-141 0 -141 102q0 14 26 57q31 51 35 72q30 137 144 211q106 68 252 68q186 0 315 -103q131 -111 131 -297zM666 162q0 -78 -56 -136q-56 -57 -135 -57t-135 57q-55 56 -55 136q0 42 14 74
q16 36 41 60q29 28 60 41q34 15 75 15q39 0 74 -15q33 -14 61 -41q25 -24 41 -60q15 -35 15 -74z" />
    <glyph glyph-name="at" unicode="@" horiz-adv-x="1945" 
d="M1184 -29q-45 0 -135 64q-95 -49 -144 -49q-213 0 -336 164q-110 146 -110 368q0 235 127 420q144 209 372 209q61 0 134 -37q70 -32 114 -82q51 92 109 92q41 0 69 -29q29 -31 29 -71q0 -28 -27 -107q-28 -102 -67 -335q-39 -231 -39 -324q0 -55 53 -55q106 0 201 137
q106 155 106 375q0 252 -182 430t-434 178q-305 0 -512 -256q-190 -236 -190 -553q0 -295 188 -477q189 -183 479 -183q209 0 400 62q154 50 223 113q27 24 47 24q37 0 37 -26q0 -90 -21 -129q-39 -78 -225 -150q-214 -78 -471 -78q-358 0 -604 240q-252 242 -252 602
q0 399 246 686q259 297 655 297q346 0 571 -225q228 -225 228 -572q0 -278 -168 -489q-183 -234 -471 -234zM958 936q-137 0 -217 -152q-69 -124 -69 -276q0 -130 63 -213q63 -92 178 -92q23 0 45 7q30 9 48 19q18 9 39 29q18 17 26 35q62 138 62 452q0 76 -50 134
q-50 57 -125 57z" />
    <glyph glyph-name="A" unicode="A" 
d="M1081 100q0 -59 -61 -92q-50 -28 -105 -28q-235 0 -235 118q0 21 20 62q23 52 23 76q0 26 -6 55q-6 28 -10 28q-6 24 -21 25h-231q-13 0 -21 -18l-18 -88q-6 -31 18 -103q6 -18 6 -28q0 -123 -176 -123q-198 0 -198 118q0 30 53 121q21 37 43 82q15 31 20 62l115 456
q76 303 76 443q2 8 -2 18q-3 8 -11 26q-6 13 -13 26q-7 14 -9 24q-4 20 2 51q11 57 78 64q14 2 149 2q76 0 99 -1q34 -2 45 -3q69 -8 86 -64q6 -25 2 -51q-1 -22 -17 -47q-14 -22 -14 -45q0 -57 209 -904q7 -47 61 -135q43 -73 43 -127zM657 571l-69 383q-6 39 -21 39
q-14 0 -20 -39l-76 -381q-4 -10 8 -10h170q10 0 8 8z" />
    <glyph glyph-name="B" unicode="B" 
d="M1071 457q0 -238 -151 -359q-135 -110 -373 -104q-237 2 -332 -6q-137 0 -137 141q0 47 35 94q34 50 34 88v832q0 58 -28 82l-8 6q-37 33 -37 106q0 111 135 115l276 12q226 8 361 -80q164 -102 164 -323q0 -78 -42 -156t-112 -119q-21 -12 -2 -20q73 -27 145 -127
q72 -96 72 -182zM739 1053q0 103 -84 133q-47 20 -190 20q-33 -6 -41 -14q-14 -7 -14 -41l-2 -201q0 -56 69 -57q262 -6 262 160zM797 457q0 170 -277 170h-61q-51 0 -51 -45v-277q0 -30 12 -43t35 -10h94q248 0 248 205z" />
    <glyph glyph-name="C" unicode="C" 
d="M1065 1087q0 -78 -104 -96q-21 -1 -39 -3q-12 -1 -35 -1t-35 1q-18 2 -39 3q-117 18 -117 92q0 7 9 29q8 19 8 29q0 78 -107 78q-233 0 -233 -494q0 -214 24 -305q45 -184 197 -184q56 0 93 28q38 29 38 76q0 15 -10 34t-10 36q0 54 45 69q21 6 88 6q70 0 93 -1
q33 -1 44 -3q86 -17 86 -80q0 -17 -9 -35q-6 -12 -20 -34q-15 -23 -21 -31q-13 -16 -14 -27q-102 -307 -407 -307q-307 0 -426 266q-84 185 -84 515q0 290 110 485q136 252 422 252q293 0 392 -279q5 -13 13 -25q4 -5 10.5 -16t8.5 -14q29 -40 29 -64z" />
    <glyph glyph-name="D" unicode="D" 
d="M1069 780q0 -307 -104 -516q-135 -276 -416 -276h-326q-65 0 -104 30t-39 80q0 40 55 123q21 29 21 68v870q0 53 -33 98q-47 68 -45 93q0 46 42 81q40 33 99 33h303q276 0 422 -215q125 -181 125 -469zM795 772q0 194 -56 297q-72 133 -243 133h-43q-27 -6 -27 -35v-884
q0 -35 31 -35h59q279 0 279 524z" />
    <glyph glyph-name="E" unicode="E" 
d="M1030 1325v-31q-2 -14 -2 -17v-11q0 -67 -29 -100t-86 -31q-29 0 -57 22l-16 14q-46 35 -95 35h-280q-27 0 -31 -28v-258q0 -20 7.5 -27t21.5 -2h125q25 0 67 31q39 32 60 32q137 0 137 -192q0 -87 -23 -133q-35 -60 -116 -60q-16 0 -56 31q-42 31 -67 31h-127
q-29 -5 -29 -31v-319q0 -33 45 -33l193 2q66 0 133 35q62 37 94 37q127 0 127 -138v-65q0 -88 -45 -115q-32 -16 -121 -16h-604q-135 0 -135 141q0 47 35 94q34 50 34 88v832q0 58 -28 82l-8 6q-37 33 -37 106q0 127 141 127h670q106 0 102 -139z" />
    <glyph glyph-name="F" unicode="F" 
d="M1026 1325v-31q-2 -14 -2 -17v-11q0 -67 -30 -99.5t-89 -31.5q-29 0 -57 22l-17 14q-46 35 -94 35h-268q-27 0 -31 -28v-258q0 -20 7.5 -27t21.5 -2h121q25 0 67 31q39 32 60 32q137 0 137 -192q0 -87 -23 -133q-35 -60 -116 -60q-16 0 -56 31q-42 31 -67 31h-123
q-29 -5 -29 -31v-291q0 -38 29 -96t29 -86v-16q0 -78 -58 -105q-40 -18 -125 -18q-122 0 -161 39q-27 27 -27 102q0 47 35 94q35 52 35 88v832q0 58 -29 82l-8 6q-37 33 -37 106q0 127 141 127h658q110 0 106 -139z" />
    <glyph glyph-name="G" unicode="G" 
d="M1040 1094q0 -97 -168 -97q-22 0 -34 1q-18 2 -39 3q-117 18 -117 93q0 10 7 30t7 31q0 64 -100 64q-123 0 -186 -185q-45 -134 -45 -301q0 -191 47 -327q66 -184 215 -177q80 6 121 31q28 22 30 57q2 51 0 187q0 25 -9.5 36t-29.5 7q-32 -12 -59 -10q-37 1 -59 14
q-50 24 -50 131q0 104 66 133q24 7 68 12q13 0 55 -8q43 -8 59 -8q19 0 31 1q16 1 41 3q28 2 38 2h32q60 -1 71 -117q2 -23 -4 -67q-6 -49 -6 -68v-459q0 -135 -117 -135q-59 0 -88 29q-14 14 -35 2q-93 -35 -204 -35q-248 0 -379 260q-109 215 -109 504q0 293 100 490
q130 264 404 264q273 0 362 -242q4 -17 18 -36q15 -22 34 -42q32 -33 32 -71z" />
    <glyph glyph-name="H" unicode="H" 
d="M1059 1337q0 -72 -39 -96l-6 -4q-29 -17 -29 -74v-870q0 -37 35 -72t35 -92q0 -76 -33 -109q-32 -32 -113 -32l-98 -2q-105 0 -139 28q-31 29 -31 119q0 58 35 88q37 33 37 74v311q0 37 -35 37h-225q-14 1 -23.5 -10t-13.5 -33v-305q0 -39 35 -74q36 -29 36 -88
q0 -93 -32 -119q-32 -28 -138 -28h-28q-10 0 -70 2q-81 0 -113 32t-32 109q0 57 35 92q34 34 34 72v870q0 58 -28 74l-6 4q-39 24 -39 96q0 81 39 105t182 24q91 0 119 -6q65 -15 75 -74q2 -14 2 -21v-28q0 -62 -36 -98q-35 -35 -35 -70v-225q0 -22 8 -32t25 -9l229 2
q35 0 35 41v223q0 35 -37 72q-35 40 -35 96q0 55 10 78q17 36 66 43q35 8 121 8q140 0 180 -24q41 -24 41 -105z" />
    <glyph glyph-name="I" unicode="I" 
d="M770 1337q0 -63 -39 -96q-12 -6 -24 -20q-11 -13 -11 -58v-870q0 -37 35 -72t35 -92q0 -74 -25 -102q-34 -43 -135 -43l-84 2q-166 0 -166 143q0 57 35 92t35 72v870q0 59 -20 70q-54 35 -54 104q0 133 162 133q113 0 113 -2q66 0 98 -16q45 -30 45 -115z" />
    <glyph glyph-name="J" unicode="J" 
d="M1040 1315q0 -28 -20 -55q-4 -4 -9 -14q-1 -3 -3.5 -6t-5.5 -6.5t-5 -6.5q-28 -50 -28 -92l2 -576q0 -275 -74 -412q-95 -180 -328 -180q-146 0 -258 80q-90 66 -129 156q-73 27 -73 123q0 60 36 99q37 40 105 40l92 -2q125 0 125 -115q0 -17 -8 -36t-8 -25q0 -13 10 -26
q12 -15 20 -21q28 -17 58 -17q106 -1 141 113q18 60 16 203l-2 600q0 43 -30 86q-50 70 -50 96q0 91 52 119q40 22 155 22q128 0 156 -14q63 -27 63 -133z" />
    <glyph glyph-name="K" unicode="K" 
d="M1065 86q0 -67 -47 -90q-28 -14 -131 -14q-40 1 -79 5q-29 3 -52 11q-59 22 -60 78q0 13 9 47q9 35 10 43q4 54 -131 272q-14 27 -27 50q-15 26 -27 26q-16 0 -32 -31q-22 -38 -35 -64q-25 -50 -37 -79v-109q0 -25 35 -77q37 -49 37 -66q0 -65 -33 -86q-26 -16 -88 -16
h-154q-129 0 -129 94q0 27 35 74t35 90v956q-1 18 -31 66q-27 45 -27 90q0 74 66 96q33 12 127 12q109 0 137 -14q58 -21 58 -111q0 -18 -25 -65q-28 -50 -29 -68q-6 -41 -6 -233l2 -135q-4 -24 -2 -37q2 -19 19 -19q20 4 53 74q14 36 35 80q1 3 15.5 33.5t21.5 46.5l77 145
q39 69 39 99q0 22 -8 54t-8 46q0 108 149 108h21q7 0 29 -2h43q80 0 105 -25q26 -26 26 -108q0 -40 -54 -88q-61 -52 -79 -78l-164 -313q-43 -83 -43 -113q0 -29 34 -94l218 -403q2 -9 61 -70q41 -47 41 -88z" />
    <glyph glyph-name="L" unicode="L" 
d="M1026 119q0 -84 -39 -111q-27 -20 -119 -20h-612q-135 0 -135 141q0 42 35 94q34 52 34 88v832q0 57 -36 90q-37 33 -37 104q0 55 30 96q30 40 84 40q147 0 183 -9q104 -22 104 -123q0 -70 -37 -94q-37 -22 -37 -80v-870q0 -24 11 -37q11 -12 24 -12l193 2q66 0 133 35
q62 37 94 37q85 0 113 -66q14 -28 14 -137z" />
    <glyph glyph-name="M" unicode="M" 
d="M1092 106q1 -56 -29 -83q-11 -10 -62 -25q-33 -10 -108 -10q-112 0 -145 18q-49 27 -43 121q0 13 9 29l8.5 17t11.5 21q12 21 21 48t9 61l2 461q2 24 -12 24q-11 0 -17 -16l-94 -291q-17 -47 -68 -47q-56 0 -73 47q-16 47 -24 75q-24 81 -66 208q-4 18 -15 18
q-12 0 -12 -22v-467q0 -40 29 -98q30 -55 30 -72q0 -82 -65 -119q-32 -16 -125 -16q-118 0 -143 14q-47 29 -45 143q0 16 28 66q29 53 27 115v880q-1 33 -22 69q-20 35 -21 89q0 26 20 53q27 45 70 45h43h70h86q51 -6 73 -49q12 -28 6 -61q-1 -6 -2.5 -15.5t-2.5 -16
t-2 -10.5q-3 -15 -3 -22q0 -32 15 -67l88 -240q15 -43 41 -43q29 0 47 51l92 254q6 15 6 29q0 16 -7 44t-7 46q0 44 32 82q19 18 74 20h129q79 0 105 -22t26 -82q0 -8 -24 -57q-23 -51 -23 -97v-891q0 -46 25 -104q8 -12 22 -36q11 -18 15 -69z" />
    <glyph glyph-name="N" unicode="N" 
d="M1100 1339q0 -66 -37 -96q-37 -28 -37 -55v-912q0 -16 33 -55q35 -41 35 -90q0 -86 -45 -119q-33 -26 -125 -26q-107 0 -146 12q-82 24 -82 100q0 15 6 42q7 31 7 42q0 50 -123 312l-154 325q-15 33 -24 33q-11 0 -11 -31v-555q0 -6 35 -53q35 -46 35 -104
q0 -96 -74 -117q-23 -6 -155 -6q-94 0 -127 26q-45 30 -45 117q0 54 34 92q35 40 35 72v870q0 35 -35 82q-34 46 -34 107q0 116 127 116q17 0 29 1t36 1t34 1q20 2 25 2q150 0 150 -136q0 -6 -3 -18t-3 -19q0 -27 127 -321q67 -154 95 -213q14 -29 34.5 -73.5t27.5 -59.5
q6 -10 15 -10q8 8 8 14v541q-4 24 -39 63q-37 38 -37 98q0 69 28 99q27 28 97 28h129q154 0 154 -127z" />
    <glyph glyph-name="O" unicode="O" 
d="M1081 723q0 -305 -98 -500q-131 -254 -408 -254q-268 0 -403 254q-106 200 -106 492q0 306 96 504q124 264 407 264q279 0 412 -258q100 -194 100 -502zM797 721q0 205 -29 315q-53 185 -199 185q-223 0 -223 -504q0 -486 229 -486q140 0 193 179q29 110 29 311z" />
    <glyph glyph-name="P" unicode="P" 
d="M1044 1030q0 -436 -389 -436l-147 -2q-70 0 -70 -70v-39q0 -11 -2 -63v-105q1 -69 31 -116q29 -47 29 -78q-4 -135 -162 -135q-130 0 -156 8q-72 23 -72 119q0 61 35 108q35 52 35 84v838q0 37 -37 96q-37 56 -37 98q0 121 152 121h252q82 0 110 -2q202 -17 302 -98
q126 -101 126 -328zM766 1026q0 176 -186 176h-101q-33 0 -39 -31q-2 -6 -2 -57v-223q0 -36 54 -41h102q172 1 172 176z" />
    <glyph glyph-name="Q" unicode="Q" 
d="M1081 774q0 -326 -123 -500q-34 -50 -34 -63q0 -23 19 -35q26 -16 40 -24q72 -38 72 -125q0 -78 -183 -78q-172 0 -206 108q-11 29 -45 23q-14 -2 -22 -2h-24q-257 0 -397 237q-112 194 -112 478q0 290 104 467q129 223 399 223t404 -232q108 -186 108 -477zM797 758
q0 193 -29 297q-52 178 -199 178q-223 0 -223 -479q0 -461 229 -461q143 0 193 174q29 101 29 291z" />
    <glyph glyph-name="R" unicode="R" 
d="M1065 106q0 -91 -55 -112q-23 -10 -121 -10q-94 0 -123 8q-53 12 -68 55q-8 27 2 78q3 15 6.5 31t5 22.5t1.5 7.5q0 23 -13 54q-7 17 -24.5 56.5t-27.5 60.5q-56 125 -73 165q-33 74 -139 70q-39 0 -39 -53v-113q-2 -50 -2 -65v-46q0 -59 29 -112q31 -51 31 -82
q-5 -135 -162 -135q-130 0 -156 8q-71 22 -71 119q0 62 34 108q35 52 35 84v838q0 37 -37 96q-37 56 -37 98q0 127 136 127h319q212 0 338 -104q141 -114 141 -326q0 -254 -176 -356q-14 -7 -14 -27q0 -15 16 -47l103 -213l100 -176q41 -77 41 -109zM725 1030q0 37 -13 66
q-14 31 -37 54q-22 22 -54 38q-28 14 -64 14h-96q-64 0 -64 -88v-223q0 -36 54 -41h86q92 0 140 53t48 127z" />
    <glyph glyph-name="S" unicode="S" 
d="M1053 401q0 -195 -140 -317q-133 -111 -333 -111q-132 0 -246 72q-124 78 -158 199q-6 22 -45 67q-37 44 -37 76q0 113 156 113q122 0 151 -6q86 -18 86 -93q0 -18 -12 -42t-12 -37q0 -43 43 -70q39 -25 82 -25q80 0 132 40t52 116q0 113 -174 205l-322 172
q-172 124 -172 317q0 185 132 297q129 103 315 103q146 0 252 -68q113 -74 143 -211q6 -27 33 -72q29 -47 29 -57q0 -102 -142 -102q-104 0 -143 6q-98 15 -98 71q0 22 20 51q21 30 21 50q0 34 -38 58q-37 24 -77 24q-68 0 -113 -33q-53 -35 -53 -98q0 -93 172 -181
q279 -144 322 -178q174 -135 174 -336z" />
    <glyph glyph-name="T" unicode="T" 
d="M1067 1311q0 -164 -143 -164q-17 0 -52 29q-34 28 -71 28h-66q-26 -1 -26 -30v-906q0 -55 30 -100q31 -48 31 -59q0 -90 -53 -113q-29 -10 -135 -10q-116 0 -144 14q-57 24 -57 111q0 10 29 57q28 46 28 98v905q0 31 -26 31h-72q-32 2 -70 -26q-40 -29 -55 -29
q-92 0 -121 53q-18 33 -18 127q0 57 26 90q35 47 95 47h749q121 0 121 -153z" />
    <glyph glyph-name="U" unicode="U" 
d="M1069 1341q0 -12 -31 -71q-28 -60 -28 -113v-731q0 -455 -432 -455q-233 0 -340 119q-103 115 -103 342v729q0 53 -31 107q-28 52 -28 73q0 56 43 90q42 33 110 33h131q111 0 111 -123q0 -22 -31 -75q-30 -52 -30 -109v-727q0 -194 170 -194q156 0 155 192v729
q0 47 -35 105q-32 51 -32 79q0 56 28 90q27 33 74 33h84h82q133 0 133 -123z" />
    <glyph glyph-name="V" unicode="V" 
d="M1061 1319q0 -38 -35 -105q-45 -82 -61 -137l-222 -860q-12 -45 -18 -108q-6 -55 -14 -74q-24 -45 -144 -45q-124 0 -147 47q-13 23 -14 69q-5 39 -9 61q-1 6 -3.5 23.5t-4.5 26.5l-229 897q-6 23 -20 63q-15 42 -27 68q-27 55 -27 78q0 90 41 119q34 22 125 22
q102 0 133 -20q49 -28 49 -123l-2 -12q-2 -19 -6 -56q-6 -53 4 -98l139 -524l138 524q8 29 8 64q0 29 -7 61q-8 37 -8 43q0 98 54 127q32 16 112 14h23q51 0 85 -6t53 -22t27 -45q7 -27 7 -72z" />
    <glyph glyph-name="W" unicode="W" 
d="M1122 1319q0 -15 -30 -76q-32 -66 -43 -133l-117 -881l-4 -120q-5 -56 -27 -89q-22 -34 -151 -34q-89 0 -107 39q-12 27 -10 75q0 36 -1 50q-1 18 -3 30l-39 162q-4 12 -17 12q-12 1 -16 -10q-2 -7 -20 -76q-13 -49 -19 -88q-5 -17 0 -80q1 -45 -16 -77q-17 -31 -105 -31
q-130 0 -151 37q-26 43 -27 82l-4 125l-117 880q-11 67 -43 133q-30 61 -30 76q0 90 41 119q34 22 124 22h23q83 0 117 -22q45 -30 45 -121q0 5 -3 -12l-7 -56q-6 -53 4 -98l43 -332q0 -6 1.5 -28.5t2.5 -36.5q1 -37 6 -82q2 -27 16 -27q6 0 11 19l28 256q1 36 25 47
q76 12 147 0q24 -6 25 -45l26 -250q2 -25 17 -25q7 0 12 25q0 5 1 15.5t2 21.5t1 22q1 37 6 90l39 324q10 45 4 98q-4 37 -6 56l-2 12q0 91 43 121q34 22 117 22h24q89 0 123 -22q41 -29 41 -119z" />
    <glyph glyph-name="X" unicode="X" 
d="M1053 1331q0 -49 -37 -104q-22 -30 -32 -46t-32 -46l-192 -349q-25 -45 -25 -63q0 -19 19 -59l178 -326q14 -23 35 -51l37 -49q43 -65 43 -113q0 -139 -129 -139q-147 0 -168 6q-50 15 -54 86q0 12 3 41q3 28 3 47q0 41 -32 102q-21 39 -82 164q-11 17 -19 17
q-9 0 -20 -17l-82 -170q-27 -52 -27 -86q0 -13 1 -23l2 -31q0 -5 0.5 -14.5t1.5 -14.5q1 -9 1 -19q0 -60 -63 -78q-36 -10 -111 -10q-102 0 -133 20q-45 27 -45 121q0 42 41 109l66 100l180 328q22 34 22 57t-24 67l-172 332q-18 28 -37 57q-20 29 -35 56q-43 68 -41 121
q5 72 37 96q26 16 94 16h88q65 0 88 -10q39 -18 39 -76q0 -37 -6 -64t-6 -36q0 -29 49 -139q40 -92 51 -107q21 -37 39 -37q19 0 37 33q101 199 101 248q0 5 -6 33q-5 23 -5 41q0 73 31 96q21 18 96 18h111q121 0 121 -135z" />
    <glyph glyph-name="Y" unicode="Y" 
d="M1049 1341q0 -68 -29 -126l-57 -111l-240 -551q-10 -23 -10 -41v-221q0 -37 20 -84q21 -49 21 -80q0 -89 -39 -119q-32 -22 -119 -22q-116 0 -143 12q-45 24 -45 123q0 29 18 84q20 50 20 88v217q0 20 -10 43l-246 553q-6 16 -65 104q-33 51 -33 123q0 76 19 101
q23 32 98 32h21q8 0 30 2h51q138 0 138 -116q0 -6 -6 -48q-5 -35 -5 -49q0 -89 109 -315q15 -51 35 -51q13 0 36 53q103 197 103 311q0 21 -4 53t-4 54q0 68 37 90q27 18 98 18q117 0 143 -10q58 -21 58 -117z" />
    <glyph glyph-name="Z" unicode="Z" 
d="M1075 1343q0 -51 -31 -104l-550 -905q-17 -29 -17 -47q0 -39 62 -39h176q56 0 108 43q51 45 115 45q125 0 125 -141v-99q0 -81 -35 -98q-20 -10 -119 -10h-714q-129 0 -129 121q0 37 24 81l576 945q14 21 14 39q0 28 -55 28h-197q-45 0 -102 -39t-95 -39q-77 0 -106 47
q-21 33 -21 107v84q0 102 101 102h749q121 0 121 -121z" />
    <glyph glyph-name="bracketleft" unicode="[" horiz-adv-x="573" 
d="M623 -156q0 -100 -103 -100q-29 0 -86 6q-27 1 -49 3q-14 1 -35 1q-29 0 -86 -6q-28 -4 -50 -6q-28 -2 -36 -2q-96 0 -96 135q0 28 6 88q4 28 6 50q2 28 2 36v1303q0 39 -6 123q-6 82 -6 122q0 39 3 65q3 27 14 39q12 14 32 18q23 5 57 5q41 0 48 -4q88 -12 112 -12
q20 0 35 1t47 3t47 3t35 1q109 0 109 -100t-103 -100q-22 0 -36 1q-20 1 -50 3q-56 6 -84 6q-63 0 -63 -39l2 -1421q0 -63 6 -84q12 -45 55 -45q5 0 35 2q15 1 47 3t47 3q30 2 35 2q109 0 109 -103z" />
    <glyph glyph-name="backslash" unicode="\" horiz-adv-x="1124" 
d="M965 -10q0 -60 -40 -91q-41 -32 -96 -32q-97 0 -127 65l-79 197q-249 547 -309 681q-114 255 -181 417q-6 18 -49 100q-21 39 -21 70q0 125 119 127q123 5 152 -86q22 -80 43 -123q85 -187 155 -347q61 -140 74 -175q33 -82 93 -220q46 -106 167 -370q24 -35 42 -67
q19 -35 24 -46q10 -25 16 -43q15 -47 17 -57z" />
    <glyph glyph-name="bracketright" unicode="]" horiz-adv-x="573" 
d="M492 -125q0 -135 -97 -135q-8 0 -36 2q-22 2 -50 6q-60 6 -86 6q-22 0 -36 -1q-20 -1 -50 -3q-55 -6 -84 -6q-102 0 -102 100q0 103 108 103q5 0 35 -2q15 -1 47 -3t47 -3q30 -2 35 -2q44 0 56 45q6 21 6 84l2 1421q0 39 -64 39q-29 0 -86 -6q-27 -1 -49 -3
q-14 -1 -35 -1q-102 0 -102 100t108 100q20 0 35 -1t47 -3t47 -3t35 -1q23 0 113 12q7 4 47 4q72 0 92 -26q14 -20 14 -101q0 -39 -6 -122q-6 -84 -6 -123v-1303q0 -29 6 -86q5 -29 6 -51q0 -6 1.5 -18.5t1.5 -18.5z" />
    <glyph glyph-name="asciicircum" unicode="^" 
 />
    <glyph glyph-name="underscore" unicode="_" 
 />
    <glyph glyph-name="grave" unicode="`" 
d="M795 1518q28 -38 28 -72q0 -64 -67 -64q-11 0 -15 1t-14 3q-330 96 -408 213q-14 25 -14 56q0 59 49 108t107 49q115 0 334 -294z" />
    <glyph glyph-name="a" unicode="a" 
d="M784 102q0 -71 -43 -98q-31 -20 -114 -20l-133 2q-94 0 -127 29q-35 30 -35 94q0 35 24 69l37 41q33 39 33 123v801q0 55 -20 69q-54 39 -54 105q0 54 64 104q62 51 139 49l39 -2q102 -4 102 -120v-1014q0 -69 43 -131q45 -60 45 -101z" />
    <glyph glyph-name="b" unicode="b" 
d="M1071 96q0 -81 -35 -98q-20 -10 -118 -10h-715q-129 0 -129 121q0 47 24 81l627 785q47 61 47 121q0 56 -48 94q-47 37 -120 37q-40 0 -77 -25q-35 -23 -35 -57q0 -23 19 -49t19 -52q0 -56 -98 -71q-38 -6 -143 -6q-142 0 -142 102q0 12 8 22q8 9 16 23q2 4 8.5 15.5
t11.5 18.5q12 19 18 50q27 124 131 201q105 78 264 78q193 0 322 -109q125 -107 125 -291q0 -117 -93 -248l-395 -495q-20 -21 -20 -45q0 -41 65 -41h115q56 0 108 43q51 45 115 45q125 0 125 -141v-99z" />
    <glyph glyph-name="c" unicode="c" 
d="M1057 457q0 -115 -36 -201t-102 -144q-65 -57 -160 -88q-93 -30 -208 -30q-253 0 -383 184l-49 62q-31 39 -31 71q0 92 82 92h158q52 0 75 -18q14 -14 18 -42q4 -29 15 -40q47 -47 139 -47q205 0 205 186q0 117 -121 160q-77 25 -215 25q-43 0 -67 51q-21 39 -21 86
q0 48 29 89q28 40 76 40q264 0 264 160q0 107 -82 137q-48 16 -172 16q-43 0 -98 -32q-57 -31 -99 -31q-61 0 -98 37t-37 96q0 98 148 151q105 37 223 37q245 0 366 -100.5t119 -302.5q-1 -156 -112 -238q-23 -17 -23 -24q0 -21 21 -29q176 -84 176 -313z" />
    <glyph glyph-name="d" unicode="d" 
d="M1069 403q0 -114 -76 -114q-23 0 -55 8q-43 7 -43 -37q0 -51 29 -92q30 -37 30 -57q0 -75 -32 -95q-21 -14 -105 -14h-20q-7 0 -29 -2h-51q-148 0 -148 111q0 11 27 51q29 47 29 110q0 23 -33 23h-412q-129 0 -129 121q0 37 25 82l561 919q19 32 36 39q19 8 62 8h94
q37 0 52 -18q14 -17 14 -84v-776q0 -23 14 -23q12 0 20 7q3 3 9.5 8.5t9.5 8.5q7 6 23 16q11 7 28 7q56 0 68 -80q2 -8 2 -127zM629 887q0 28 -11 28q-15 0 -22 -20l-145 -252q-13 -26 -13 -47q0 -41 66 -41h94q31 0 31 29v303z" />
    <glyph glyph-name="e" unicode="e" 
d="M1063 481q0 -214 -143 -350q-140 -137 -367 -137q-205 0 -330 135q-14 14 -84 43q-53 24 -53 61q0 63 68 136q69 73 131 73q37 0 67 -51q22 -35 36 -54t18 -24q69 -57 155 -57q93 0 166 76q74 77 74 172q0 96 -51 162q-66 84 -189 84q-97 0 -199 -91q-4 -4 -12 -4
q-39 0 -123 58q-82 57 -82 92q0 55 19 196q11 67 15 115q5 55 5 82q0 31 -8 68q-11 35 -6 65q6 133 96 133h639q105 0 105 -125q0 -107 -15 -137q-24 -67 -104 -67q-28 0 -74 34q-46 37 -94 37h-270q-35 0 -50 -110l-12 -146q-1 -39 21 -39q10 0 28 13q15 11 69 31t124 20
q199 -2 323 -168q107 -145 107 -326z" />
    <glyph glyph-name="f" unicode="f" 
d="M1065 436q0 -207 -141 -342q-139 -133 -324 -133q-271 0 -410 250q-110 204 -110 526q0 285 102 486q131 260 408 260q253 0 383 -187l49 -59q29 -41 29 -72q0 -94 -80 -94h-158q-56 0 -78 19q-11 11 -16 42q-4 29 -14 39q-43 43 -119 43q-174 0 -207 -301q-6 -41 37 -41
q8 0 22 7q72 34 172 34q176 0 310 -129q145 -139 145 -348zM813 430q0 95 -57 155t-137 60q-114 0 -181 -37q-37 -20 -41 -86q0 -116 45 -194q61 -103 174 -103q75 0 136 58q61 57 61 147z" />
    <glyph glyph-name="g" unicode="g" 
d="M1075 1343q0 -28 -31 -104l-387 -905q-24 -60 -24 -129l12 -68q2 -14 2 -31q0 -52 -32 -81t-72 -29h-144q-129 0 -129 113q0 19 25 81l412 945q10 29 10 41q0 26 -51 26h-238q-45 0 -102 -39t-95 -39q-77 0 -106 47q-21 33 -21 107v84q0 102 101 102h749q121 0 121 -121z
" />
    <glyph glyph-name="h" unicode="h" 
d="M1061 436q0 -197 -146 -338q-145 -139 -342 -139q-199 0 -344 139q-143 140 -143 338q0 196 143 336q19 22 19 33q0 13 -15 29q-81 100 -81 237q0 173 124 291q127 121 297 121t297 -121q125 -119 125 -291q0 -126 -77 -231q-17 -23 -17 -35q0 -16 23 -39
q137 -137 137 -330zM739 1071q0 71 -49 120q-50 50 -117 50q-68 0 -118 -50q-49 -49 -49 -120q0 -38 13 -67q14 -32 36 -55q21 -23 53 -37q29 -13 65 -13q67 0 117 50q49 49 49 122zM772 438q0 44 -15 81t-43 67q-26 28 -64 45q-35 16 -77 16q-43 0 -78 -16q-38 -17 -64 -45
q-28 -30 -43 -67t-15 -81q0 -43 15 -82q14 -36 43 -67q26 -28 64 -45q37 -17 78 -17q40 0 77 17q38 17 64 45q29 31 43 67q15 39 15 82z" />
    <glyph glyph-name="i" unicode="i" 
d="M1065 707q0 -285 -102 -486q-135 -260 -408 -260q-259 0 -383 186q-38 45 -52 63q-28 36 -28 69q0 92 82 92h158q52 0 76 -19q6 -6 10 -17q3 -8 7 -24q2 -8 6 -22q3 -11 9 -17q43 -43 119 -43q173 0 207 301q2 39 -37 39q-11 0 -22 -4q-75 -35 -172 -35q-177 0 -312 129
q-143 136 -143 349q0 208 143 344q134 131 322 131q272 0 407 -250q113 -206 113 -526zM748 922q0 109 -48 194q-61 103 -172 103q-75 0 -133 -58q-63 -57 -63 -147q0 -95 57 -155t137 -60q114 0 181 37q39 23 41 86z" />
    <glyph glyph-name="j" unicode="j" 
d="M1081 723q0 -305 -98 -500q-131 -254 -408 -254q-268 0 -403 254q-106 200 -106 492q0 306 96 504q124 264 407 264q279 0 412 -258q100 -194 100 -502zM797 721q0 205 -29 315q-53 185 -199 185q-223 0 -223 -504q0 -486 229 -486q140 0 193 179q29 110 29 311z" />
    <glyph glyph-name="k" unicode="k" 
d="M1081 723q0 -305 -98 -500q-131 -254 -408 -254q-268 0 -403 254q-106 200 -106 492q0 306 96 504q124 264 407 264q279 0 412 -258q100 -194 100 -502zM797 721q0 205 -29 315q-53 185 -199 185q-223 0 -223 -504q0 -486 229 -486q140 0 193 179q29 110 29 311z" />
    <glyph glyph-name="l" unicode="l" 
d="M784 102q0 -71 -43 -98q-31 -20 -114 -20l-133 2q-94 0 -127 29q-35 30 -35 94q0 35 24 69l37 41q33 39 33 123v801q0 55 -20 69q-54 39 -54 105q0 54 64 104q62 51 139 49l39 -2q102 -4 102 -120v-1014q0 -69 43 -131q45 -60 45 -101z" />
    <glyph glyph-name="m" unicode="m" 
d="M784 102q0 -71 -43 -98q-31 -20 -114 -20l-133 2q-94 0 -127 29q-35 30 -35 94q0 35 24 69l37 41q33 39 33 123v801q0 55 -20 69q-54 39 -54 105q0 54 64 104q62 51 139 49l39 -2q102 -4 102 -120v-1014q0 -69 43 -131q45 -60 45 -101z" />
    <glyph glyph-name="n" unicode="n" 
d="M1081 723q0 -305 -98 -500q-131 -254 -408 -254q-268 0 -403 254q-106 200 -106 492q0 306 96 504q124 264 407 264q279 0 412 -258q100 -194 100 -502zM797 723q0 205 -29 315q-53 185 -199 185q-223 0 -223 -504q0 -486 229 -486q140 0 193 179q29 110 29 311z" />
    <glyph glyph-name="o" unicode="o" 
d="M1081 723q0 -305 -98 -500q-131 -254 -408 -254q-268 0 -403 254q-106 200 -106 492q0 306 96 504q124 264 407 264q279 0 412 -258q100 -194 100 -502zM797 723q0 205 -29 315q-53 185 -199 185q-223 0 -223 -504q0 -486 229 -486q140 0 193 179q29 110 29 311z" />
    <glyph glyph-name="p" unicode="p" 
d="M784 102q0 -71 -43 -98q-31 -20 -114 -20l-133 2q-94 0 -127 29q-35 30 -35 94q0 35 24 69l37 41q33 39 33 123v801q0 55 -20 69q-54 39 -54 105q0 54 64 104q62 51 139 49l39 -2q102 -4 102 -120v-1014q0 -69 43 -131q45 -60 45 -101z" />
    <glyph glyph-name="q" unicode="q" 
d="M1071 96q0 -81 -35 -98q-20 -10 -118 -10h-715q-129 0 -129 121q0 47 24 81l627 785q47 61 47 121q0 56 -48 94q-47 37 -120 37q-40 0 -77 -25q-35 -23 -35 -57q0 -23 19 -49t19 -52q0 -56 -98 -71q-38 -6 -143 -6q-142 0 -142 102q0 12 8 22q8 9 16 23q2 4 8.5 15.5
t11.5 18.5q12 19 18 50q27 124 131 201q105 78 264 78q193 0 322 -109q125 -107 125 -291q0 -117 -93 -248l-395 -495q-20 -21 -20 -45q0 -41 65 -41h115q56 0 108 43q51 45 115 45q125 0 125 -141v-99z" />
    <glyph glyph-name="r" unicode="r" 
d="M1057 457q0 -115 -36 -201t-102 -144q-65 -57 -160 -88q-93 -30 -208 -30q-253 0 -383 184l-49 62q-31 39 -31 71q0 92 82 92h158q52 0 75 -18q14 -14 18 -42q4 -29 15 -40q47 -47 139 -47q205 0 205 186q0 117 -121 160q-77 25 -215 25q-43 0 -67 51q-21 39 -21 86
q0 48 29 89q28 40 76 40q264 0 264 160q0 107 -82 137q-48 16 -172 16q-43 0 -98 -32q-57 -31 -99 -31q-61 0 -98 37t-37 96q0 98 148 151q105 37 223 37q245 0 366 -100.5t119 -302.5q-1 -156 -112 -238q-23 -17 -23 -24q0 -21 21 -29q176 -84 176 -313z" />
    <glyph glyph-name="s" unicode="s" 
d="M1069 403q0 -114 -76 -114q-23 0 -55 8q-43 7 -43 -37q0 -51 29 -92q30 -37 30 -57q0 -75 -32 -95q-21 -14 -105 -14h-20q-7 0 -29 -2h-51q-148 0 -148 111q0 11 27 51q29 47 29 110q0 23 -33 23h-412q-129 0 -129 121q0 37 25 82l561 919q19 32 36 39q19 8 62 8h94
q37 0 52 -18q14 -17 14 -84v-776q0 -23 14 -23q12 0 20 7q3 3 9.5 8.5t9.5 8.5q7 6 23 16q11 7 28 7q56 0 68 -80q2 -8 2 -127zM629 887q0 28 -11 28q-15 0 -22 -20l-145 -252q-13 -26 -13 -47q0 -41 66 -41h94q31 0 31 29v303z" />
    <glyph glyph-name="t" unicode="t" 
d="M1063 481q0 -214 -143 -350q-140 -137 -367 -137q-205 0 -330 135q-14 14 -84 43q-53 24 -53 61q0 63 68 136q69 73 131 73q37 0 67 -51q22 -35 36 -54t18 -24q69 -57 155 -57q93 0 166 76q74 77 74 172q0 96 -51 162q-66 84 -189 84q-97 0 -199 -91q-4 -4 -12 -4
q-39 0 -123 58q-82 57 -82 92q0 55 19 196q11 67 15 115q5 55 5 82q0 31 -8 68q-11 35 -6 65q6 133 96 133h639q105 0 105 -125q0 -107 -15 -137q-24 -67 -104 -67q-28 0 -74 34q-46 37 -94 37h-270q-35 0 -50 -110l-12 -146q-1 -39 21 -39q10 0 28 13q15 11 69 31t124 20
q199 -2 323 -168q107 -145 107 -326z" />
    <glyph glyph-name="u" unicode="u" 
d="M1065 436q0 -207 -141 -342q-139 -133 -324 -133q-271 0 -410 250q-110 204 -110 526q0 285 102 486q131 260 408 260q253 0 383 -187l49 -59q29 -41 29 -72q0 -94 -80 -94h-158q-56 0 -78 19q-11 11 -16 42q-4 29 -14 39q-43 43 -119 43q-174 0 -207 -301q-6 -41 37 -41
q8 0 22 7q72 34 172 34q176 0 310 -129q145 -139 145 -348zM813 430q0 95 -57 155t-137 60q-114 0 -181 -37q-37 -20 -41 -86q0 -116 45 -194q61 -103 174 -103q75 0 136 58q61 57 61 147z" />
    <glyph glyph-name="v" unicode="v" 
d="M1075 1343q0 -28 -31 -104l-387 -905q-24 -60 -24 -129l12 -68q2 -14 2 -31q0 -52 -32 -81t-72 -29h-144q-129 0 -129 113q0 19 25 81l412 945q10 29 10 41q0 26 -51 26h-238q-45 0 -102 -39t-95 -39q-77 0 -106 47q-21 33 -21 107v84q0 102 101 102h749q121 0 121 -121z
" />
    <glyph glyph-name="w" unicode="w" 
d="M1061 436q0 -197 -146 -338q-145 -139 -342 -139q-199 0 -344 139q-143 140 -143 338q0 196 143 336q19 22 19 33q0 13 -15 29q-81 100 -81 237q0 173 124 291q127 121 297 121t297 -121q125 -119 125 -291q0 -126 -77 -231q-17 -23 -17 -35q0 -16 23 -39
q137 -137 137 -330zM739 1071q0 71 -49 120q-50 50 -117 50q-68 0 -118 -50q-49 -49 -49 -120q0 -38 13 -67q14 -32 36 -55q21 -23 53 -37q29 -13 65 -13q67 0 117 50q49 49 49 122zM772 438q0 44 -15 81t-43 67q-26 28 -64 45q-35 16 -77 16q-43 0 -78 -16q-38 -17 -64 -45
q-28 -30 -43 -67t-15 -81q0 -43 15 -82q14 -36 43 -67q26 -28 64 -45q37 -17 78 -17q40 0 77 17q38 17 64 45q29 31 43 67q15 39 15 82z" />
    <glyph glyph-name="x" unicode="x" 
d="M1065 707q0 -285 -102 -486q-135 -260 -408 -260q-259 0 -383 186q-38 45 -52 63q-28 36 -28 69q0 92 82 92h158q52 0 76 -19q6 -6 10 -17q3 -8 7 -24q2 -8 6 -22q3 -11 9 -17q43 -43 119 -43q173 0 207 301q2 39 -37 39q-11 0 -22 -4q-75 -35 -172 -35q-177 0 -312 129
q-143 136 -143 349q0 208 143 344q134 131 322 131q272 0 407 -250q113 -206 113 -526zM748 922q0 109 -48 194q-61 103 -172 103q-75 0 -133 -58q-63 -57 -63 -147q0 -95 57 -155t137 -60q114 0 181 37q39 23 41 86z" />
    <glyph glyph-name="y" unicode="y" 
d="M1061 436q0 -197 -146 -338q-145 -139 -342 -139q-199 0 -344 139q-143 140 -143 338q0 196 143 336q19 22 19 33q0 13 -15 29q-81 100 -81 237q0 173 124 291q127 121 297 121t297 -121q125 -119 125 -291q0 -126 -77 -231q-17 -23 -17 -35q0 -16 23 -39
q137 -137 137 -330zM739 1071q0 71 -49 120q-50 50 -117 50q-68 0 -118 -50q-49 -49 -49 -120q0 -38 13 -67q14 -32 36 -55q21 -23 53 -37q29 -13 65 -13q67 0 117 50q49 49 49 122zM772 438q0 44 -15 81t-43 67q-26 28 -64 45q-35 16 -77 16q-43 0 -78 -16q-38 -17 -64 -45
q-28 -30 -43 -67t-15 -81q0 -43 15 -82q14 -36 43 -67q26 -28 64 -45q37 -17 78 -17q40 0 77 17q38 17 64 45q29 31 43 67q15 39 15 82z" />
    <glyph glyph-name="z" unicode="z" 
d="M1075 1343q0 -28 -31 -104l-387 -905q-24 -60 -24 -129l12 -68q2 -14 2 -31q0 -52 -32 -81t-72 -29h-144q-129 0 -129 113q0 19 25 81l412 945q10 29 10 41q0 26 -51 26h-238q-45 0 -102 -39t-95 -39q-77 0 -106 47q-21 33 -21 107v84q0 102 101 102h749q121 0 121 -121z
" />
    <glyph glyph-name="braceleft" unicode="{" 
d="M850 -51q0 -76 -45 -103q-24 -18 -66 -18h-4h-6q-83 0 -174 98q-96 97 -164 219q-151 268 -149 551v41q-2 283 149 551q68 122 164 219q91 99 174 99h6h4q41 0 66 -19q45 -27 45 -102q0 -39 -78 -135q-74 -91 -120 -160q-45 -67 -74 -129q-62 -147 -62 -344
q0 -199 62 -344q29 -62 74 -129q46 -69 120 -160q78 -96 78 -135z" />
    <glyph glyph-name="bar" unicode="|" horiz-adv-x="573" 
d="M424 -31q-1 -51 -50 -90q-48 -39 -106 -39q-78 0 -108 74q-12 31 -13 102q-2 30 2 58q1 11 13 73q2 350 2 422q0 168 -4 224v571l-11 129q-10 94 103 139q29 10 53 10q48 0 83 -35q36 -36 36 -83q0 -2 -2 -22q-2 -15 -3 -36q-2 -28 -3 -43q-2 -30 -2 -41q6 -178 6 -477
q0 -346 -4 -725q0 -12 1.5 -44t2.5 -51q0 -14 1.5 -53.5t2.5 -62.5z" />
    <glyph glyph-name="braceright" unicode="}" 
d="M850 696q2 -281 -150 -551q-32 -57 -75 -116q-41 -56 -88 -103q-91 -98 -174 -98h-7h-4q-41 0 -65 18q-45 27 -45 103q0 40 77 135q74 91 120 160q48 72 75 129q64 143 64 344t-64 344q-27 57 -75 129q-46 69 -120 160q-77 95 -77 135q0 75 45 102q25 19 65 19h4h7
q83 0 174 -99q50 -50 88 -102q41 -55 75 -117q152 -270 150 -551v-41z" />
    <glyph glyph-name="asciitilde" unicode="~" 
 />
    <glyph glyph-name="nonbreakingspace" unicode="&#xa0;" 
 />
    <glyph glyph-name="exclamdown" unicode="&#xa1;" 
d="M764 1278q0 -40 -15 -74t-41 -60t-61 -41q-37 -16 -74 -16q-38 0 -75 16q-35 15 -61 41t-41 60t-15 74q0 39 15 75q14 34 41 61q26 26 61 41q34 15 75 15q39 0 74 -15t61 -41q27 -27 41 -61q15 -36 15 -75zM782 102q0 -133 -161 -133q-113 0 -113 2q-64 0 -98 17
q-45 30 -45 114q0 65 38 97q20 13 25 20l10 57l19 560q5 101 27 133q24 35 87 35q120 0 125 -173l13 -555q1 -10 5 -39q3 -23 15 -30q53 -35 53 -105z" />
    <glyph glyph-name="cent" unicode="&#xa2;" 
 />
    <glyph glyph-name="sterling" unicode="&#xa3;" 
d="M1040 1092q0 -91 -84 -107q-63 -8 -133 0q-104 18 -104 113q0 11 7 18t7 19q0 36 -27 63t-71 27q-189 0 -189 -240q0 -63 17 -160q11 -54 65 -55l174 10q82 2 117 -18q47 -29 41 -113q-6 -85 -51 -112q-34 -18 -113 -17l-129 6q-36 6 -51 -37v-44q0 -14 -2 -44
q-5 -99 -18 -120q-13 -24 -13 -41q0 -25 23 -25q62 0 87 1q37 2 66 3q85 11 140 31q26 7 84 59q44 37 80 37q88 0 88 -86l-19 -135q-18 -131 -151 -131h-551q-221 0 -221 113q0 53 53 100q54 46 74 94q30 80 24 182q-2 20 -11.5 30t-25.5 9q-49 -1 -88 30q-39 32 -39 95
q0 111 82 129q40 10 33 55q-3 24 -7 77q-3 37 -3 73q0 225 96 356q107 148 328 148q128 0 221 -70q92 -69 131 -194q8 -25 31 -56q32 -45 32 -73z" />
    <glyph glyph-name="currency" unicode="&#xa4;" 
d="M1114 1087q0 -78 -104 -96q-72 -10 -148 0q-117 18 -117 92q0 7 9 29q8 19 8 29q0 78 -107 78q-187 0 -225 -322q-6 -49 39 -51q35 0 78 8l57 12q14 2 21 2h20q127 0 127 -133q0 -85 -49 -112q-40 -23 -123 -17q-35 3 -46 4q-34 2 -85 6q-21 0 -34 -12q-13 -11 -11 -39
q22 -157 45 -213q51 -116 174 -116q56 0 93 28q38 29 38 76q0 15 -10 34t-10 36q0 54 45 69q21 6 88 6q70 0 93 -1q33 -1 44 -3q86 -17 86 -80q0 -17 -9 -35q-6 -12 -20 -34q-15 -23 -21 -31q-11 -14 -13 -27q-102 -307 -408 -307q-262 0 -391 203q-94 149 -109 383
q-4 45 -43 61q-67 21 -67 119q0 105 71 127q20 7 27 11q14 7 14 40q21 219 131 373q145 201 390 201q292 0 391 -279q5 -13 13 -25q3 -5 10 -16t9 -14q29 -40 29 -64z" />
    <glyph glyph-name="yen" unicode="&#xa5;" 
d="M1049 1341q0 -68 -29 -126l-57 -111l-54 -121q-4 -11 -4 -16q0 -21 25 -23q92 -18 92 -127q0 -85 -49 -112q-31 -22 -123 -17l-68 2q-21 0 -36 -27t-15 -51q0 -11 2.5 -14.5t7.5 -1.5l115 4q81 2 119 -22q47 -29 47 -109q0 -86 -49 -113q-29 -21 -123 -16q-17 0 -32 0.5
t-25 1t-17.5 1t-10.5 1.5h-3q-43 1 -49 -37v-16q1 -13 6 -35q5 -25 14 -47q21 -50 21 -82q0 -89 -39 -119q-32 -22 -119 -22q-116 0 -143 12q-45 24 -45 123q0 32 18 84q20 50 20 88v18q0 33 -49 33q-20 -2 -43 -2q-13 0 -71 -2q-90 -5 -119 16q-49 27 -49 111q0 83 45 113
q39 22 121 20l137 -6q14 1 14 27q0 29 -16 52q-16 24 -41 19l-92 -4q-88 -4 -119 17q-49 27 -49 110q0 124 112 131q23 5 23 23q0 5 -4 16l-56 121q-1 3 -65 104q-33 51 -33 123q0 76 19 101q23 32 98 32h21q8 0 30 2h51q138 0 138 -116q0 -6 -6 -48q-5 -35 -5 -49
q0 -89 109 -315q18 -51 35 -51q18 0 36 53q103 197 103 311q0 21 -4 53t-4 54q0 68 37 90q27 18 98 18q117 0 143 -10q58 -21 58 -117z" />
    <glyph glyph-name="brokenbar" unicode="&#xa6;" horiz-adv-x="573" 
d="M424 952q-1 -51 -50 -90q-48 -39 -106 -39q-78 0 -108 74q-12 31 -13 102q-2 35 2 67q2 17 13 85q2 21 1 43q-1 28 -3 74v96l-11 129q-10 94 103 139q29 10 53 10q48 0 83 -35q36 -36 36 -83q0 -2 -2 -22q-2 -15 -3 -36q-2 -28 -3 -43q-2 -30 -2 -41q4 -102 6 -108
q1 26 0 41q-2 -10 -2 -41q0 -14 -2 -90q0 -11 1.5 -47.5t2.5 -58.5q0 -17 1.5 -59.5t2.5 -66.5zM424 -31q-1 -51 -50 -90q-48 -39 -106 -39q-78 0 -108 74q-12 31 -13 102q-2 30 2 58q1 11 13 73q2 21 1 43q-1 28 -3 74v96l-11 150q-10 94 103 139q29 10 53 10q51 0 84 -36
q35 -38 35 -86q0 -15 -6 -66q-1 -24 -3 -49q-1 -15 -1 -43q5 -103 6 -109q1 26 0 41q-2 -10 -2 -41q0 -14 -2 -90q0 -12 1.5 -44t2.5 -51q0 -14 1.5 -53.5t2.5 -62.5z" />
    <glyph glyph-name="section" unicode="&#xa7;" 
 />
    <glyph glyph-name="dieresis" unicode="&#xa8;" 
d="M903 1528q0 -57 -40 -97t-97 -40t-97 40t-40 97t40 97t97 40t97 -40t40 -97zM508 1528q0 -57 -40 -97t-97 -40q-58 0 -98 40t-40 97t40 97t98 40q57 0 97 -40t40 -97z" />
    <glyph glyph-name="copyright" unicode="&#xa9;" 
d="M1071 1079q0 -213 -143 -368q-144 -156 -355 -156q-210 0 -356 158q-141 150 -141 366t141 369q144 156 356 156q211 0 355 -156q143 -155 143 -369zM991 1081q0 185 -119 316q-122 135 -299 135q-180 0 -301 -133q-116 -132 -116 -318q0 -188 116 -317
q121 -133 301 -133q182 0 301 137q117 130 117 313zM819 1272q0 -44 -55 -51q-14 -2 -20 -2h-19h-19q-6 0 -20 2q-61 7 -61 47q0 4 5 16t5 14q0 41 -57 41q-123 0 -123 -258q0 -114 12 -159q24 -99 104 -99q70 0 70 56q0 5 -6 16q-6 10 -6 20q0 39 71 39q62 0 72 -2
q45 -8 45 -41q0 -19 -15 -38q-17 -22 -20 -29q-51 -162 -213 -162q-268 0 -268 412q0 154 57 254q74 131 224 131q151 0 204 -146q5 -10 20 -30q13 -17 13 -31z" />
    <glyph glyph-name="ordfeminine" unicode="&#xaa;" 
 />
    <glyph glyph-name="guillemotleft" unicode="&#xab;" 
d="M877 -20q-30 0 -86 86l-70 106q-9 12 -44 55q-51 62 -63 78q-10 13 -35 46q-12 16 -18 26q-22 39 -24 86q-5 41 24 82l53 67l107 133l70 109q55 84 86 84q84 0 84 -111q0 -46 -29 -116q-22 -54 -43 -76q-4 -4 -28 -32q-2 -3 -17.5 -21.5t-26.5 -30.5q-55 -67 -55 -92
q0 -19 31 -53l-9 -5q42 -39 68 -71q30 -38 57 -72q60 -84 60 -149q0 -129 -92 -129zM508 -20q-30 0 -86 86l-70 106q-9 12 -44 55t-62 78q-30 38 -36 46q-7 9 -17 26q-24 41 -25 86q-4 40 25 82l53 67l106 133l70 109q56 84 86 84q84 0 84 -111q0 -46 -29 -116
q-22 -54 -43 -76q-4 -4 -13.5 -15.5t-13.5 -16.5q-2 -3 -17.5 -21.5t-26.5 -30.5q-56 -68 -56 -92q0 -19 31 -53l-8 -5q39 -36 67 -71q7 -9 27.5 -34t30.5 -38q59 -83 59 -149q0 -129 -92 -129z" />
    <glyph glyph-name="softhyphen" unicode="&#xad;" 
d="M989 637q0 -158 -172 -148l-246 11l-239 -11q-168 -8 -168 148q0 160 166 154l241 -11l250 11q168 6 168 -154z" />
    <glyph glyph-name="registered" unicode="&#xae;" 
d="M1071 1079q0 -213 -143 -368q-144 -156 -355 -156q-210 0 -356 158q-141 150 -141 366t141 369q144 156 356 156q211 0 355 -156q143 -155 143 -369zM991 1081q0 185 -119 316q-122 135 -299 135q-180 0 -301 -133q-116 -132 -116 -318q0 -188 116 -317
q121 -133 301 -133q182 0 301 137q117 130 117 313zM831 788q0 -48 -26 -55q-11 -4 -57 -4q-83 0 -91 31q-5 12 0 37q10 37 0 53q-4 8 -12 27.5t-12 28.5q-25 59 -35 79q-16 37 -66 33q-18 0 -18 -25v-106q0 -30 13 -53q14 -25 14 -39q0 -64 -76 -64q-64 0 -74 2
q-35 12 -35 58q0 27 17 52q16 23 16 40v397q0 20 -17 46q-18 27 -18 46q0 60 64 60h153q99 0 160 -50q68 -53 68 -153q0 -121 -84 -170q-12 -11 0 -35l49 -100q67 -127 67 -136zM670 1227q0 33 -24 57q-25 25 -56 25h-45q-31 0 -31 -43v-105q0 -18 25 -20h41q90 0 90 86z
" />
    <glyph glyph-name="macron" unicode="&#xaf;" 
d="M987 1544q0 -85 -49 -106q-36 -17 -123 -13l-246 11l-239 -11q-89 -2 -121 13q-47 23 -47 104q0 82 45 109q34 18 121 14l241 -10l250 10q92 5 121 -16q47 -24 47 -105z" />
    <glyph glyph-name="macron" unicode="&#x2c9;" 
d="M987 1544q0 -85 -49 -106q-36 -17 -123 -13l-246 11l-239 -11q-89 -2 -121 13q-47 23 -47 104q0 82 45 109q34 18 121 14l241 -10l250 10q92 5 121 -16q47 -24 47 -105z" />
    <glyph glyph-name="degree" unicode="&#xb0;" horiz-adv-x="870" 
d="M745 1245q0 -132 -100 -231q-101 -96 -231 -96q-143 0 -238 94q-96 96 -96 233q0 138 96 234q95 94 238 94q132 0 233 -96q98 -95 98 -232zM588 1245q0 33 -15 65q-16 34 -38 56q-23 23 -57 39q-29 14 -64 14q-76 0 -125 -49t-49 -125t49 -125t125 -49t125 49t49 125z
" />
    <glyph glyph-name="plusminus" unicode="&#xb1;" 
 />
    <glyph glyph-name="twosuperior" unicode="&#xb2;" 
 />
    <glyph glyph-name="threesuperior" unicode="&#xb3;" 
 />
    <glyph glyph-name="acute" unicode="&#xb4;" 
d="M838 1599q-78 -117 -408 -213q-10 -2 -14 -3t-15 -1q-65 0 -65 64q0 39 26 72q219 294 334 294q58 0 107 -49t49 -108q0 -31 -14 -56z" />
    <glyph glyph-name="mu" unicode="&#xb5;" 
 />
    <glyph glyph-name="mu" unicode="&#x3bc;" 
 />
    <glyph glyph-name="paragraph" unicode="&#xb6;" 
 />
    <glyph glyph-name="periodcentered" unicode="&#xb7;" 
d="M764 643q0 -44 -16 -82q-15 -36 -46 -67q-29 -29 -67 -45q-40 -17 -82 -17t-82 17t-68 45q-29 29 -45 67t-16 82t16 82q16 39 45 69q27 29 68 46q38 16 82 16t82 -16q39 -16 67 -46q30 -32 46 -69q16 -38 16 -82z" />
    <glyph glyph-name="periodcentered" unicode="&#x2219;" 
d="M764 643q0 -44 -16 -82q-15 -36 -46 -67q-29 -29 -67 -45q-40 -17 -82 -17t-82 17t-68 45q-29 29 -45 67t-16 82t16 82q16 39 45 69q27 29 68 46q38 16 82 16t82 -16q39 -16 67 -46q30 -32 46 -69q16 -38 16 -82z" />
    <glyph glyph-name="cedilla" unicode="&#xb8;" 
d="M733 -156q0 -63 -44 -107t-107 -44q-54 0 -95 33q-41 34 -53 84q-2 45 37 45q16 0 36 -17q19 -16 34 -16q43 0 43 47q0 52 -39 92l-27 14q-14 7 -31 7q0 14 95 14q63 0 107 -44t44 -108z" />
    <glyph glyph-name="onesuperior" unicode="&#xb9;" 
 />
    <glyph glyph-name="ordmasculine" unicode="&#xba;" 
 />
    <glyph glyph-name="guillemotright" unicode="&#xbb;" 
d="M911 330l-20 -25q-6 -8 -21 -25.5t-23 -27.5q-39 -48 -63 -80q-14 -22 -28 -43q-32 -48 -41 -63q-56 -86 -86 -86q-92 0 -92 129q0 75 77 174l115 143q14 14 14 33q0 25 -55 92l-74 84q-6 7 -20 31q-10 18 -21 45q-28 68 -28 116q0 111 84 111q26 0 86 -84l69 -109
l107 -133q10 -12 24 -31t19 -25q14 -17 22 -32q15 -22 13 -61q-4 -66 -58 -133zM543 330l-21 -25q-6 -8 -21 -25.5t-23 -27.5q-28 -35 -62 -80l-14 -21t-15 -22q-32 -48 -41 -63q-56 -86 -86 -86q-92 0 -92 129q0 73 78 174l114 143q15 15 15 33q0 24 -56 92l-73 84
q-9 10 -21 31q-8 13 -20 45q-29 70 -29 116q0 111 84 111q26 0 86 -84l70 -109l106 -133q10 -12 24 -31t19 -25q17 -22 23 -32q14 -20 12 -61q-4 -67 -57 -133z" />
    <glyph glyph-name="onequarter" unicode="&#xbc;" 
 />
    <glyph glyph-name="onehalf" unicode="&#xbd;" 
 />
    <glyph glyph-name="threequarters" unicode="&#xbe;" 
 />
    <glyph glyph-name="questiondown" unicode="&#xbf;" 
d="M860 1286q0 -80 -55 -135t-135 -55t-135 55q-56 56 -56 135q0 40 15 74q16 36 41 60q29 28 60 41q37 16 75 16q36 0 73 -16q34 -15 62 -41q25 -24 41 -60q14 -32 14 -74zM1024 377q0 -14 -27 -53q-27 -45 -34 -76q-30 -133 -144 -211q-106 -68 -252 -68q-191 0 -315 105
q-131 107 -131 295q0 190 172 317l156 92q106 63 106 142q0 46 34 76q35 30 83 30q63 6 114 -36q52 -43 52 -116q0 -181 -189 -286q-8 -4 -45 -25q-66 -39 -74 -43q-129 -78 -129 -176q0 -46 45 -90q40 -35 111 -35q51 0 86 24t35 54q0 18 -23 53q-14 20 -14 51q0 56 98 72
q39 6 144 6q141 0 141 -102z" />
    <glyph glyph-name="Agrave" unicode="&#xc0;" 
d="M795 1518q28 -38 28 -72q0 -64 -67 -64q-11 0 -15 1t-14 3q-330 96 -408 213q-14 25 -14 56q0 59 49 108t107 49q115 0 334 -294zM1081 90q0 -52 -61 -82q-45 -26 -105 -26q-235 0 -235 106q0 16 20 55q23 51 23 70q0 22 -6 49t-10 27q-6 19 -21 20h-231q-11 0 -21 -16
l-18 -80q-6 -29 18 -92q6 -17 6 -25q0 -110 -176 -110q-198 0 -198 106q0 30 51 107q58 90 65 133q8 29 27.5 99t29.5 107q10 39 30 111t26 94q78 293 78 398q2 7 -2 17q-3 8 -11 24t-13 24q-7 12 -9 23q-4 17 2 45q10 50 78 57q14 2 149 2q76 0 99 -1q34 -2 45 -3
q70 -8 86 -57q6 -19 2 -47q-1 -17 -17 -42q-14 -22 -14 -42q0 -54 209 -813q7 -45 61 -123q43 -65 43 -115zM657 516l-69 346q-6 35 -21 35q-14 0 -20 -35l-76 -344q-4 -10 8 -10h170q10 0 8 8z" />
    <glyph glyph-name="Aacute" unicode="&#xc1;" 
d="M838 1599q-78 -117 -408 -213q-10 -2 -14 -3t-15 -1q-65 0 -65 64q0 39 26 72q219 294 334 294q58 0 107 -49t49 -108q0 -31 -14 -56zM1081 90q0 -52 -61 -82q-45 -26 -105 -26q-235 0 -235 106q0 16 20 55q23 51 23 70q0 22 -6 49t-10 27q-6 19 -21 20h-231
q-11 0 -21 -16l-18 -80q-6 -29 18 -92q6 -17 6 -25q0 -110 -176 -110q-198 0 -198 106q0 30 51 107q58 90 65 133q8 29 27.5 99t29.5 107q10 39 30 111t26 94q78 293 78 398q2 7 -2 17q-3 8 -11 24t-13 24q-7 12 -9 23q-4 17 2 45q10 50 78 57q14 2 149 2q76 0 99 -1
q34 -2 45 -3q70 -8 86 -57q6 -19 2 -47q-1 -17 -17 -42q-14 -22 -14 -42q0 -54 209 -813q7 -45 61 -123q43 -65 43 -115zM657 516l-69 346q-6 35 -21 35q-14 0 -20 -35l-76 -344q-4 -10 8 -10h170q10 0 8 8z" />
    <glyph glyph-name="Acircumflex" unicode="&#xc2;" 
d="M887 1438q0 -58 -60 -58q-47 0 -227 99q-31 18 -68 2q-181 -101 -227 -101q-59 0 -59 58q0 67 125 186q127 121 196 121q67 0 195 -117q125 -117 125 -190zM1081 90q0 -52 -61 -82q-45 -26 -105 -26q-235 0 -235 106q0 16 20 55q23 51 23 70q0 22 -6 49t-10 27
q-6 19 -21 20h-231q-11 0 -21 -16l-18 -80q-6 -29 18 -92q6 -17 6 -25q0 -110 -176 -110q-198 0 -198 106q0 30 51 107q58 90 65 133q8 29 27.5 99t29.5 107q10 39 30 111t26 94q78 293 78 398q2 7 -2 17q-3 8 -11 24t-13 24q-7 12 -9 23q-4 17 2 45q10 50 78 57q14 2 149 2
q76 0 99 -1q34 -2 45 -3q70 -8 86 -57q6 -19 2 -47q-1 -17 -17 -42q-14 -22 -14 -42q0 -54 209 -813q7 -45 61 -123q43 -65 43 -115zM657 516l-69 346q-6 35 -21 35q-14 0 -20 -35l-76 -344q-4 -10 8 -10h170q10 0 8 8z" />
    <glyph glyph-name="Atilde" unicode="&#xc3;" 
d="M936 1546q0 -155 -234 -155q-42 0 -116 24q-72 27 -113 27q-17 0 -39 -8q-4 -2 -40 -18q-13 -6 -37 -16q-17 -7 -29 -7q-121 0 -121 118q0 146 233 146q45 0 117 -27q74 -24 113 -24q18 0 36 7q16 6 39 16q7 3 20 9t19 9q19 8 31 8q121 0 121 -109zM1081 90
q0 -52 -61 -82q-45 -26 -105 -26q-235 0 -235 106q0 16 20 55q23 51 23 70q0 22 -6 49t-10 27q-6 19 -21 20h-231q-11 0 -21 -16l-18 -80q-6 -29 18 -92q6 -17 6 -25q0 -110 -176 -110q-198 0 -198 106q0 30 51 107q58 90 65 133q8 29 27.5 99t29.5 107q10 39 30 111t26 94
q78 293 78 398q2 7 -2 17q-3 8 -11 24t-13 24q-7 12 -9 23q-4 17 2 45q10 50 78 57q14 2 149 2q76 0 99 -1q34 -2 45 -3q70 -8 86 -57q6 -19 2 -47q-1 -17 -17 -42q-14 -22 -14 -42q0 -54 209 -813q7 -45 61 -123q43 -65 43 -115zM657 516l-69 346q-6 35 -21 35
q-14 0 -20 -35l-76 -344q-4 -10 8 -10h170q10 0 8 8z" />
    <glyph glyph-name="Adieresis" unicode="&#xc4;" 
d="M903 1528q0 -57 -40 -97t-97 -40t-97 40t-40 97t40 97t97 40t97 -40t40 -97zM508 1528q0 -57 -40 -97t-97 -40q-58 0 -98 40t-40 97t40 97t98 40q57 0 97 -40t40 -97zM1081 90q0 -52 -61 -82q-45 -26 -105 -26q-235 0 -235 106q0 16 20 55q23 51 23 70q0 22 -6 49t-10 27
q-6 19 -21 20h-231q-11 0 -21 -16l-18 -80q-6 -29 18 -92q6 -17 6 -25q0 -110 -176 -110q-198 0 -198 106q0 30 51 107q58 90 65 133q8 29 27.5 99t29.5 107q10 39 30 111t26 94q78 293 78 398q2 7 -2 17q-3 8 -11 24t-13 24q-7 12 -9 23q-4 17 2 45q10 50 78 57q14 2 149 2
q76 0 99 -1q34 -2 45 -3q70 -8 86 -57q6 -19 2 -47q-1 -17 -17 -42q-14 -22 -14 -42q0 -54 209 -813q7 -45 61 -123q43 -65 43 -115zM657 516l-69 346q-6 35 -21 35q-14 0 -20 -35l-76 -344q-4 -10 8 -10h170q10 0 8 8z" />
    <glyph glyph-name="Aring" unicode="&#xc5;" horiz-adv-x="1204" 
d="M776 1602q0 -45 -16 -81q-17 -39 -45 -67t-67 -45q-36 -16 -81 -16q-44 0 -82 16t-67 45q-28 28 -45 67t-17 81q0 41 17 80t45 67q29 29 67 45t82 16q45 0 81 -16q39 -17 67 -45t45 -67q16 -36 16 -80zM1081 90q0 -52 -61 -82q-45 -26 -105 -26q-235 0 -235 106
q0 16 20 55q23 51 23 70q0 22 -6 49t-10 27q-6 19 -21 20h-231q-11 0 -21 -16l-18 -80q-6 -29 18 -92q6 -17 6 -25q0 -110 -176 -110q-198 0 -198 106q0 30 51 107q58 90 65 133q8 29 27.5 99t29.5 107q10 39 30 111t26 94q78 293 78 398q2 7 -2 17q-3 8 -11 24t-13 24
q-7 12 -9 23q-4 17 2 45q10 50 78 57q14 2 149 2q76 0 99 -1q34 -2 45 -3q70 -8 86 -57q6 -19 2 -47q-1 -17 -17 -42q-14 -22 -14 -42q0 -54 209 -813q7 -45 61 -123q43 -65 43 -115zM637 1602q0 28 -21 49q-20 20 -49 20t-49 -20t-20 -49q0 -30 20 -50t49 -20t49 20
q21 21 21 50zM657 516l-69 346q-6 35 -21 35q-14 0 -20 -35l-76 -344q-4 -10 8 -10h170q10 0 8 8z" />
    <glyph glyph-name="AE" unicode="&#xc6;" horiz-adv-x="1492" 
d="M1440 1325v-31q-2 -14 -2 -17v-11q0 -67 -29 -100t-86 -31q-29 0 -57 22l-17 14q-46 35 -94 35h-379l4 -20q2 -2 2 -8l60 -258q11 -35 30 -29h125q26 0 68 31q39 32 59 32q138 0 138 -192q0 -87 -23 -133q-35 -60 -117 -60q-15 0 -55 31q-42 31 -68 31h-53
q-34 -4 -28 -31l59 -237q1 -4 2.5 -11t1.5 -8q1 -8 6 -18q7 -25 35 -72q6 0 16 -1l43 -3q63 -6 136 35q61 37 92 37q127 0 127 -138v-65q0 -88 -45 -115q-32 -16 -121 -16h-303q-26 -8 -52 -8q-235 0 -235 118q0 21 20 62q23 52 23 76q0 26 -6 55q-6 28 -10 28q-6 24 -21 25
h-231q-13 0 -21 -18l-18 -88q-6 -31 18 -103q6 -18 6 -28q0 -123 -176 -123q-198 0 -198 118q0 30 53 121q21 37 43 82q15 31 20 62l115 456q76 303 76 443q2 8 -2 18q-3 8 -11 26q-6 13 -13 26q-7 14 -9 24q-4 23 2 51q11 57 78 64q14 2 149 2q148 0 181 -13h589
q107 0 103 -139zM657 571l-69 383q-6 39 -21 39q-14 0 -20 -39l-76 -381q-4 -10 8 -10h170q10 0 8 8z" />
    <glyph glyph-name="Ccedilla" unicode="&#xc7;" 
d="M1065 1087q0 -78 -104 -96q-72 -10 -148 0q-117 18 -117 92q0 7 9 29q8 19 8 29q0 78 -107 78q-233 0 -233 -494q0 -214 24 -305q45 -184 197 -184q56 0 93 28q38 29 38 76q0 15 -10 34t-10 36q0 54 45 69q21 6 88 6q70 0 93 -1q33 -1 44 -3q86 -17 86 -80q0 -17 -9 -35
q-6 -12 -20 -34q-15 -23 -21 -31q-13 -16 -14 -27q-85 -263 -317 -301q-6 0 -8 -8q-1 -6 8 -10q53 -41 53 -111q0 -63 -44 -107t-107 -44q-54 0 -95 33q-41 34 -53 84q-2 45 37 45q16 0 36 -17q19 -16 34 -16q43 0 43 47q0 52 -39 92q-2 8 -19 8q-446 46 -446 779
q0 290 110 485q136 252 422 252q293 0 392 -279q5 -13 13 -25q4 -5 10.5 -16t8.5 -14q29 -40 29 -64z" />
    <glyph glyph-name="Egrave" unicode="&#xc8;" 
d="M795 1518q28 -38 28 -72q0 -64 -67 -64q-11 0 -15 1t-14 3q-330 96 -408 213q-14 25 -14 56q0 59 49 108t107 49q115 0 334 -294zM1030 1194v-29q-2 -14 -2 -16v-10q0 -61 -29 -91t-86 -28q-34 5 -57 22l-16 11q-39 32 -95 32h-280q-30 0 -31 -26v-232q0 -35 29 -24h125
q27 0 67 28q46 29 60 29q137 0 137 -174q0 -82 -25 -123q-34 -49 -114 -49q-17 0 -56 27q-38 26 -67 26h-127q-29 -5 -29 -26v-289q0 -29 45 -29h193q70 0 133 33t94 33q127 0 127 -123v-60q0 -78 -45 -102q-27 -14 -121 -14h-604q-135 0 -135 127q0 43 35 84q34 44 34 80
v747q0 54 -28 76l-8 4q-37 30 -37 96q0 113 141 113h670q104 0 102 -123z" />
    <glyph glyph-name="Eacute" unicode="&#xc9;" 
d="M838 1599q-78 -117 -408 -213q-10 -2 -14 -3t-15 -1q-65 0 -65 64q0 39 26 72q219 294 334 294q58 0 107 -49t49 -108q0 -31 -14 -56zM1030 1194v-29q-2 -14 -2 -16v-10q0 -61 -29 -91t-86 -28q-34 5 -57 22l-16 11q-39 32 -95 32h-280q-30 0 -31 -26v-232q0 -35 29 -24
h125q27 0 67 28q46 29 60 29q137 0 137 -174q0 -82 -25 -123q-34 -49 -114 -49q-17 0 -56 27q-38 26 -67 26h-127q-29 -5 -29 -26v-289q0 -29 45 -29h193q70 0 133 33t94 33q127 0 127 -123v-60q0 -78 -45 -102q-27 -14 -121 -14h-604q-135 0 -135 127q0 43 35 84
q34 44 34 80v747q0 54 -28 76l-8 4q-37 30 -37 96q0 113 141 113h670q104 0 102 -123z" />
    <glyph glyph-name="Ecircumflex" unicode="&#xca;" 
d="M895 1438q0 -58 -59 -58q-48 0 -228 99q-30 18 -67 2q-181 -101 -228 -101q-59 0 -59 58q0 67 125 186q127 121 196 121q67 0 195 -117q125 -117 125 -190zM1030 1194v-29q-2 -14 -2 -16v-10q0 -61 -29 -91t-86 -28q-34 5 -57 22l-16 11q-39 32 -95 32h-280
q-30 0 -31 -26v-232q0 -35 29 -24h125q27 0 67 28q46 29 60 29q137 0 137 -174q0 -82 -25 -123q-34 -49 -114 -49q-17 0 -56 27q-38 26 -67 26h-127q-29 -5 -29 -26v-289q0 -29 45 -29h193q70 0 133 33t94 33q127 0 127 -123v-60q0 -78 -45 -102q-27 -14 -121 -14h-604
q-135 0 -135 127q0 43 35 84q34 44 34 80v747q0 54 -28 76l-8 4q-37 30 -37 96q0 113 141 113h670q104 0 102 -123z" />
    <glyph glyph-name="Edieresis" unicode="&#xcb;" 
d="M903 1528q0 -57 -40 -97t-97 -40t-97 40t-40 97t40 97t97 40t97 -40t40 -97zM508 1528q0 -57 -40 -97t-97 -40q-58 0 -98 40t-40 97t40 97t98 40q57 0 97 -40t40 -97zM1030 1194v-29q-2 -14 -2 -16v-10q0 -61 -29 -91t-86 -28q-34 5 -57 22l-16 11q-39 32 -95 32h-280
q-30 0 -31 -26v-232q0 -35 29 -24h125q27 0 67 28q46 29 60 29q137 0 137 -174q0 -82 -25 -123q-34 -49 -114 -49q-17 0 -56 27q-38 26 -67 26h-127q-29 -5 -29 -26v-289q0 -29 45 -29h193q70 0 133 33t94 33q127 0 127 -123v-60q0 -78 -45 -102q-27 -14 -121 -14h-604
q-135 0 -135 127q0 43 35 84q34 44 34 80v747q0 54 -28 76l-8 4q-37 30 -37 96q0 113 141 113h670q104 0 102 -123z" />
    <glyph glyph-name="Igrave" unicode="&#xcc;" 
d="M784 1518q29 -40 29 -72q0 -64 -68 -64q-10 0 -14 1t-14 3q-330 96 -408 213q-14 25 -14 56q0 59 49 108t107 49q114 0 333 -294zM770 1204q0 -59 -39 -86q-13 -7 -24 -19q-11 -13 -11 -52v-785q0 -33 35 -63q35 -29 35 -82q0 -67 -25 -92q-33 -39 -135 -39h-84
q-166 0 -166 131q0 53 35 82q35 30 35 63v785q0 52 -20 63q-54 29 -54 94q0 119 162 119h145q34 0 66 -16q45 -27 45 -103z" />
    <glyph glyph-name="Iacute" unicode="&#xcd;" 
d="M838 1599q-78 -117 -408 -213q-10 -2 -14 -3t-15 -1q-65 0 -65 64q0 39 26 72q219 294 334 294q58 0 107 -49t49 -108q0 -31 -14 -56zM770 1204q0 -59 -39 -86q-13 -7 -24 -19q-11 -13 -11 -52v-785q0 -33 35 -63q35 -29 35 -82q0 -67 -25 -92q-33 -39 -135 -39h-84
q-166 0 -166 131q0 53 35 82q35 30 35 63v785q0 52 -20 63q-54 29 -54 94q0 119 162 119h145q34 0 66 -16q45 -27 45 -103z" />
    <glyph glyph-name="Icircumflex" unicode="&#xce;" 
d="M887 1438q0 -58 -60 -58q-47 0 -227 99q-31 18 -68 2q-181 -101 -227 -101q-59 0 -59 58q0 67 125 186q127 121 196 121q67 0 195 -117q125 -117 125 -190zM770 1204q0 -59 -39 -86q-13 -7 -24 -19q-11 -13 -11 -52v-785q0 -33 35 -63q35 -29 35 -82q0 -67 -25 -92
q-33 -39 -135 -39h-84q-166 0 -166 131q0 53 35 82q35 30 35 63v785q0 52 -20 63q-54 29 -54 94q0 119 162 119h145q34 0 66 -16q45 -27 45 -103z" />
    <glyph glyph-name="Idieresis" unicode="&#xcf;" 
d="M903 1528q0 -57 -40 -97t-97 -40t-97 40t-40 97t40 97t97 40t97 -40t40 -97zM508 1528q0 -57 -40 -97t-97 -40q-58 0 -98 40t-40 97t40 97t98 40q57 0 97 -40t40 -97zM770 1204q0 -59 -39 -86q-13 -7 -24 -19q-11 -13 -11 -52v-785q0 -33 35 -63q35 -29 35 -82
q0 -67 -25 -92q-33 -39 -135 -39h-84q-166 0 -166 131q0 53 35 82q35 30 35 63v785q0 52 -20 63q-54 29 -54 94q0 119 162 119h145q34 0 66 -16q45 -27 45 -103z" />
    <glyph glyph-name="Eth" unicode="&#xd0;" 
d="M1069 780q0 -307 -104 -516q-135 -276 -416 -276h-326q-65 0 -104 30t-39 80q0 40 55 123q21 29 21 68v278q0 27 -29 39q-104 27 -104 131q0 125 108 137q25 0 25 41v244q0 53 -33 98q-47 68 -45 93q0 46 42 81q40 33 99 33h303q276 0 422 -215q125 -181 125 -469z
M795 772q0 194 -56 297q-72 133 -243 133h-43q-27 -6 -27 -35v-258q0 -35 29 -35q4 -1 37 3q149 7 149 -138q0 -139 -154 -133h-34q-26 -6 -27 -39v-284q0 -35 31 -35h59q279 0 279 524z" />
    <glyph glyph-name="Ntilde" unicode="&#xd1;" 
d="M946 1546q0 -155 -233 -155q-43 0 -117 24q-72 27 -113 27q-17 0 -39 -8q-4 -2 -40 -18q-22 -10 -36 -16q-17 -7 -30 -7q-121 0 -121 118q0 146 234 146q44 0 116 -27q73 -24 113 -24q18 0 36 7q26 10 40 16q7 3 20 9t19 9q19 8 30 8q121 0 121 -109zM1100 1204
q0 -57 -37 -84q-37 -28 -37 -51v-821q0 -16 33 -49q35 -35 35 -82q0 -82 -50 -109q-33 -20 -120 -20q-103 0 -146 10q-82 21 -82 90q0 12 6 38q7 30 7 38q0 43 -123 280l-154 293q-17 29 -24 29q-11 0 -11 -27v-499q0 -6 35 -47t35 -95q0 -85 -74 -106q-23 -6 -155 -6
q-87 0 -121 22q-51 27 -51 109q0 48 34 82q35 35 35 63v785q0 32 -35 73q-34 44 -34 97q0 104 127 104q17 0 29 1t36 1t34 1t25 1q150 0 150 -121q0 -5 -3 -17t-3 -18q0 -25 127 -288q79 -161 95 -191q15 -30 36 -70.5t26 -50.5q6 -10 15 -10q8 8 8 14v486q-4 24 -39 57
q-37 37 -37 88q0 62 28 90q27 27 97 27h129q154 0 154 -117z" />
    <glyph glyph-name="Ograve" unicode="&#xd2;" 
d="M788 1518q29 -40 29 -72q0 -64 -67 -64q-11 0 -15 1t-14 3q-330 96 -408 213q-14 25 -14 56q0 59 49 108t107 49q114 0 333 -294zM1081 649q0 -274 -98 -446q-134 -232 -408 -232q-268 0 -403 230q-106 179 -106 442q0 279 96 455q124 235 407 235q279 0 412 -231
q100 -173 100 -453zM797 649q0 184 -29 285q-52 166 -199 166q-223 0 -223 -455q0 -436 229 -436q140 0 193 160q29 101 29 280z" />
    <glyph glyph-name="Oacute" unicode="&#xd3;" 
d="M838 1599q-78 -117 -408 -213q-10 -2 -14 -3t-15 -1q-65 0 -65 64q0 39 26 72q219 294 334 294q58 0 107 -49t49 -108q0 -31 -14 -56zM1081 649q0 -274 -98 -446q-134 -232 -408 -232q-268 0 -403 230q-106 179 -106 442q0 279 96 455q124 235 407 235q279 0 412 -231
q100 -173 100 -453zM797 649q0 184 -29 285q-52 166 -199 166q-223 0 -223 -455q0 -436 229 -436q140 0 193 160q29 101 29 280z" />
    <glyph glyph-name="Ocircumflex" unicode="&#xd4;" 
d="M887 1438q0 -58 -60 -58q-47 0 -227 99q-31 18 -68 2q-181 -101 -227 -101q-59 0 -59 58q0 67 125 186q127 121 196 121q67 0 195 -117q125 -117 125 -190zM1081 649q0 -274 -98 -446q-134 -232 -408 -232q-268 0 -403 230q-106 179 -106 442q0 279 96 455
q124 235 407 235q279 0 412 -231q100 -173 100 -453zM797 649q0 184 -29 285q-52 166 -199 166q-223 0 -223 -455q0 -436 229 -436q140 0 193 160q29 101 29 280z" />
    <glyph glyph-name="Otilde" unicode="&#xd5;" 
d="M936 1546q0 -155 -234 -155q-42 0 -116 24q-72 27 -113 27q-17 0 -39 -8q-4 -2 -40 -18q-13 -6 -37 -16q-17 -7 -29 -7q-121 0 -121 118q0 146 233 146q45 0 117 -27q74 -24 113 -24q18 0 36 7q16 6 39 16q7 3 20 9t19 9q19 8 31 8q121 0 121 -109zM1081 649
q0 -274 -98 -446q-134 -232 -408 -232q-268 0 -403 230q-106 179 -106 442q0 279 96 455q124 235 407 235q279 0 412 -231q100 -173 100 -453zM797 649q0 184 -29 285q-52 166 -199 166q-223 0 -223 -455q0 -436 229 -436q140 0 193 160q29 101 29 280z" />
    <glyph glyph-name="Odieresis" unicode="&#xd6;" 
d="M903 1528q0 -57 -40 -97t-97 -40t-97 40t-40 97t40 97t97 40t97 -40t40 -97zM508 1528q0 -57 -40 -97t-97 -40q-58 0 -98 40t-40 97t40 97t98 40q57 0 97 -40t40 -97zM1081 649q0 -274 -98 -446q-134 -232 -408 -232q-268 0 -403 230q-106 179 -106 442q0 279 96 455
q124 235 407 235q279 0 412 -231q100 -173 100 -453zM797 649q0 184 -29 285q-52 166 -199 166q-223 0 -223 -455q0 -436 229 -436q140 0 193 160q29 101 29 280z" />
    <glyph glyph-name="Oslash" unicode="&#xd8;" 
d="M1081 723q0 -305 -98 -500q-131 -254 -408 -254q-127 0 -225 58l-20 -54q-37 -79 -113 -79q-77 0 -76 106q0 56 66 164q-141 208 -141 551q0 306 96 504q124 264 407 264q112 0 201 -43l2 8q38 108 119 108q45 -2 60 -27q16 -27 16 -91q0 -27 -45 -119q159 -203 159 -596
zM670 1194q-41 27 -101 27q-223 0 -223 -504q0 -72 4 -123q5 -60 12 -105q127 288 136 314zM797 721q0 167 -19 268q-93 -212 -139 -314q-86 -191 -182 -399q47 -45 118 -45q140 0 193 179q29 110 29 311z" />
    <glyph glyph-name="Ugrave" unicode="&#xd9;" 
d="M784 1518q29 -40 29 -72q0 -64 -68 -64q-10 0 -14 1t-14 3q-330 96 -408 213q-14 25 -14 56q0 59 49 108t107 49q114 0 333 -294zM1069 1208q0 -12 -31 -65q-28 -52 -28 -101v-659q0 -408 -432 -408q-443 0 -443 414v655q0 49 -31 97q-28 46 -28 67q0 48 43 79
q44 32 110 32h131q111 0 111 -111q0 -22 -31 -69q-30 -47 -30 -97v-655q0 -174 170 -174q156 0 155 172v657q0 41 -35 93q-32 45 -32 73q0 51 28 80q29 31 74 31h166q133 0 133 -111z" />
    <glyph glyph-name="Uacute" unicode="&#xda;" 
d="M838 1599q-78 -117 -408 -213q-10 -2 -14 -3t-15 -1q-65 0 -65 64q0 39 26 72q219 294 334 294q58 0 107 -49t49 -108q0 -31 -14 -56zM1069 1208q0 -12 -31 -65q-28 -52 -28 -101v-659q0 -408 -432 -408q-443 0 -443 414v655q0 49 -31 97q-28 46 -28 67q0 48 43 79
q44 32 110 32h131q111 0 111 -111q0 -22 -31 -69q-30 -47 -30 -97v-655q0 -174 170 -174q156 0 155 172v657q0 41 -35 93q-32 45 -32 73q0 51 28 80q29 31 74 31h166q133 0 133 -111z" />
    <glyph glyph-name="Ucircumflex" unicode="&#xdb;" 
d="M887 1438q0 -58 -60 -58q-47 0 -227 99q-31 18 -68 2q-181 -101 -227 -101q-59 0 -59 58q0 67 125 186q127 121 196 121q67 0 195 -117q125 -117 125 -190zM1069 1208q0 -12 -31 -65q-28 -52 -28 -101v-659q0 -408 -432 -408q-443 0 -443 414v655q0 49 -31 97
q-28 46 -28 67q0 48 43 79q44 32 110 32h131q111 0 111 -111q0 -22 -31 -69q-30 -47 -30 -97v-655q0 -174 170 -174q156 0 155 172v657q0 41 -35 93q-32 45 -32 73q0 51 28 80q29 31 74 31h166q133 0 133 -111z" />
    <glyph glyph-name="Udieresis" unicode="&#xdc;" 
d="M903 1528q0 -57 -40 -97t-97 -40t-97 40t-40 97t40 97t97 40t97 -40t40 -97zM508 1528q0 -57 -40 -97t-97 -40q-58 0 -98 40t-40 97t40 97t98 40q57 0 97 -40t40 -97zM1069 1208q0 -12 -31 -65q-28 -52 -28 -101v-659q0 -408 -432 -408q-443 0 -443 414v655q0 49 -31 97
q-28 46 -28 67q0 48 43 79q44 32 110 32h131q111 0 111 -111q0 -22 -31 -69q-30 -47 -30 -97v-655q0 -174 170 -174q156 0 155 172v657q0 41 -35 93q-32 45 -32 73q0 51 28 80q29 31 74 31h166q133 0 133 -111z" />
    <glyph glyph-name="Yacute" unicode="&#xdd;" 
d="M838 1599q-78 -117 -408 -213q-10 -2 -14 -3t-15 -1q-65 0 -65 64q0 39 26 72q219 294 334 294q58 0 107 -49t49 -108q0 -31 -14 -56zM1049 1206q0 -61 -29 -111q-8 -15 -17.5 -32t-21.5 -38t-18 -32l-240 -495q-10 -20 -10 -37v-199q0 -35 20 -76q21 -44 21 -71
q0 -80 -41 -109q-30 -18 -117 -18q-116 0 -143 12q-45 21 -45 109q0 25 18 75q20 44 20 78v197q0 16 -10 39l-246 497q-1 2 -3.5 6t-7 10.5t-9.5 13.5q-31 46 -45 65q-33 45 -33 110q0 69 23 94t94 25q5 0 51 2t51 2q138 0 138 -106q0 -5 -6 -45q-5 -33 -5 -44
q0 -79 109 -282q17 -47 35 -47q14 0 36 49q103 177 103 278q0 21 -4 50t-4 49q0 58 37 80q28 16 98 16q119 0 143 -8q58 -21 58 -107z" />
    <glyph glyph-name="Thorn" unicode="&#xde;" 
 />
    <glyph glyph-name="germandbls" unicode="&#xdf;" 
 />
    <glyph glyph-name="agrave" unicode="&#xe0;" 
 />
    <glyph glyph-name="aacute" unicode="&#xe1;" 
 />
    <glyph glyph-name="acircumflex" unicode="&#xe2;" 
 />
    <glyph glyph-name="atilde" unicode="&#xe3;" 
 />
    <glyph glyph-name="adieresis" unicode="&#xe4;" 
 />
    <glyph glyph-name="aring" unicode="&#xe5;" 
 />
    <glyph glyph-name="ae" unicode="&#xe6;" 
 />
    <glyph glyph-name="ccedilla" unicode="&#xe7;" 
 />
    <glyph glyph-name="egrave" unicode="&#xe8;" 
 />
    <glyph glyph-name="eacute" unicode="&#xe9;" 
 />
    <glyph glyph-name="ecircumflex" unicode="&#xea;" 
 />
    <glyph glyph-name="edieresis" unicode="&#xeb;" 
 />
    <glyph glyph-name="igrave" unicode="&#xec;" 
 />
    <glyph glyph-name="iacute" unicode="&#xed;" 
 />
    <glyph glyph-name="icircumflex" unicode="&#xee;" 
 />
    <glyph glyph-name="idieresis" unicode="&#xef;" 
 />
    <glyph glyph-name="eth" unicode="&#xf0;" 
 />
    <glyph glyph-name="ntilde" unicode="&#xf1;" 
 />
    <glyph glyph-name="ograve" unicode="&#xf2;" 
 />
    <glyph glyph-name="oacute" unicode="&#xf3;" 
 />
    <glyph glyph-name="ocircumflex" unicode="&#xf4;" 
 />
    <glyph glyph-name="otilde" unicode="&#xf5;" 
 />
    <glyph glyph-name="odieresis" unicode="&#xf6;" 
 />
    <glyph glyph-name="divide" unicode="&#xf7;" 
d="M739 1051q0 -37 -13 -66q-14 -31 -37 -54t-54 -37q-29 -13 -68 -13q-38 0 -67 13q-33 15 -55 37q-21 21 -36 54q-14 31 -14 66q0 71 50 121q51 51 122 51t122 -51q50 -50 50 -121zM1051 637q0 -154 -172 -148l-308 11l-301 -11q-168 -6 -168 148q0 155 166 154l303 -11
l312 11q168 1 168 -154zM739 225q0 -36 -13 -65q-15 -33 -37 -55q-21 -21 -54 -36q-31 -14 -68 -14q-36 0 -67 14q-35 16 -55 36t-36 55q-14 31 -14 65q0 72 50 122t122 50t122 -50t50 -122z" />
    <glyph glyph-name="oslash" unicode="&#xf8;" 
 />
    <glyph glyph-name="ugrave" unicode="&#xf9;" 
 />
    <glyph glyph-name="uacute" unicode="&#xfa;" 
 />
    <glyph glyph-name="ucircumflex" unicode="&#xfb;" 
 />
    <glyph glyph-name="udieresis" unicode="&#xfc;" 
 />
    <glyph glyph-name="thorn" unicode="&#xfe;" 
 />
    <glyph glyph-name="ydieresis" unicode="&#xff;" 
 />
    <glyph glyph-name="Aogonek" unicode="&#x104;" 
d="M1081 244q0 -25 -13 -45t-35 -36q-24 -17 -48 -25q-29 -10 -53 -11q-19 -7 -37 -15q-17 -8 -27 -18q-57 -45 -57 -137q0 -70 66 -70q11 0 25 8q18 10 27 16q14 9 26 16q13 7 26 7q25 0 41 -20t14 -45q-18 -76 -80 -126t-141 -50q-47 0 -88 18t-72 49t-49 72t-18 88
q0 147 172 213q29 11 0 17q-80 18 -80 92q0 16 20 55q23 46 23 70q0 23 -6 48t-10 25q-6 22 -21 23h-231q-10 0 -21 -17l-18 -79q-6 -29 18 -93q6 -16 6 -24q0 -111 -176 -111q-198 0 -198 107q0 25 53 108q24 36 43 74q15 30 20 57q9 33 28.5 101.5t28.5 103.5
q10 37 29 107t27 98q78 289 78 397q2 8 -2 17q-1 3 -3 6.5t-4.5 8t-3.5 7.5q-11 21 -13 25q-8 12 -9 22q-4 17 2 45q8 50 78 58q14 2 149 2h99q31 0 45 -2q69 -8 86 -60q6 -22 2 -45q-1 -20 -17 -43q-14 -21 -14 -41q0 -54 209 -813q11 -45 61 -121q43 -67 43 -114zM657 668
l-69 346q-6 35 -21 35q-14 0 -20 -35l-76 -344q-2 -8 8 -8h170q5 0 7 1.5t1 4.5z" />
    <glyph glyph-name="aogonek" unicode="&#x105;" 
 />
    <glyph glyph-name="Cacute" unicode="&#x106;" 
d="M838 1599q-78 -117 -408 -213q-10 -2 -14 -3t-15 -1q-65 0 -65 64q0 39 26 72q219 294 334 294q58 0 107 -49t49 -108q0 -31 -14 -56zM1065 979q0 -71 -104 -86q-21 -1 -39 -3q-12 -1 -35 -1t-35 1q-18 2 -39 3q-117 15 -117 82q0 6 9 26q8 18 8 25q0 70 -107 70
q-233 0 -233 -443q0 -191 24 -274q45 -168 197 -168q56 0 93 27q38 27 38 67q0 13 -10 30t-10 34q0 49 45 61q21 6 88 6h93q30 0 44 -2q86 -17 86 -74q0 -16 -9 -31q-10 -17 -20 -31q-18 -25 -21 -29q-13 -14 -14 -21q-100 -279 -407 -279q-308 0 -426 240q-84 168 -84 465
q0 262 110 436q140 225 422 225q293 0 392 -250q5 -11 13 -22q1 -2 19 -27q29 -35 29 -57z" />
    <glyph glyph-name="cacute" unicode="&#x107;" 
 />
    <glyph glyph-name="Ccaron" unicode="&#x10c;" 
d="M928 1720q0 -73 -125 -190q-127 -117 -195 -117q-73 0 -198 119t-125 188q0 58 61 58q46 0 227 -101q38 -18 68 0q181 101 225 101q62 0 62 -58zM1065 979q0 -71 -104 -86q-21 -1 -39 -3q-12 -1 -35 -1t-35 1q-18 2 -39 3q-117 15 -117 82q0 6 9 26q8 18 8 25
q0 70 -107 70q-233 0 -233 -443q0 -191 24 -274q45 -168 197 -168q56 0 93 27q38 27 38 67q0 13 -10 30t-10 34q0 49 45 61q21 6 88 6h93q30 0 44 -2q86 -17 86 -74q0 -16 -9 -31q-10 -17 -20 -31q-18 -25 -21 -29q-13 -14 -14 -21q-100 -279 -407 -279q-308 0 -426 240
q-84 168 -84 465q0 262 110 436q140 225 422 225q293 0 392 -250q5 -11 13 -22q1 -2 19 -27q29 -35 29 -57z" />
    <glyph glyph-name="ccaron" unicode="&#x10d;" 
 />
    <glyph glyph-name="Edotaccent" unicode="&#x116;" 
d="M750 1554q0 -34 -14 -65t-37 -54t-54 -37t-67 -14q-37 0 -68 14t-54 37t-37 54q-13 29 -13 65q0 72 50 122t122 50q71 0 121 -50q51 -51 51 -122zM1030 1194v-29q-2 -14 -2 -16v-10q0 -61 -29 -91t-86 -28q-34 5 -57 22l-16 11q-39 32 -95 32h-280q-30 0 -31 -26v-232
q0 -35 29 -24h125q27 0 67 28q46 29 60 29q137 0 137 -174q0 -82 -25 -123q-34 -49 -114 -49q-17 0 -56 27q-38 26 -67 26h-127q-29 -5 -29 -26v-289q0 -29 45 -29h193q70 0 133 33t94 33q127 0 127 -123v-60q0 -78 -45 -102q-27 -14 -121 -14h-604q-135 0 -135 127
q0 43 35 84q34 44 34 80v747q0 54 -28 76l-8 4q-37 30 -37 96q0 113 141 113h670q104 0 102 -123z" />
    <glyph glyph-name="edotaccent" unicode="&#x117;" 
 />
    <glyph glyph-name="Eogonek" unicode="&#x118;" 
d="M1030 1341v-28q-2 -14 -2 -17v-10q0 -61 -29 -91t-86 -28q-32 4 -57 23l-16 10q-41 33 -95 33h-280q-29 0 -31 -27v-231q0 -36 29 -25h125q26 0 67 29q46 29 60 29q137 0 137 -174q0 -82 -25 -123q-34 -49 -114 -49q-18 0 -56 26q-39 27 -67 27h-127q-29 -5 -29 -27v-289
q0 -28 45 -28h193q72 0 133 32q63 33 94 33q127 0 127 -123v-59q0 -96 -78 -113q-24 -7 -41 -15q-36 -18 -59 -32q-57 -45 -57 -137q0 -70 65 -70q12 0 26 8q12 7 26 16q9 6 27 16q13 7 26 7q24 0 40 -20q17 -21 15 -45q-18 -76 -80 -126t-141 -50q-47 0 -88 18t-72 49
t-49 72q-19 43 -19 88q0 130 131 193q16 10 15 16q-2 8 -17 8h-440q-135 0 -135 127q0 43 35 84q34 44 34 80v748q0 53 -28 75l-8 4q-37 30 -37 97q0 112 141 112h670q104 0 102 -123z" />
    <glyph glyph-name="eogonek" unicode="&#x119;" 
 />
    <glyph glyph-name="Gbreve" unicode="&#x11e;" 
d="M936 1665q0 -121 -111 -190q-96 -60 -231 -60q-128 0 -232 64q-118 69 -118 186q0 111 96 111q36 0 102 -68q63 -68 156 -68q61 0 145 64q83 63 111 63q35 0 58 -32q24 -33 24 -70zM1040 985q0 -70 -94 -82q-40 -6 -74 -6t-73 6q-117 15 -117 82q0 10 7 27t7 28
q0 56 -100 56q-123 0 -186 -166q-45 -117 -45 -271q0 -172 47 -292q63 -171 215 -160q80 2 121 29q25 14 30 49q4 47 0 168q0 47 -39 39q-28 -8 -30 -8q-13 -3 -29 -1q-34 1 -59 13q-50 21 -50 118q0 96 66 119q26 10 68 10q12 1 55 -6q43 -8 59 -8q19 0 31 1q16 1 41 3
q28 2 38 2h32q60 -1 71 -104q0 -18 -1 -29t-3 -35q-1 -7 -2.5 -18t-1.5 -15q-2 -20 -2 -24v-414q-4 -123 -117 -123q-61 0 -88 27q-14 10 -35 2q-86 -33 -204 -33q-248 0 -379 236q-109 191 -109 452q0 266 100 441q134 237 404 237q274 0 362 -217q7 -27 52 -69
q32 -32 32 -64z" />
    <glyph glyph-name="gbreve" unicode="&#x11f;" 
 />
    <glyph glyph-name="Iogonek" unicode="&#x12e;" 
d="M776 -131q-18 -76 -80 -126t-141 -50q-47 0 -88 18t-72 49t-49 72t-18 88q0 126 131 195q14 6 14 14q0 10 -16 14q-101 21 -101 123q0 53 35 82q35 30 35 64v784q0 53 -20 64q-54 29 -54 94q0 119 162 119h145q32 0 66 -17q45 -27 45 -102q0 -59 -39 -86q-12 -6 -24 -20
q-11 -13 -11 -52v-784q0 -34 35 -64q35 -29 35 -82q0 -94 -59 -116q-96 -51 -113 -68q-43 -39 -43 -125q0 -70 65 -70q12 0 26 8q18 10 27 16q14 9 26 16q13 7 26 7q25 0 41 -20t14 -45z" />
    <glyph glyph-name="iogonek" unicode="&#x12f;" 
 />
    <glyph glyph-name="Idotaccent" unicode="&#x130;" 
d="M735 1554q0 -36 -13 -65q-14 -31 -37 -54t-54 -37t-68 -14q-36 0 -67 14q-33 15 -55 37q-23 23 -37 54q-13 29 -13 65q0 72 50 122t122 50t122 -50t50 -122zM770 1204q0 -59 -39 -86q-13 -7 -24 -19q-11 -13 -11 -52v-785q0 -33 35 -63q35 -29 35 -82q0 -67 -25 -92
q-33 -39 -135 -39h-84q-166 0 -166 131q0 53 35 82q35 30 35 63v785q0 52 -20 63q-54 29 -54 94q0 119 162 119h145q34 0 66 -16q45 -27 45 -103z" />
    <glyph glyph-name="dotlessi" unicode="&#x131;" 
d="M770 1204q0 -59 -39 -86q-13 -7 -24 -19q-11 -13 -11 -52v-785q0 -33 35 -63q35 -29 35 -82q0 -67 -25 -92q-33 -39 -135 -39h-84q-166 0 -166 131q0 53 35 82q35 30 35 63v785q0 52 -20 63q-54 29 -54 94q0 119 162 119h145q34 0 66 -16q45 -27 45 -103z" />
    <glyph glyph-name="Lslash" unicode="&#x141;" 
d="M1026 119q0 -84 -39 -111q-27 -20 -119 -20h-612q-135 0 -135 141q0 42 35 94q34 52 34 88v115q0 27 -14 27l11 -2h-1h-34q-33 0 -72 63q-29 47 -29 84q0 60 84 113l29 18q26 14 26 49v365q0 57 -36 90q-37 33 -37 104q0 55 30 96q30 40 84 40q147 0 183 -9
q104 -22 104 -123q0 -70 -37 -94q-37 -22 -37 -80v-221q0 -31 23 -31q4 0 16 7l6 4q51 39 95 39q59 0 104 -76q29 -46 29 -82q0 -68 -88 -113l-154 -80q-31 -17 -31 -49v-268q0 -24 11 -37q11 -12 24 -12l193 2q66 0 133 35q62 37 94 37q85 0 113 -66q14 -28 14 -137z" />
    <glyph glyph-name="lslash" unicode="&#x142;" 
 />
    <glyph glyph-name="Nacute" unicode="&#x143;" 
d="M838 1599q-78 -117 -408 -213q-10 -2 -14 -3t-15 -1q-65 0 -65 64q0 39 26 72q219 294 334 294q58 0 107 -49t49 -108q0 -31 -14 -56zM1100 1204q0 -57 -37 -84q-37 -28 -37 -51v-821q0 -16 33 -49q35 -35 35 -82q0 -82 -50 -109q-33 -20 -120 -20q-103 0 -146 10
q-82 21 -82 90q0 12 6 38q7 30 7 38q0 43 -123 280l-154 293q-17 29 -24 29q-11 0 -11 -27v-499q0 -6 35 -47t35 -95q0 -85 -74 -106q-23 -6 -155 -6q-87 0 -121 22q-51 27 -51 109q0 48 34 82q35 35 35 63v785q0 32 -35 73q-34 44 -34 97q0 104 127 104q17 0 29 1t36 1
t34 1t25 1q150 0 150 -121q0 -5 -3 -17t-3 -18q0 -25 127 -288q79 -161 95 -191q15 -30 36 -70.5t26 -50.5q6 -10 15 -10q8 8 8 14v486q-4 24 -39 57q-37 37 -37 88q0 62 28 90q27 27 97 27h129q154 0 154 -117z" />
    <glyph glyph-name="nacute" unicode="&#x144;" 
 />
    <glyph glyph-name="OE" unicode="&#x152;" horiz-adv-x="1679" 
d="M1618 1325v-31q-2 -14 -2 -17v-11q0 -67 -29 -100t-86 -31q-29 0 -57 22l-17 14q-46 35 -94 35h-260q-27 0 -31 -28v-258q0 -20 7.5 -27t21.5 -2h105q25 0 67 31q39 32 60 32q137 0 137 -192q0 -87 -23 -133q-35 -60 -117 -60q-15 0 -55 31q-42 31 -67 31h-107
q-29 -5 -29 -31v-319q0 -33 45 -33l173 2q66 0 133 35q62 37 94 37q127 0 127 -138v-65q0 -88 -45 -115q-32 -16 -121 -16h-584q-47 0 -86 30q-77 -49 -203 -49q-268 0 -403 254q-106 200 -106 492q0 306 96 504q124 264 407 264q116 0 201 -49q44 30 96 30h650
q106 0 102 -139zM797 721q0 205 -29 315q-53 185 -199 185q-223 0 -223 -504q0 -486 229 -486q140 0 193 179q29 110 29 311z" />
    <glyph glyph-name="oe" unicode="&#x153;" 
 />
    <glyph glyph-name="Sacute" unicode="&#x15a;" 
d="M838 1599q-78 -117 -408 -213q-10 -2 -14 -3t-15 -1q-65 0 -65 64q0 39 26 72q219 294 334 294q58 0 107 -49t49 -108q0 -31 -14 -56zM1053 360q0 -184 -148 -290q-131 -95 -325 -95q-126 0 -240 64q-126 67 -164 180q-5 16 -47 64q-35 41 -35 65q0 103 156 103
q118 0 151 -7q86 -17 86 -84q0 -14 -12 -36t-12 -35q0 -40 45 -64q33 -20 80 -20q74 0 125 31q59 37 59 108q0 102 -174 184l-322 156q-172 112 -172 285q0 174 142 274q124 86 305 86q144 0 246 -57q119 -63 149 -195q6 -27 33 -65q29 -41 29 -49q0 -93 -142 -93
q-63 0 -87 1q-34 1 -56 3q-98 15 -98 66q0 22 20 46q21 26 21 44q0 33 -43 55q-36 19 -72 19q-64 0 -109 -27q-57 -33 -57 -92q0 -83 172 -162q156 -72 218 -103q87 -43 104 -56q174 -118 174 -304z" />
    <glyph glyph-name="Scaron" unicode="&#x160;" 
d="M889 1720q0 -73 -125 -190q-128 -117 -195 -117q-73 0 -198 119t-125 188q0 58 61 58q47 0 228 -101q37 -18 67 0q181 101 225 101q62 0 62 -58zM1053 360q0 -184 -148 -290q-131 -95 -325 -95q-126 0 -240 64q-126 67 -164 180q-5 16 -47 64q-35 41 -35 65
q0 103 156 103q118 0 151 -7q86 -17 86 -84q0 -14 -12 -36t-12 -35q0 -40 45 -64q33 -20 80 -20q74 0 125 31q59 37 59 108q0 102 -174 184l-322 156q-172 112 -172 285q0 174 142 274q124 86 305 86q144 0 246 -57q119 -63 149 -195q6 -27 33 -65q29 -41 29 -49
q0 -93 -142 -93q-63 0 -87 1q-34 1 -56 3q-98 15 -98 66q0 22 20 46q21 26 21 44q0 33 -43 55q-36 19 -72 19q-64 0 -109 -27q-57 -33 -57 -92q0 -83 172 -162q156 -72 218 -103q87 -43 104 -56q174 -118 174 -304z" />
    <glyph glyph-name="scaron" unicode="&#x161;" 
 />
    <glyph glyph-name="Umacron" unicode="&#x16a;" 
d="M987 1544q0 -85 -49 -106q-36 -17 -123 -13l-246 11l-239 -11q-89 -2 -121 13q-47 23 -47 104q0 82 45 109q34 18 121 14l241 -10l250 10q92 5 121 -16q47 -24 47 -105zM1069 1208q0 -12 -31 -65q-28 -52 -28 -101v-659q0 -408 -432 -408q-443 0 -443 414v655
q0 49 -31 97q-28 46 -28 67q0 48 43 79q44 32 110 32h131q111 0 111 -111q0 -22 -31 -69q-30 -47 -30 -97v-655q0 -174 170 -174q156 0 155 172v657q0 41 -35 93q-32 45 -32 73q0 51 28 80q29 31 74 31h166q133 0 133 -111z" />
    <glyph glyph-name="umacron" unicode="&#x16b;" 
 />
    <glyph glyph-name="Uogonek" unicode="&#x172;" 
d="M1069 1356q0 -15 -31 -68q-28 -52 -28 -100v-660q0 -327 -281 -393q-26 -7 -53 -17q-25 -9 -41 -24q-57 -45 -57 -137q0 -70 65 -70q12 0 26 8q12 7 26 16q9 6 27 16q13 7 26 7q24 0 40 -20q16 -21 15 -45q-18 -76 -80 -126t-141 -50q-48 0 -88 18q-41 18 -72 49t-49 72
q-19 43 -19 88q0 104 97 172q20 14 20 25q0 8 -29 14q-307 51 -307 404v655q0 48 -31 96q-28 46 -28 68q0 50 43 81t110 31h131q111 0 111 -110q0 -21 -31 -72q-30 -46 -30 -96v-656q0 -174 170 -174q156 0 155 172v658q0 40 -35 92q-32 49 -32 76q0 51 28 80q28 30 74 30
h166q133 0 133 -110z" />
    <glyph glyph-name="uogonek" unicode="&#x173;" 
 />
    <glyph glyph-name="Ydieresis" unicode="&#x178;" 
d="M903 1528q0 -57 -40 -97t-97 -40t-97 40t-40 97t40 97t97 40t97 -40t40 -97zM508 1528q0 -57 -40 -97t-97 -40q-58 0 -98 40t-40 97t40 97t98 40q57 0 97 -40t40 -97zM1049 1206q0 -61 -29 -111q-8 -15 -17.5 -32t-21.5 -38t-18 -32l-240 -495q-10 -20 -10 -37v-199
q0 -35 20 -76q21 -44 21 -71q0 -80 -41 -109q-30 -18 -117 -18q-116 0 -143 12q-45 21 -45 109q0 25 18 75q20 44 20 78v197q0 16 -10 39l-246 497q-1 2 -3.5 6t-7 10.5t-9.5 13.5q-31 46 -45 65q-33 45 -33 110q0 69 23 94t94 25q5 0 51 2t51 2q138 0 138 -106q0 -5 -6 -45
q-5 -33 -5 -44q0 -79 109 -282q17 -47 35 -47q14 0 36 49q103 177 103 278q0 21 -4 50t-4 49q0 58 37 80q28 16 98 16q119 0 143 -8q58 -21 58 -107z" />
    <glyph glyph-name="Zacute" unicode="&#x179;" 
d="M838 1599q-78 -117 -408 -213q-10 -2 -14 -3t-15 -1q-65 0 -65 64q0 39 26 72q219 294 334 294q58 0 107 -49t49 -108q0 -31 -14 -56zM1075 1208q0 -48 -31 -94l-550 -813q-17 -28 -17 -43q0 -35 62 -35h176q57 0 108 39t115 39q125 0 125 -127v-86q0 -73 -35 -90
q-18 -8 -119 -8h-714q-129 0 -129 108q0 34 24 74l576 850q14 20 14 35q0 24 -55 24h-197q-43 0 -102 -34q-61 -35 -95 -35q-127 0 -127 139v74q0 92 101 92h749q121 0 121 -109z" />
    <glyph glyph-name="zacute" unicode="&#x17a;" 
 />
    <glyph glyph-name="Zdotaccent" unicode="&#x17b;" 
d="M758 1554q0 -34 -14 -65q-15 -33 -36 -54q-22 -22 -55 -37q-31 -14 -67 -14q-37 0 -68 14t-54 37t-37 54q-13 29 -13 65q0 72 50 122t122 50t122 -50t50 -122zM1075 1208q0 -48 -31 -94l-550 -813q-17 -28 -17 -43q0 -35 62 -35h176q57 0 108 39t115 39q125 0 125 -127
v-86q0 -73 -35 -90q-18 -8 -119 -8h-714q-129 0 -129 108q0 34 24 74l576 850q14 20 14 35q0 24 -55 24h-197q-43 0 -102 -34q-61 -35 -95 -35q-127 0 -127 139v74q0 92 101 92h749q121 0 121 -109z" />
    <glyph glyph-name="zdotaccent" unicode="&#x17c;" 
 />
    <glyph glyph-name="Zcaron" unicode="&#x17d;" 
d="M915 1720q0 -73 -124 -190q-127 -117 -195 -117q-74 0 -199 119t-125 188q0 58 62 58q46 0 227 -101q38 -18 68 0q181 101 225 101q61 0 61 -58zM1075 1208q0 -48 -31 -94l-550 -813q-17 -28 -17 -43q0 -35 62 -35h176q57 0 108 39t115 39q125 0 125 -127v-86
q0 -73 -35 -90q-18 -8 -119 -8h-714q-129 0 -129 108q0 34 24 74l576 850q14 20 14 35q0 24 -55 24h-197q-43 0 -102 -34q-61 -35 -95 -35q-127 0 -127 139v74q0 92 101 92h749q121 0 121 -109z" />
    <glyph glyph-name="zcaron" unicode="&#x17e;" 
 />
    <glyph glyph-name="florin" unicode="&#x192;" 
 />
    <glyph glyph-name="circumflex" unicode="&#x2c6;" 
d="M887 1438q0 -58 -60 -58q-47 0 -227 99q-31 18 -68 2q-181 -101 -227 -101q-59 0 -59 58q0 67 125 186q127 121 196 121q67 0 195 -117q125 -117 125 -190z" />
    <glyph glyph-name="caron" unicode="&#x2c7;" 
d="M915 1720q0 -73 -124 -190q-127 -117 -195 -117q-74 0 -199 119t-125 188q0 58 62 58q46 0 227 -101q38 -18 68 0q181 101 225 101q61 0 61 -58z" />
    <glyph glyph-name="breve" unicode="&#x2d8;" 
d="M936 1665q0 -121 -111 -190q-96 -60 -231 -60q-128 0 -232 64q-118 69 -118 186q0 111 96 111q36 0 102 -68q63 -68 156 -68q61 0 145 64q83 63 111 63q35 0 58 -32q24 -33 24 -70z" />
    <glyph glyph-name="dotaccent" unicode="&#x2d9;" 
d="M735 1554q0 -36 -13 -65q-14 -31 -37 -54t-54 -37t-68 -14q-36 0 -67 14q-33 15 -55 37q-23 23 -37 54q-13 29 -13 65q0 72 50 122t122 50t122 -50t50 -122z" />
    <glyph glyph-name="ring" unicode="&#x2da;" horiz-adv-x="1204" 
d="M776 1602q0 -45 -16 -81q-17 -39 -45 -67t-67 -45q-36 -16 -81 -16q-44 0 -82 16t-67 45q-28 28 -45 67t-17 81q0 41 17 80t45 67q29 29 67 45t82 16q45 0 81 -16q39 -17 67 -45t45 -67q16 -36 16 -80zM637 1602q0 28 -21 49q-20 20 -49 20t-49 -20t-20 -49q0 -30 20 -50
t49 -20t49 20q21 21 21 50z" />
    <glyph glyph-name="ogonek" unicode="&#x2db;" 
d="M1036 -131q-18 -76 -80 -126t-141 -50q-47 0 -88 18t-72 49t-49 72t-18 88q0 89 69 152q63 57 158 78q49 10 100 10q60 0 60 -21q-35 -6 -107 -45q-57 -45 -57 -137q0 -70 66 -70q11 0 25 8q18 10 27 16q14 9 26 16q13 7 26 7q25 0 41 -20t14 -45z" />
    <glyph glyph-name="tilde" unicode="&#x2dc;" 
d="M946 1546q0 -155 -233 -155q-43 0 -117 24q-72 27 -113 27q-17 0 -39 -8q-4 -2 -40 -18q-22 -10 -36 -16q-17 -7 -30 -7q-121 0 -121 118q0 146 234 146q44 0 116 -27q73 -24 113 -24q18 0 36 7q26 10 40 16q7 3 20 9t19 9q19 8 30 8q121 0 121 -109z" />
    <glyph glyph-name="hungarumlaut" unicode="&#x2dd;" 
d="M877 1599q0 -73 -60 -151t-129 -78q-74 0 -74 86q0 74 58 152q60 78 131 78q74 0 74 -87zM522 1599q0 -74 -59 -151q-60 -78 -129 -78q-74 0 -74 86q0 76 57 152q60 78 132 78q73 0 73 -87z" />
    <glyph glyph-name="Delta" unicode="&#x394;" 
 />
    <glyph glyph-name="Delta" unicode="&#x2206;" 
 />
    <glyph glyph-name="Omega" unicode="&#x3a9;" 
 />
    <glyph glyph-name="Omega" unicode="&#x2126;" 
 />
    <glyph glyph-name="pi" unicode="&#x3c0;" 
 />
    <glyph glyph-name="endash" unicode="&#x2013;" 
d="M1051 637q0 -154 -172 -148l-308 11l-301 -11q-168 -6 -168 148q0 155 166 154l303 -11l312 11q168 1 168 -154z" />
    <glyph glyph-name="emdash" unicode="&#x2014;" 
d="M1133 637q0 -152 -172 -148l-390 11l-383 -11q-168 -1 -168 148q0 155 166 154l385 -11l394 11q168 1 168 -154z" />
    <glyph glyph-name="quoteleft" unicode="&#x2018;" horiz-adv-x="573" 
d="M498 1067q0 -42 -17 -82q-17 -39 -45 -69t-67 -46q-38 -16 -82 -16t-82 16q-41 17 -68 46q-29 30 -45 69q-16 38 -16 82q0 86 8 121q85 364 242 364q69 0 69 -51q0 -12 -18 -69q-19 -59 -19 -82q0 -80 29 -97q111 -66 111 -186z" />
    <glyph glyph-name="quoteright" unicode="&#x2019;" horiz-adv-x="573" 
d="M498 1341q0 -81 -9 -122q-86 -365 -241 -365q-70 0 -70 51q0 7 19 70q18 57 18 82q0 81 -29 98q-110 61 -110 186q0 45 16 81q17 38 45 68q27 29 68 46q38 16 82 16t82 -16q39 -16 67 -46t45 -68q17 -39 17 -81z" />
    <glyph glyph-name="quotesinglbase" unicode="&#x201a;" 
 />
    <glyph glyph-name="quotedblleft" unicode="&#x201c;" 
d="M1040 1067q0 -44 -16 -82q-16 -39 -45 -69q-27 -29 -68 -46q-38 -16 -82 -16q-43 0 -81 16q-41 17 -68 46q-28 30 -45 69q-17 40 -17 82q0 81 9 121q85 364 241 364q70 0 70 -51q0 -12 -18 -69q-19 -59 -19 -82q0 -80 29 -97q110 -65 110 -186zM528 1067q0 -44 -16 -82
q-16 -39 -45 -69q-27 -29 -68 -46q-38 -16 -82 -16q-43 0 -81 16q-41 17 -68 46q-28 30 -45 69q-17 40 -17 82q0 81 9 121q85 364 241 364q70 0 70 -51q0 -12 -18 -69q-19 -59 -19 -82q0 -80 29 -97q110 -65 110 -186z" />
    <glyph glyph-name="quotedblright" unicode="&#x201d;" 
d="M1040 1341q0 -85 -8 -122q-86 -365 -241 -365q-70 0 -70 51q0 10 18 70q19 60 19 82q0 81 -29 98q-111 61 -111 186q0 42 17 81q17 38 45 68q27 29 68 46q38 16 81 16q44 0 82 -16q41 -17 68 -46q28 -30 45 -68q16 -36 16 -81zM528 1341q0 -85 -8 -122
q-86 -365 -241 -365q-70 0 -70 51q0 10 18 70q19 60 19 82q0 81 -29 98q-110 61 -110 186q0 45 16 81q17 38 45 68q27 29 68 46q38 16 81 16q44 0 82 -16q41 -17 68 -46q28 -30 45 -68q16 -36 16 -81z" />
    <glyph glyph-name="quotedblbase" unicode="&#x201e;" 
 />
    <glyph glyph-name="dagger" unicode="&#x2020;" 
 />
    <glyph glyph-name="daggerdbl" unicode="&#x2021;" 
 />
    <glyph glyph-name="bullet" unicode="&#x2022;" 
d="M850 643q0 -124 -88 -209q-86 -86 -209 -86q-122 0 -211 86q-86 86 -86 209t86 209q88 88 211 88q124 0 209 -88q88 -85 88 -209z" />
    <glyph glyph-name="ellipsis" unicode="&#x2026;" horiz-adv-x="1636" 
d="M1542 170q0 -42 -14 -74q-16 -36 -41 -60q-28 -26 -62 -41q-35 -15 -73 -15q-40 0 -75 15q-31 13 -60 41q-25 24 -41 60q-15 34 -15 74q0 79 56 135q55 55 135 55t135 -55t55 -135zM1010 170q0 -40 -15 -74q-16 -36 -41 -60q-28 -27 -61 -41q-35 -15 -74 -15
q-41 0 -75 15q-31 13 -60 41q-25 24 -41 60q-14 32 -14 74q0 80 55 135t135 55t135 -55q56 -56 56 -135zM477 170q0 -42 -14 -74q-16 -36 -41 -60q-28 -26 -62 -41t-73 -15q-41 0 -75 15q-31 13 -60 41q-25 24 -41 60q-15 35 -15 74q0 79 56 135q55 55 135 55t135 -55
t55 -135z" />
    <glyph glyph-name="perthousand" unicode="&#x2030;" 
 />
    <glyph glyph-name="guilsinglleft" unicode="&#x2039;" horiz-adv-x="573" 
d="M406 -20q-31 0 -87 86l-69 106q-9 12 -44 55q-51 62 -63 78q-10 13 -35 46q-12 16 -18 26q-22 39 -24 86q-5 41 24 82l53 67l107 133l69 109q55 84 87 84q83 0 83 -111q0 -48 -28 -116q-22 -54 -43 -76q-4 -4 -28 -32q-2 -3 -17.5 -21.5t-26.5 -30.5q-55 -67 -55 -92
q0 -19 31 -53l-9 -5q42 -39 68 -71q30 -38 57 -72q60 -84 60 -149q0 -129 -92 -129z" />
    <glyph glyph-name="guilsinglright" unicode="&#x203a;" horiz-adv-x="573" 
d="M440 330l-20 -25q-6 -8 -21 -25.5t-23 -27.5q-39 -48 -63 -80q-14 -22 -28 -43q-32 -48 -41 -63q-56 -86 -86 -86q-92 0 -92 129q0 75 77 174l115 143q14 14 14 33q0 25 -55 92l-74 84q-6 7 -20 31q-11 18 -21 45q-28 68 -28 116q0 111 84 111q26 0 86 -84l69 -109
l107 -133q10 -12 24 -31t19 -25q14 -17 22 -32q15 -22 13 -61q-4 -66 -58 -133z" />
    <glyph glyph-name="euro" unicode="&#x20ac;" 
d="M1114 1087q0 -78 -104 -96q-72 -10 -148 0q-117 18 -117 92q0 7 9 29q8 19 8 29q0 78 -107 78q-187 0 -225 -322q-6 -49 39 -51q35 0 78 8l57 12q14 2 21 2h20q127 0 127 -133q0 -85 -49 -112q-40 -23 -123 -17q-35 3 -46 4q-34 2 -85 6q-21 0 -34 -12q-13 -11 -11 -39
q22 -157 45 -213q51 -116 174 -116q56 0 93 28q38 29 38 76q0 15 -10 34t-10 36q0 54 45 69q21 6 88 6q70 0 93 -1q33 -1 44 -3q86 -17 86 -80q0 -17 -9 -35q-6 -12 -20 -34q-15 -23 -21 -31q-11 -14 -13 -27q-102 -307 -408 -307q-262 0 -391 203q-94 149 -109 383
q-4 45 -43 61q-67 21 -67 119q0 105 71 127q20 7 27 11q14 7 14 40q21 219 131 373q145 201 390 201q292 0 391 -279q5 -13 13 -25q3 -5 10 -16t9 -14q29 -40 29 -64z" />
    <glyph glyph-name="trademark" unicode="&#x2122;" 
d="M1030 872q1 -33 -41 -49q-19 -4 -49 -4q-50 0 -66 8q-23 12 -18 56q0 9 12 29q14 22 15 49v208q0 7 -4 11q-2 2 -4.5 -0.5t-4.5 -8.5l-43 -118q-12 -33 -28 -33q-33 0 -35 33q0 2 -41 116q-2 9 -6 9q-6 -4 -6 -11v-211q0 -19 13 -44t13 -31q0 -38 -28 -54q-16 -8 -56 -8
q-53 0 -65 6q-21 12 -21 66q0 6 14 29q13 21 11 51v397q0 15 -9 30q-10 17 -10 42q0 6 11 25q10 18 30 18h19h33q59 0 71 -23q6 -12 0 -37q-6 -23 4 -49l39 -108q8 -19 19 -19t22 23l41 114q2 6 2 13t-3 21t-3 20q0 22 14 37q5 5 33 10h60q36 0 47 -10q12 -11 12 -37
q0 -7 -11 -26q-12 -21 -12 -44v-401q0 -21 13 -47q5 -6 16 -48zM549 1415q0 -74 -66 -74q-4 0 -22 13q-17 12 -33 12h-29q-12 0 -12 -12v-408q0 -26 13 -46q14 -22 14 -28q0 -38 -23 -49q-15 -4 -61 -4q-49 0 -64 6q-26 7 -26 50q0 6 13 26t13 43v408q0 14 -12 14h-33
q-14 0 -32 -12q-19 -13 -23 -13q-64 0 -64 80q0 62 56 62h336q55 0 55 -68z" />
    <glyph glyph-name="partialdiff" unicode="&#x2202;" 
 />
    <glyph glyph-name="product" unicode="&#x220f;" 
 />
    <glyph glyph-name="summation" unicode="&#x2211;" 
 />
    <glyph glyph-name="minus" unicode="&#x2212;" 
d="M1051 637q0 -154 -172 -148l-308 11l-301 -11q-168 -6 -168 148q0 155 166 154l303 -11l312 11q168 1 168 -154z" />
    <glyph glyph-name="fraction" unicode="&#x2215;" horiz-adv-x="1124" 
d="M965 1397q0 -31 -21 -70q-43 -82 -49 -100q-67 -162 -181 -417q-101 -227 -308 -681l-78 -197q-34 -65 -129 -65q-55 0 -96 32q-40 31 -40 91q0 24 31 98q17 47 68 115q213 469 258 588q15 41 80 189q58 132 151 335q29 75 43 123q29 91 152 86q119 -2 119 -127z" />
    <glyph glyph-name="radical" unicode="&#x221a;" 
 />
    <glyph glyph-name="infinity" unicode="&#x221e;" 
 />
    <glyph glyph-name="integral" unicode="&#x222b;" 
 />
    <glyph glyph-name="approxequal" unicode="&#x2248;" 
d="M791 258q-51 0 -117 72l-53 55q-23 31 -46 31q-18 0 -34 -19l-60 -65q-68 -74 -119 -74q-47 0 -104 57q-63 63 -63 111q0 50 71 117l66 59q20 17 20 37q0 19 -24 41q1 1 -6 7t-21.5 18.5t-34.5 29.5q-71 71 -71 119q0 46 63 109t104 63q45 0 121 -82l49 -51
q28 -31 46 -31q13 0 34 21l62 65q66 72 117 72q46 0 108 -62t62 -106q0 -50 -80 -119l-64 -59q-14 -15 -14 -37q0 -24 20 -35q-1 0 6 -7t21 -20t35 -32q76 -69 76 -117q0 -45 -62 -107q-61 -61 -108 -61z" />
    <glyph glyph-name="approxequal" unicode="&#x22f2;" 
d="M791 258q-51 0 -117 72l-53 55q-23 31 -46 31q-18 0 -34 -19l-60 -65q-68 -74 -119 -74q-47 0 -104 57q-63 63 -63 111q0 50 71 117l66 59q20 17 20 37q0 19 -24 41q1 1 -6 7t-21.5 18.5t-34.5 29.5q-71 71 -71 119q0 46 63 109t104 63q45 0 121 -82l49 -51
q28 -31 46 -31q13 0 34 21l62 65q66 72 117 72q46 0 108 -62t62 -106q0 -50 -80 -119l-64 -59q-14 -15 -14 -37q0 -24 20 -35q-1 0 6 -7t21 -20t35 -32q76 -69 76 -117q0 -45 -62 -107q-61 -61 -108 -61z" />
    <glyph glyph-name="notequal" unicode="&#x2260;" 
d="M791 258q-51 0 -117 72l-53 55q-23 31 -46 31q-18 0 -34 -19l-60 -65q-68 -74 -119 -74q-47 0 -104 57q-63 63 -63 111q0 50 71 117l66 59q20 17 20 37q0 19 -24 41q1 1 -6 7t-21.5 18.5t-34.5 29.5q-71 71 -71 119q0 46 63 109t104 63q45 0 121 -82l49 -51
q28 -31 46 -31q13 0 34 21l62 65q66 72 117 72q46 0 108 -62t62 -106q0 -50 -80 -119l-64 -59q-14 -15 -14 -37q0 -24 20 -35q-1 0 6 -7t21 -20t35 -32q76 -69 76 -117q0 -45 -62 -107q-61 -61 -108 -61z" />
    <glyph glyph-name="lessequal" unicode="&#x2264;" 
 />
    <glyph glyph-name="greaterequal" unicode="&#x2265;" 
 />
    <glyph glyph-name="lozenge" unicode="&#x25ca;" 
 />
    <glyph glyph-name="Scedilla" unicode="&#xf6c1;" 
d="M1053 401q0 -83 -27 -154t-75 -125q-49 -55 -116 -90q-66 -35 -151 -50q-10 -4 -12 -9q-4 -10 4 -12q57 -43 57 -117q0 -63 -44 -107t-107 -44q-54 0 -95 33q-41 34 -53 84q-2 45 37 45q16 0 36 -17q19 -16 34 -16q43 0 43 47q0 52 -39 92q-19 14 -39 19q-53 11 -92 26
q-44 16 -78 39q-126 77 -160 199q-6 25 -49 75q-33 39 -33 68q0 113 156 113q122 0 151 -6q86 -18 86 -93q0 -18 -12 -42t-12 -37q0 -43 43 -70q39 -25 82 -25q80 0 132 40t52 116q0 113 -174 205l-322 172q-172 124 -172 317q0 185 132 297q129 103 315 103q146 0 252 -68
q113 -74 143 -211q6 -27 33 -72q29 -47 29 -57q0 -102 -142 -102q-104 0 -143 6q-98 15 -98 71q0 22 20 51q21 30 21 50q0 34 -38 58q-37 24 -77 24q-68 0 -113 -33q-53 -35 -53 -98q0 -93 172 -181q279 -144 322 -178q174 -135 174 -336z" />
    <glyph glyph-name="fi" unicode="&#xfb01;" 
 />
    <glyph glyph-name="fl" unicode="&#xfb02;" 
 />
    <glyph glyph-name="apple" horiz-adv-x="1636" 
d="M1634 2h-356l-559 821l555 815h360v-1636zM608 2h-608v1636h604l-555 -813z" />
    <glyph glyph-name="scaute" 
 />
    <glyph glyph-name="u0000" 
 />
    <glyph glyph-name="glyph275" horiz-adv-x="0" 
 />
  </font>
</defs>
</svg>
