<svg id="Layer_1" data-name="Layer 1" xmlns="http://www.w3.org/2000/svg" viewBox="0 0 2590.14 1660.22"><defs><style>.cls-1{fill:#dbece9;}.cls-2{opacity:0.6;}.cls-3{fill:#b1d5dd;}.cls-4{opacity:0.7;}.cls-5{fill:#b8d5dc;}.cls-6{opacity:0.5;}.cls-7{fill:#69a2c0;}.cls-8{fill:#bfd7d3;}.cls-9{fill:#a4d2db;}.cls-10{fill:#b1b372;}.cls-11{fill:#c2c78f;}.cls-12{fill:#73b3ce;}.cls-13{fill:#67a9bf;}.cls-14{fill:#181732;}.cls-15{fill:#ccd49c;}.cls-16{fill:#93bdb6;}.cls-17{fill:#a6d6cd;}.cls-18{fill:#6ea59a;}.cls-19{fill:#9dc6bf;}.cls-20{fill:#fff;}.cls-21{opacity:0.4;}.cls-22{opacity:0.8;}.cls-23{fill:#91b3df;}.cls-24{fill:#73a0d2;}.cls-25{fill:#f7b17f;}.cls-26{fill:#397091;}.cls-27{fill:#020303;}.cls-28{fill:#f08162;}.cls-29{fill:#331832;}.cls-30{fill:#46897d;}.cls-31{fill:#f5a26f;}.cls-32{fill:#774678;}.cls-33{fill:#e3efec;}.cls-34{fill:#d45d43;}.cls-35{fill:#e7925c;}.cls-36{fill:#72aa9f;}.cls-37{fill:#ee945c;}</style></defs><path class="cls-1" d="M2004,192v1013.4c0,175.78-152.93,294.36-337.68,318.29-215.62,27.92-437.76,16.3-891.66-12.93-254.87-16.43-767.34,10.77-1023.13,12.93C-435,1525.21-586.2,1381.13-586.2,1205.35V192c0-166.46,151.5-311.18,337.68-301.41,172.78,9.1,427,45.08,692.28,23.07,310.15-25.8,911.43-48.68,1222.51-23.07C1852-94.15,2004,25.49,2004,192Z" transform="translate(586.2 120.65)"/><g class="cls-2"><path class="cls-3" d="M2004,367.35V771.68L-586.2,791.89V213.17s167.19-5.78,209.58,82.48-47,102.45,0,154.59S-247.79,388.78-176,460.67s-32,101.33,49.23,139S11.34,553,46.45,625.23s492.67,69.61,515.9,23.31S643.94,541,685.6,584.27s180.75-43.86,238.57-5.2,81.48-2,116.48,11,250.56,58.65,324.13,62.89,222-136.13,293.37-90.46,13.94-121.28,127.16-95.29,67.94-122.07,163.75-116.85C1968.93,351.44,1987.31,357.85,2004,367.35Z" transform="translate(586.2 120.65)"/></g><g class="cls-4"><path class="cls-5" d="M1254.17-120.45V640.7H1112.92V-118.55c34.42-.68,68.69-1.22,102.57-1.58Q1234.93-120.34,1254.17-120.45Z" transform="translate(586.2 120.65)"/></g><g class="cls-4"><path class="cls-5" d="M264.31-79.38V640.7H123.05V-82.94l10.14.47C175.82-80.56,219.65-79.39,264.31-79.38Z" transform="translate(586.2 120.65)"/></g><g class="cls-6"><path class="cls-7" d="M240.47,88.77C239.38,66,218.81,46.69,195.92,46.6c-32.43-.14-43,24.53-44.29,47.26-1.3,23.61,19.65,39.86,42.54,40S241.82,117,240.47,88.77Z" transform="translate(586.2 120.65)"/><path class="cls-8" d="M232.42,91.11C232.4,73,214.2,53.62,196,53c-26.93-1-37.81,26.16-37.79,44.27s18.84,29,37.05,29.07S232.45,109.23,232.42,91.11Z" transform="translate(586.2 120.65)"/><path class="cls-7" d="M199.94,90.37c-.25-2.48-2.89-4.14-5.39-4.15s-5.17,3-5.17,5.46,2.69,4.52,5.18,4.54S200.4,95,199.94,90.37Z" transform="translate(586.2 120.65)"/><path class="cls-7" d="M194.56,92.61h-.91a.91.91,0,0,1-.89-.9c0-.49-1.14-2.17-.64-2.17l.5-1.05,1-24.46-1.12.67a.91.91,0,0,1-1.25.23.9.9,0,0,1-.23-1.25l2.76-4a.9.9,0,0,1,1.63.52L197,91.66C197,92.15,195.05,92.61,194.56,92.61Z" transform="translate(586.2 120.65)"/><path class="cls-7" d="M197.62,64.85a.89.89,0,0,1-.69-.33l-3.41-2.44a3.29,3.29,0,0,1,.48-2.55.9.9,0,0,1,1.26.13l3.06,3.74a.89.89,0,0,1-.13,1.26A.93.93,0,0,1,197.62,64.85Z" transform="translate(586.2 120.65)"/><path class="cls-7" d="M178.3,95.43a.91.91,0,0,1-.65-.27L175,92.4a.89.89,0,0,1,.64-1.51h0l21.18-1c.49,0,.78,1.56.78,2v.9a.89.89,0,0,1-.9.89c-.49,0-1.61.44-1.61-.06l.71-.84-18-.12,1.19,1.23a.89.89,0,0,1,0,1.27A.93.93,0,0,1,178.3,95.43Z" transform="translate(586.2 120.65)"/><path class="cls-7" d="M175.63,92.67a.86.86,0,0,1-.57-.2.89.89,0,0,1-.13-1.26l2.49-3a.89.89,0,0,1,1.26-.12.88.88,0,0,1,.13,1.25l-1,2.27A8.18,8.18,0,0,1,175.63,92.67Z" transform="translate(586.2 120.65)"/></g><path class="cls-9" d="M2004,627.53v577.82c0,77.54-29.76,143.94-78.88,196a347.17,347.17,0,0,1-54.59,46.75q-4.23,3-8.57,5.79-8.45,5.55-17.27,10.69c-.94.56-1.89,1.11-2.84,1.65q-15,8.6-30.93,16.06c-44,20.61-93,34.67-144.6,41.34-215.62,27.92-437.76,16.3-891.66-12.93-193.8-12.49-536.52.24-802.1,8-83.7,2.45-159.73,4.41-221,4.92A345.88,345.88,0,0,1-416.85,1482a339.58,339.58,0,0,1-35.75-22.41,1.33,1.33,0,0,1-.19-.14c-.93-.66-1.86-1.34-2.78-2q-11.9-8.73-22.9-18.42-2.43-2.15-4.82-4.33a321.73,321.73,0,0,1-67.5-87,303.89,303.89,0,0,1-35.41-142.32V627.53Z" transform="translate(586.2 120.65)"/><path class="cls-10" d="M1118.49,579.07s34.45-129.83,5.76-177.61-124.81-54.83-160.17-20-39.76,77.37,15.34,95.34,128.45-47,142.2-40.36S1108,574,1108,574Z" transform="translate(586.2 120.65)"/><path class="cls-11" d="M957.54,442.85l-.86-1.11a343.82,343.82,0,0,1,60.78-35.43c19.89-8.85,38.33-14.22,54.8-16,20.67-2.19,38.29,1.36,52.38,10.53l-.77,1.18c-13.81-9-31.12-12.46-51.46-10.31-16.32,1.73-34.62,7.06-54.37,15.85A342.83,342.83,0,0,0,957.54,442.85Z" transform="translate(586.2 120.65)"/><path class="cls-12" d="M1157.21,682.08h-72.93c-11.15,0-20.45-6.75-21.41-15.54l-10.52-96.61h133.92l-9.53,97.84C1176,675.85,1167.44,682.08,1157.21,682.08Z" transform="translate(586.2 120.65)"/><path class="cls-13" d="M1191.08,549.34v19.21c0,11.89-31.84,21.52-71.12,21.52s-71.13-9.63-71.13-21.52V549.34c0-6,18.34-11.2,44.34-13.34,8.27-.69,17.31-1.07,26.79-1.07C1159.24,534.93,1191.08,541.38,1191.08,549.34Z" transform="translate(586.2 120.65)"/><path class="cls-14" d="M1191.08,549.34a4.57,4.57,0,0,1-1.94,3.36c-3.16,2.69-10.08,5.1-19.56,7-3.7.73-7.79,1.39-12.2,1.94-1.14.15-2.31.29-3.5.41l-2.1.22c-3.66.38-7.51.69-11.51.93l-.84.05q-3.12.18-6.34.3c-1.46.06-2.94.1-4.44.15l-1.74,0c-2.29,0-4.61.07-7,.07l-3,0h-1.8c-2.36,0-4.7-.09-7-.18-3.84-.12-7.58-.32-11.18-.57l-2-.14h0l-1.6-.13-1.81-.16c-3.94-.34-7.71-.77-11.25-1.25-19-2.58-31.45-7-31.45-12,0-3.05,4.7-5.88,12.71-8.21a124.85,124.85,0,0,1,16.61-3.43l1.06-.16h0l1.93-.26c3.77-.51,7.79-.94,12-1.28l.67,0c4.18-.34,8.57-.6,13.1-.76,2.74-.12,5.54-.18,8.39-.22,1.53,0,3.08,0,4.62,0q3.66,0,7.21.07l1.75,0c4.19.1,8.26.28,12.18.53,1.06.06,2.12.14,3.17.22q5,.36,9.67.88c4.44.48,8.6,1.07,12.4,1.74.64.11,1.28.22,1.89.34l1.27.24a74.44,74.44,0,0,1,15.17,4.35C1188.79,545.17,1191.08,547.2,1191.08,549.34Z" transform="translate(586.2 120.65)"/><path class="cls-11" d="M1131.87,560.58s26.61-131.63,73.55-162,136.4,5.24,152.71,52,1.41,86.84-56,78.92-94.5-98.32-109.81-98.32-48.7,129.46-48.7,129.46Z" transform="translate(586.2 120.65)"/><path class="cls-15" d="M1324.43,521.63a339.36,339.36,0,0,0-38.72-58.1c-13.84-16.51-27.91-29.28-41.8-38-17.3-10.8-34.38-15.24-50.77-13.2L1193,411c16.71-2.09,34.11,2.43,51.7,13.41,14,8.76,28.2,21.63,42.14,38.26A340.78,340.78,0,0,1,1325.69,521Z" transform="translate(586.2 120.65)"/><path class="cls-16" d="M1114.84,619s.71-134.26-39.08-173.42-134.66-22.19-160.13,20.3-19,84.77,38.83,88.52S1067,477.07,1082,480.14s21.38,136.55,21.38,136.55Z" transform="translate(586.2 120.65)"/><path class="cls-17" d="M924.72,527l-1.11-.86a342.91,342.91,0,0,1,50-49.37c26.81-21.24,66.38-44,102.41-31.81l-.45,1.34C1007.54,423.3,925.54,526,924.72,527Z" transform="translate(586.2 120.65)"/><path class="cls-15" d="M1196.85,516.47s-16.15-29.12-52.62-27.81-71.7,110.17-58.16,140.71c20.74,46.78,91.31,52.28,120.22,0C1220.76,603.22,1214.76,540.62,1196.85,516.47Z" transform="translate(586.2 120.65)"/><path class="cls-11" d="M1144.74,636.07l-1.38-.29c.16-.75,15.78-75.64,7.47-132l1.4-.21C1160.57,560.19,1144.9,635.32,1144.74,636.07Z" transform="translate(586.2 120.65)"/><path class="cls-15" d="M1925.07,1401.36a347.17,347.17,0,0,1-54.59,46.75q-4.23,3-8.57,5.79c-57-77-136.08-161.71-165.36-223.05-17.67-37-17.21-65.46,17.06-78.67C1785.72,1124.41,1870.08,1277.38,1925.07,1401.36Z" transform="translate(586.2 120.65)"/><path class="cls-11" d="M1870.48,1448.11q-4.23,3-8.57,5.79-8.45,5.55-17.27,10.69c-.94.56-1.89,1.11-2.84,1.65q-15,8.6-30.93,16.06c-97.77-102.24-309.62-220.41-215.9-276.63,29-17.42,64.77-4,101.58,25.18C1761.32,1282.15,1829.44,1382.1,1870.48,1448.11Z" transform="translate(586.2 120.65)"/><path class="cls-15" d="M1844.64,1464.59c-.94.56-1.89,1.11-2.84,1.65C1806,1412.76,1761.3,1366,1726,1333c-51.5-48.24-94.72-78.59-95.15-78.89l1.73-2.93c.43.3,43.84,30.78,95.5,79.18C1763.6,1363.61,1808.56,1410.68,1844.64,1464.59Z" transform="translate(586.2 120.65)"/><path class="cls-18" d="M-385.8,1259.43c-19.58,51.45-58,116.27-92.67,179.62q-2.43-2.15-4.82-4.33a321.73,321.73,0,0,1-67.5-87c34.47-105.46,82.36-200,141.46-188.35C-365.44,1168-365.72,1206.67-385.8,1259.43Z" transform="translate(586.2 120.65)"/><path class="cls-19" d="M-315,1361.2c-33.1,39.42-71.27,81.26-101.83,120.83a339.58,339.58,0,0,1-35.75-22.41,1.33,1.33,0,0,1-.19-.14c-.93-.66-1.86-1.34-2.78-2q-11.9-8.73-22.9-18.42-2.43-2.15-4.82-4.33c26.09-58.79,60.22-126.27,97.49-175.29s77.51-79.55,116-64.73C-206.6,1219-251.5,1285.62-315,1361.2Z" transform="translate(586.2 120.65)"/><g class="cls-6"><path class="cls-7" d="M-297.64,1250.22c-.39.39-38.9,38.87-82.63,97-7,9.28-14.37,19.42-21.9,30.27v0a848.47,848.47,0,0,0-50.38,81.54h0c-.08.14-.16.28-.23.42-.93-.66-1.86-1.34-2.78-2q2.19-4.1,4.43-8.11h0c12.44-22.46,25.67-43.62,38.63-62.84,10.22-15.17,20.29-29.14,29.66-41.6,43.87-58.31,82.55-97,82.94-97.36Z" transform="translate(586.2 120.65)"/></g><path class="cls-15" d="M80.23,1451.64c-1.35.79-2.71,1.55-4.08,2.3a217,217,0,0,1-53.52,20.35c-17.17,4-28.81,14-38.11,26.09h0c-.44.58-.89,1.18-1.32,1.78a186.88,186.88,0,0,0-10.69,16.55c-83.7,2.45-159.73,4.41-221,4.92A345.88,345.88,0,0,1-416.85,1482a339.58,339.58,0,0,1-35.75-22.41c0-.19,0-.36,0-.55v0a84.55,84.55,0,0,1,1.41-9.66v0c4.3-21,16.72-42.37,38.63-62.84,3.24-3,6.67-6,10.33-9v0l.61-.49c8.5-6.9,21-9.71,34.85-12.14,20.44-3.56,37.11-3.63,51.69-3.66,38.56-.06,62.66.24,103.74-62.79l1.54-2.37h0c25.37-39.48,55.58-37.33,85.76-23l1.59.76,0,0c38,18.62,75.78,55.75,103.67,52.78,50.45-5.4,94.7-21.36,135,31.46a62.57,62.57,0,0,1,8.65,15.08c.28.69.54,1.41.78,2.12C136,1405.21,113.1,1432.56,80.23,1451.64Z" transform="translate(586.2 120.65)"/><path class="cls-11" d="M-362.88,1499.42l-2.47-3.53c1.56-1.09,159.43-109,491.06-122.76l.18,4.31C-204.49,1391.12-361.33,1498.34-362.88,1499.42Z" transform="translate(586.2 120.65)"/><path class="cls-11" d="M-158.77,1367.58c-44.47-38.59-52.73-69.72-53.06-71l4.17-1.06c.08.31,8.38,31.22,51.71,68.83Z" transform="translate(586.2 120.65)"/><path class="cls-11" d="M-150.35,1413.89c-12.69-21.44-12.09-52.69,1.73-90.36a288.38,288.38,0,0,1,24.76-50.66l3.62,2.34c-.56.86-55.57,87.18-26.41,136.49Z" transform="translate(586.2 120.65)"/><path class="cls-11" d="M-63.17,1404.83c-5.29-4.26-8.16-7-8.29-7.17l3-3.07c.6.6,61,59.12,148.56,54.9l.2,4.3C9.79,1457.19-43.48,1420.72-63.17,1404.83Z" transform="translate(586.2 120.65)"/><path class="cls-11" d="M-18.36,1503.61c-20.39-21.94-26.49-44.12-28-58.87-1.67-16,1.5-26.79,1.63-27.24l4.13,1.24c-.13.41-11.91,41.77,25.42,81.94Z" transform="translate(586.2 120.65)"/><path class="cls-11" d="M-167.57,1222.67c7.89-11.9,4.74-19.08-2-23.57s-14.61-4.58-22.5,7.33c-14.36,21.68-9,40.29-9,40.29S-182.14,1244.68-167.57,1222.67Z" transform="translate(586.2 120.65)"/><g class="cls-2"><path class="cls-20" d="M866.78,196.88s-12.26-23.4-43.29-20.46-27.32,26.38-42.1,24.19-35.45,0-39.88,14.66-24.38,6.59-25.12,19,22.9,21.26,50.23,10.27,40.62,8.54,79,5,43.17-7.94,65.9-5.74,22.2-13.25,11.86-23.51S871.21,211.06,866.78,196.88Z" transform="translate(586.2 120.65)"/></g><g class="cls-2"><path class="cls-20" d="M650.57,45.85s-17.71-33.79-62.51-29.56S548.6,54.4,527.26,51.23s-51.2,0-57.6,21.17-35.2,9.52-36.26,27.52,33.06,30.7,72.53,14.82S564.6,127.07,620.06,122s62.34-11.46,95.17-8.28,32-19.13,17.12-33.95S657,66.32,650.57,45.85Z" transform="translate(586.2 120.65)"/></g><g class="cls-21"><path class="cls-20" d="M1615.78,220.43s-17.71-33.8-62.51-29.56-39.46,38.11-60.8,34.93-51.2,0-57.6,21.17-35.2,9.53-36.26,27.52,33.06,30.7,72.53,14.82,58.67,12.34,114.13,7.23,62.34-11.46,95.17-8.29,32-19.13,17.12-33.95S1622.18,240.89,1615.78,220.43Z" transform="translate(586.2 120.65)"/></g><g class="cls-21"><path class="cls-20" d="M-46.93,184.52s-17.71-33.8-62.51-29.56-39.46,38.11-60.8,34.93-51.2,0-57.6,21.17-35.19,9.53-36.26,27.52,33.06,30.7,72.53,14.82,58.67,12.34,114.13,7.23,62.34-11.46,95.17-8.29,32.05-19.13,17.12-34S-40.53,205-46.93,184.52Z" transform="translate(586.2 120.65)"/></g><g class="cls-2"><path class="cls-20" d="M1777.57,145.7s-9.87-18.84-34.83-16.48-22,21.24-33.88,19.47-28.53,0-32.1,11.8-19.61,5.31-20.21,15.33,18.43,17.11,40.42,8.26,32.69,6.88,63.6,4,34.74-6.39,53-4.62,17.86-10.66,9.54-18.92S1781.14,157.1,1777.57,145.7Z" transform="translate(586.2 120.65)"/></g><g class="cls-22"><path class="cls-23" d="M-9.35,827.9c7.59-26.68,45-38.9,78.79-40.66s58.66-39.17,91.12-47.7S198.7,698.09,239,699c33.46.72,308.8-15.54,323.51-.58s26,44.28,59.72,44.28,51,42.23,78.28,55.13S756,838.85,736.94,854.1s-254.05,10.32-357.74,8.21C294.14,860.57-20.5,867.08-9.35,827.9Z" transform="translate(586.2 120.65)"/></g><path class="cls-1" d="M426.6,823.86c-14.57,0-27.79-1.49-38.3-5.75-19.87-8.08-55.21-6.83-92.63-5.56-41,1.44-83.31,2.91-111-7.38-52.38-19.44-109.7-18-110.25-17.95l0-1c.54,0,58.05-1.5,110.64,18,27.5,10.2,69.76,8.75,110.6,7.32,37.53-1.31,73-2.51,93.05,5.62,22.43,9.13,57.64,5.38,91.68,1.76,29.12-3.11,59.21-6.31,82.25-1.78,24.55,4.82,56.19,2,86.76-.74,31.67-2.83,61.58-5.51,80.26.76l-.33,1c-18.45-6.2-48.27-3.51-79.83-.7-30.66,2.74-62.34,5.59-87.05.71-22.91-4.47-52.92-1.29-81.95,1.8C462.14,821.87,443.47,823.86,426.6,823.86Z" transform="translate(586.2 120.65)"/><path class="cls-1" d="M456.72,780.07a18.5,18.5,0,0,1-7.26-1.21c-6-2.58-32.58-1.73-66.21-.67-52.58,1.71-124.56,4-154.14-6.81C181.88,754.1,126.19,759,125.63,759l-.08-1c.55,0,56.45-4.9,103.9,12.45,29.42,10.77,101.28,8.46,153.76,6.75,33.76-1.08,60.44-1.95,66.65.76s18.43.06,33.74-3.36c22.63-5,50.79-11.31,77.32-4.17,20.55,5.57,22.42,4.8,28.58,2.33,7-2.83,20.06-8.09,73.72-8.43v1c-53.46.32-66.39,5.55-73.34,8.35-6.24,2.51-8.33,3.37-29.22-2.28-26.26-7.11-54.31-.83-76.84,4.16C472.89,778,463.59,780.07,456.72,780.07Z" transform="translate(586.2 120.65)"/><path class="cls-23" d="M979.14,1055.43c8.74-28.77,51.88-42,90.76-43.86s67.58-42.25,105-51.45,43.93-44.71,90.37-43.77c38.54.78,355.71-16.76,372.66-.62s29.91,47.76,68.8,47.76,58.7,45.55,90.17,59.47,63.89,44.28,42,60.73-292.66,11.14-412.1,8.85C1328.74,1090.67,966.3,1097.69,979.14,1055.43Z" transform="translate(586.2 120.65)"/><path class="cls-1" d="M1481.33,1051.08c-16.78,0-32-1.6-44.11-6.2-22.88-8.7-63.6-7.4-106.72-6-47.16,1.56-95.94,3.11-127.84-8-60.36-21-126.37-19.36-127-19.36l0-1.13c.68,0,66.85-1.58,127.41,19.43,31.72,11,80.4,9.46,127.44,7.89,43.2-1.39,84-2.75,107.15,6.08,25.86,9.85,66.42,5.81,105.63,1.88,33.52-3.36,68.19-6.82,94.75-1.91,28.32,5.23,64.75,2.15,100-.79,36.47-3.06,70.91-6,92.41.8l-.34,1.07c-21.3-6.7-55.63-3.79-92-.76-35.3,3-71.81,6-100.27.78-26.41-4.85-61-1.4-94.43,1.92C1522.25,1049,1500.75,1051.08,1481.33,1051.08Z" transform="translate(586.2 120.65)"/><path class="cls-1" d="M1516,1003.86a22.26,22.26,0,0,1-8.35-1.3c-6.94-2.79-37.58-1.88-76.33-.73-60.55,1.83-143.44,4.33-177.52-7.35-54.41-18.63-118.54-13.42-119.21-13.36l-.09-1.13c.65,0,65-5.29,119.67,13.43,33.88,11.58,116.66,9.11,177.11,7.29,38.91-1.17,69.65-2.11,76.78.81,7.35,3,21.27.06,38.9-3.63,26.08-5.44,58.53-12.19,89-4.49,23.71,6,25.86,5.22,33,2.51,8.08-3.06,23.1-8.73,84.9-9.1v1.13c-61.59.35-76.49,6-84.5,9-7.37,2.78-9.57,3.61-33.64-2.46-30.25-7.66-62.57-.92-88.53,4.5C1534.66,1001.63,1523.94,1003.86,1516,1003.86Z" transform="translate(586.2 120.65)"/><path class="cls-18" d="M233.05,1348c12.78-33.34,75.87-48.62,132.73-50.81s98.82-48.94,153.49-59.6,64.25-51.8,132.16-50.71c56.36.9,520.18-19.41,545-.72s43.74,55.33,100.61,55.33,85.85,52.76,131.87,68.89,93.43,51.3,61.35,70.35-428,12.9-602.64,10.26C744.29,1388.81,214.27,1396.94,233.05,1348Z" transform="translate(586.2 120.65)"/><path class="cls-1" d="M967.43,1343c-24.5,0-46.74-1.85-64.41-7.18-33.53-10.12-93.13-8.57-156.19-6.95-68.91,1.76-140.23,3.63-186.83-9.2-88.31-24.32-184.85-22.49-185.84-22.46l0-1.46c.93-.14,97.72-1.88,186.25,22.5,46.39,12.77,117.58,11,186.42,9.15,63.2-1.61,122.89-3.18,156.64,7,37.88,11.4,97.2,6.74,154.57,2.19,49-3.88,99.7-7.91,138.49-2.22,41.43,6.06,94.72,2.52,146.26-.91,53.31-3.55,103.66-6.9,135,.92l-.35,1.42c-31.16-7.76-81.41-4.4-134.61-.89-51.61,3.43-105,7-146.55.91-38.65-5.65-89.24-1.65-138.18,2.22C1027.25,1340.56,995.83,1343,967.43,1343Z" transform="translate(586.2 120.65)"/><path class="cls-1" d="M1018.18,1288.33a40.36,40.36,0,0,1-12.12-1.5c-10.17-3.27-55-2.21-111.66-.84-88.51,2.13-209.74,5-259.56-8.51-79.64-21.63-173.51-15.56-174.42-15.51l-.11-1.45c.95-.09,95.05-6.12,174.92,15.54,49.6,13.47,170.7,10.56,259.14,8.46,56.83-1.33,101.72-2.43,112.13.92,10.77,3.49,31.18.07,57-4.18,38.1-6.31,85.52-14.18,130.11-5.2,34.77,7,37.9,6,48.34,2.89,11.79-3.53,33.74-10.11,124.07-10.52v1.45c-90.11.43-111.93,6.95-123.65,10.46-10.73,3.2-14,4.16-49-2.86-44.32-8.84-91.61-1.07-129.6,5.22C1045.37,1285.73,1029.71,1288.33,1018.18,1288.33Z" transform="translate(586.2 120.65)"/><path class="cls-24" d="M-499.61,1080.35c9.38-28.78,55.64-42,97.34-43.86s72.48-42.25,112.58-51.45,47.11-44.71,96.92-43.77c41.33.78,381.5-16.76,399.68-.63S239,988.41,280.7,988.41s63,45.55,96.71,59.46,68.52,44.29,45,60.73-313.87,11.14-442,8.86C-124.66,1115.59-513.38,1122.61-499.61,1080.35Z" transform="translate(586.2 120.65)"/><path class="cls-1" d="M39,1076c-18,0-34.32-1.61-47.28-6.21-24.58-8.74-68.28-7.43-114.51-6-50.57,1.55-102.87,3.12-137.06-8-64.74-20.95-135.55-19.38-136.26-19.37l0-1.15c.69,0,71.69-1.62,136.64,19.42,34,11,86.19,9.43,136.68,7.9,46.34-1.42,90.13-2.74,114.92,6.06,27.76,9.85,71.24,5.82,113.32,1.9,36-3.35,73.12-6.83,101.6-1.93,30.36,5.23,69.44,2.18,107.22-.78,39.1-3,76.06-5.93,99.1.8l-.33,1.12c-22.82-6.68-59.66-3.81-98.68-.75-37.85,2.93-77,6-107.51.77-28.34-4.91-65.43-1.43-101.3,1.92C82.87,1073.89,59.82,1076,39,1076Z" transform="translate(586.2 120.65)"/><path class="cls-1" d="M76.19,1028.8a25.79,25.79,0,0,1-8.92-1.29c-7.44-2.83-40.28-1.91-81.87-.73-64.92,1.81-153.83,4.32-190.37-7.36-58.39-18.62-127.18-13.41-127.88-13.36l-.09-1.16c.67,0,69.72-5.29,128.33,13.42,36.34,11.59,125.15,9.12,190,7.29,41.73-1.15,74.67-2.07,82.33.8,7.84,3,22.79.08,41.73-3.61,28-5.45,62.74-12.22,95.48-4.49,25.46,6,27.75,5.19,35.39,2.49,8.65-3,24.76-8.73,91-9.08v1.15c-66.08.37-82.07,6-90.66,9-7.87,2.78-10.25,3.64-36-2.46-32.47-7.68-67.15-.92-95,4.5C96.15,1026.56,84.66,1028.8,76.19,1028.8Z" transform="translate(586.2 120.65)"/><path class="cls-25" d="M-140.61,742.84s-60.18-132.59-35.25-198.39S-4.44,464.16-4.44,464.16l-5.07,48.46s-68.15,9.4-95.08,51.11c-16,24.71,11.49,116.15,11.49,116.15Z" transform="translate(586.2 120.65)"/><path class="cls-25" d="M316.62,979.49s52,11.4,79.74,7.88c14.82-1.88,50.41-10.62,40.71,6.65-4.29,7.65-30,14.87-43.76,21.31-10.33,4.84-27,16.63-37.61,12.45-11.63-4.6-64.5-23.6-64.5-23.6Z" transform="translate(586.2 120.65)"/><path class="cls-26" d="M-60.38,898.43s386.51,51.69,402.46,72.43.58,55.63-25.51,58.05S-98.21,1008.8-98.21,1008.8l-11-110.37Z" transform="translate(586.2 120.65)"/><path class="cls-18" d="M-106.95,619.41s-63.47,26.87-63.12,70.6c0,5.14,13.38,23,2.86,50-14.53,37.34,119.91,49.69,149,54.66,33.21,5.69,64.68-21.86,64.68-21.86S28,726.81-24.72,696.1c-4.94-2.89-10.22-5-15.76-7.49-9.31-4.17-24.32-9-33.68-12.59C-87.3,671-106.95,619.41-106.95,619.41Z" transform="translate(586.2 120.65)"/><path class="cls-26" d="M-95,895.71s-30.61,15.86-61.23,1.34c-49.33-23.4-160.51-56.85-207.24,20.61C-409,993.09-340.62,1063.33-86.94,1056.2c0,0,25.07-11.81,19-73C-70.4,958.91-95,895.71-95,895.71Z" transform="translate(586.2 120.65)"/><path class="cls-27" d="M-208.15,932.18c-3.69-14.56-16.26-24.06-16.38-24.15l.57-.77c.13.09,13,9.78,16.74,24.68Z" transform="translate(586.2 120.65)"/><path class="cls-28" d="M-60.5,593.25s9.3,13.87-8.33,21-20.6,25.46-5.72,28.42,1.45,13.5,21.53,15.81S-60.5,593.25-60.5,593.25Z" transform="translate(586.2 120.65)"/><path class="cls-25" d="M-29.66,693.48c-14.82,9.24-28.63,8.76-41.21,4.33-16-5.64-6.61-22.35-4-22,6.36.75,8.84-1.9,10.95-7.23l2.77-7,.34-.87,3.6-9.11,6.23-15.7,16.37-41.32-1.86,46.69-.32,8-1.1,27.29C-38.26,685.29-35.63,691.46-29.66,693.48Z" transform="translate(586.2 120.65)"/><path class="cls-29" d="M-37.46,656.05a30.24,30.24,0,0,1-23.7,5.51l.34-.87,3.6-9.11C-49.85,653.4-37.46,656.05-37.46,656.05Z" transform="translate(586.2 120.65)"/><ellipse class="cls-25" cx="-26.04" cy="613.67" rx="49.09" ry="40.02" transform="translate(155.96 271.83) rotate(-43.58)"/><path class="cls-14" d="M-29.85,610.65a.89.89,0,0,1-.16-.79.91.91,0,0,1,1.11-.64,9.92,9.92,0,0,1,7.84,9.18.9.9,0,0,1-.8,1c-.5.06-.84-.33-1-.8a15.72,15.72,0,0,0-6.5-7.63A.86.86,0,0,1-29.85,610.65Z" transform="translate(586.2 120.65)"/><path class="cls-14" d="M-28,624.18a.94.94,0,0,1,.35.74.9.9,0,0,1-.93.88,9.93,9.93,0,0,1-9.83-7,.91.91,0,0,1,.53-1.17,1,1,0,0,1,1.18.54A15.73,15.73,0,0,0-28.58,624,.93.93,0,0,1-28,624.18Z" transform="translate(586.2 120.65)"/><path class="cls-14" d="M-49.85,607.6a.91.91,0,0,1,.23.78.9.9,0,0,1-1,.74,9.93,9.93,0,0,1-8.71-8.37.9.9,0,0,1,.7-1.07,1,1,0,0,1,1.08.69,15.72,15.72,0,0,0,7.23,7A.91.91,0,0,1-49.85,607.6Z" transform="translate(586.2 120.65)"/><path class="cls-14" d="M-53.16,592.2a.93.93,0,0,1-.35-.74.9.9,0,0,1,.93-.87,9.92,9.92,0,0,1,9.8,7.07.91.91,0,0,1-.54,1.16,1,1,0,0,1-1.17-.54,15.71,15.71,0,0,0-8.13-5.88A.94.94,0,0,1-53.16,592.2Z" transform="translate(586.2 120.65)"/><path class="cls-25" d="M-3,643.85c-6.2.81-11.6-2.56-12-7.53s4.22-9.65,10.42-10.46,11.6,2.56,12.05,7.53S3.16,643-3,643.85Z" transform="translate(586.2 120.65)"/><path class="cls-14" d="M-45.61,637.89h-.11c-15.42-3.06-18.62-15.14-18.65-15.26a.58.58,0,0,1,.43-.71.58.58,0,0,1,.7.42c0,.11,3.07,11.49,17.74,14.4a.59.59,0,0,1,.46.69A.57.57,0,0,1-45.61,637.89Z" transform="translate(586.2 120.65)"/><path class="cls-28" d="M-21.41,570.14s-8.4,13.21,6.13,26.73S5.55,625-4.75,634.9-57.84,650.36-45.35,673s23.05-.5,40.86,18.06,70.93,10.46,48.76-29C21.55,621.68,67.66,591.3,9,562.65c-56.15-27.43-63,22.43-63,22.43S-31.37,584.25-21.41,570.14Z" transform="translate(586.2 120.65)"/><path class="cls-20" d="M-41.54,679.26c-2.88-4.44-3.65-8.58-2.28-12.3,3.73-10.19,23-16,39.9-21.14,4.47-1.35,8.69-2.62,12.56-4,10.7-3.66,17.26-11.88,17.56-22,.33-11.2-7.1-21.29-19.39-26.31C-16.55,584-16.43,566-16.43,565.8h.53C-15.91,566-16,583.64,7,593c12.5,5.13,20.06,15.4,19.72,26.84-.3,10.35-7,18.75-17.92,22.49C4.92,643.7.7,645-3.77,646.32c-16.83,5.1-35.91,10.88-39.56,20.82-1.32,3.6-.59,7.47,2.23,11.83Z" transform="translate(586.2 120.65)"/><path class="cls-18" d="M-144.21,687.18s-48.58,83.63-53.53,215.76c-1.27,34,233.51,86.56,204,4.74C-22.51,828,11.68,774.33,11.68,774.33l-74.53-53Z" transform="translate(586.2 120.65)"/><path class="cls-25" d="M-20.53,507.41c7.28,4.38,23.94,9.87,31.32,14.11,3.2,1.84,14.46,7.32,17.05,4.48,2.25-2.47-4.21-10.91-7.83-14.56,31.61-1.82,72.4-15.61,9.14-14.87v-.08c5.45-.47,45.48-2.58,43-10.89-1.82-6.09-34.75-3.39-43.71-2.71,0-.08,0-.16,0-.23,9.1-1.43,36.73-4.31,35.3-10.22-1.88-7.78-37.43-3-37.43-3s29.56-3.29,23.93-10.7c-3.17-4.18-20.62-1.69-31.47,0h0c-2.27.36-4.26.68-5.76.9a15.64,15.64,0,0,0-3.32.83c-18,3.89-29.1,9.18-29.1,9.18s-14,4.09-13.62,18.95C-32.8,498.09-23.69,505.5-20.53,507.41Z" transform="translate(586.2 120.65)"/><path class="cls-25" d="M30.1,733s80.07,77.33,80.07,121.59-90.61,91.29-90.61,91.29L-5.65,906s60.55-45.18,58.78-54.42C50,835.12-37.46,758.74-37.46,758.74S-11.82,745.11,30.1,733Z" transform="translate(586.2 120.65)"/><path class="cls-18" d="M-29.66,693.48s65.91,14,90.76,70.61c0,0-31.92,37.7-74.58,42.48S-44.22,757.5-44.22,757.5Z" transform="translate(586.2 120.65)"/><path class="cls-30" d="M-127,784.86c-27.89-7.68-31.93-23.06-30.17-30.12l1.13.26c-1.64,6.7,2.38,21.33,29.35,28.73Z" transform="translate(586.2 120.65)"/><path class="cls-31" d="M-20.25,917.08c4.87,15.84,15.89,40.52,39,51.1l-8.21,17.46s-43.43-17.57-55.46-64.95l9.57-8.07A9.45,9.45,0,0,1-20.25,917.08Z" transform="translate(586.2 120.65)"/><path class="cls-31" d="M9.94,968.73c2.92-.56,9-.34,12-.84,1.28-.21,5.63-.64,6.14.6s-2.71,3.07-4.33,3.83c10.14,4.43,21.84,13.9,1.19,6v0c1.73.81,14.6,6.36,12.78,8.79-1.33,1.77-11.8-3.1-14.66-4.41l0,.07c2.81,1.57,11.52,5.86,10.34,7.63-1.56,2.32-12.64-3.57-12.64-3.57s9.3,4.67,6.55,6.41c-1.54,1-7-1.94-10.32-3.81h0l-1.78-1a5.51,5.51,0,0,1-1-.67,50.47,50.47,0,0,1-8.43-6.54s-4.11-3.05-2.17-7.87C4.79,970.29,8.68,969,9.94,968.73Z" transform="translate(586.2 120.65)"/><path class="cls-23" d="M61.78,994.31s10.63,1,15.94-3,16.44-11.43,18.18-6.38-4.1,21.82-9.94,23.39-22.06,0-22.06,0Z" transform="translate(586.2 120.65)"/><path class="cls-32" d="M-33.35,974.87S66,982.58,72.94,988.54c3.26,2.8,5.81,25-13,27.13-26.63,3-111.06,2.34-116.26-4.62S-39.15,974.57-33.35,974.87Z" transform="translate(586.2 120.65)"/><path class="cls-23" d="M32.6,1016.18s10.42,2.3,16.19-1,17.75-9.25,18.85-4-6.83,21.12-12.82,21.94-21.88-2.79-21.88-2.79Z" transform="translate(586.2 120.65)"/><path class="cls-32" d="M-59.31,984.88s97.56,20.19,103.71,27c2.88,3.19,2.61,25.55-16.31,25.27-26.8-.4-110.47-11.7-114.75-19.26S-65,983.86-59.31,984.88Z" transform="translate(586.2 120.65)"/><path class="cls-33" d="M-102,993.32c-.64-2.78-5.65-97.25,23.67-96,29.49,1.27,43.58-.46,46.5,4.73,9,15.92,35.07,72.85,28.17,82.13S-98.8,1007-102,993.32Z" transform="translate(586.2 120.65)"/><path class="cls-25" d="M-79.65,900.06s-49.71-.69-70.31-33.65l-16.27,10.39s23,40.81,71.55,46.65Z" transform="translate(586.2 120.65)"/><path class="cls-25" d="M-149.37,875.2c.17-3-.84-9-.72-12,.05-1.29-.09-5.67-1.39-6-1.12-.3-2.69,3.08-3.23,4.79-5.7-9.49-16.59-19.88-6.09-.41h0c-1-1.61-8.18-13.67-10.35-11.55-1.59,1.55,4.59,11.31,6.26,14l-.07,0c-1.92-2.58-7.29-10.67-8.89-9.27-2.11,1.85,5.16,12.08,5.16,12.08s-5.82-8.62-7.2-5.68c-.78,1.66,2.82,6.66,5.11,9.75h0l1.21,1.64a5.45,5.45,0,0,0,.8.89,50.46,50.46,0,0,0,7.57,7.52s3.55,3.68,8.08,1.14C-150.27,880.51-149.45,876.48-149.37,875.2Z" transform="translate(586.2 120.65)"/><path class="cls-33" d="M-65.55,896.92s-25.59,2.31-33.39-3.8-12.1-4.42-10.75,0-.54,6.81-3.84,7.87.11,5.32,0,8.51-9.1,2.49-7.73,7.08,3.55,8.15,2.13,8.86,9.57-1.06,13.64,1.42,4.47,19,4.47,19l36.8-22.71,1.77-23.35Z" transform="translate(586.2 120.65)"/><path class="cls-25" d="M-65.55,887.85s1.16,10.43,0,12.66,2,6.07,7.84,5.41,4.52-6,3.39-9S-58,883.2-58,883.2Z" transform="translate(586.2 120.65)"/><path class="cls-29" d="M-65.21,891.67a31.27,31.27,0,0,0,9.7,1.34l-1.27-5.63Z" transform="translate(586.2 120.65)"/><path class="cls-28" d="M-44.54,872.38s11.69-17.86-1.11-32.24-22-14.34-28.3-13.92c-3.9.25-8.24.48-11.74,2.08-3.72,1.7-4.65,4.74-7.65,7-1.39,1.05-6.32,2-7.64,2.89-9.07,5.8-5.11,13.55-7.61,21.66-4.94,16,7.91,26.38,15,29.45s16,5.7,26.91,1.56S-44.54,872.38-44.54,872.38Z" transform="translate(586.2 120.65)"/><ellipse class="cls-25" cx="-67.6" cy="867.35" rx="26.16" ry="24.43" transform="translate(495.34 118.33) rotate(-5.99)"/><path class="cls-14" d="M-71.81,867.68a.63.63,0,0,0,.18-.53.64.64,0,0,0-.72-.54,6.88,6.88,0,0,0-6.23,5.66.62.62,0,0,0,.47.76.71.71,0,0,0,.77-.46,10.9,10.9,0,0,1,5.17-4.71A.62.62,0,0,0-71.81,867.68Z" transform="translate(586.2 120.65)"/><path class="cls-14" d="M-72.68,876.18c.72,1.33,2.09,2,3.06,1.47s1.18-2,.46-3.34-2.09-2-3.06-1.47S-73.4,874.85-72.68,876.18Z" transform="translate(586.2 120.65)"/><path class="cls-14" d="M-50.44,859.28a.64.64,0,0,0,.37-.43.63.63,0,0,0-.46-.77A7,7,0,0,0-58.47,861a.64.64,0,0,0,.14.88.73.73,0,0,0,.9-.14,10.86,10.86,0,0,1,6.59-2.4A.67.67,0,0,0-50.44,859.28Z" transform="translate(586.2 120.65)"/><path class="cls-14" d="M-54.51,866.81c.15,1.49,1.16,2.62,2.26,2.51s1.87-1.42,1.71-2.91-1.16-2.62-2.26-2.51S-54.67,865.31-54.51,866.81Z" transform="translate(586.2 120.65)"/><path class="cls-25" d="M-92.8,883.67c3.73-.41,6.39-3.12,6-6.06s-3.84-5-7.57-4.58-6.39,3.12-6,6.06S-96.53,884.08-92.8,883.67Z" transform="translate(586.2 120.65)"/><path class="cls-28" d="M-69.39,839s14.53.82,20.8,6.92-9.27,3.93-11.71,8.44-4.2.29-11.45,3.32-4.54,10.39-10.71,10.18-16.17,3.56-18.13,1.87S-94.87,838.71-69.39,839Z" transform="translate(586.2 120.65)"/><path class="cls-20" d="M-67.72,881.14s10.43-2.33,18.35-8.71C-49.37,872.43-50.68,891.61-67.72,881.14Z" transform="translate(586.2 120.65)"/><path class="cls-33" d="M-45.88,898.19s17,.2,24.18,4.21c10.34,5.74,20.19,11.88,17.8,14.8s-7,.27-7.46,3.19-1,6.2-7.81,5.23-5.19-5-6.78-1S-45.88,898.19-45.88,898.19Z" transform="translate(586.2 120.65)"/><path class="cls-29" d="M45.62,1016.24h-.06a.42.42,0,0,1-.33-.48c2-11.59-51.32-22-51.86-22.06a.39.39,0,0,1-.32-.46c0-.21.25-.41.46-.31,2.23.41,54.64,10.61,52.51,23A.41.41,0,0,1,45.62,1016.24Z" transform="translate(586.2 120.65)"/><path class="cls-28" d="M-90.14,838.14a.6.6,0,0,1-.38-.13c-.07-.08-7.69-6.54-15.29-3.59a.64.64,0,0,1-.75-.34.58.58,0,0,1,.34-.76c8.26-3.18,16.12,3.52,16.46,3.8a.6.6,0,0,1,.06.83A.58.58,0,0,1-90.14,838.14Z" transform="translate(586.2 120.65)"/><path class="cls-28" d="M-91,835.89a.61.61,0,0,1-.49-.25A9.24,9.24,0,0,1-93,828.26a.53.53,0,0,1,.72-.39.56.56,0,0,1,.39.71,8.09,8.09,0,0,0,1.38,6.4.6.6,0,0,1-.17.82A.56.56,0,0,1-91,835.89Z" transform="translate(586.2 120.65)"/><path class="cls-25" d="M-66.5,1007.08s35.46,3.13,51.76,12.14,6.44,28.67-27.41,26.54-31.05-7.08-31.05-7.08S-65.93,1021.36-66.5,1007.08Z" transform="translate(586.2 120.65)"/><path class="cls-26" d="M-86.94,1056.92c-253.68,7.13-322.06-63.11-276.57-138.54a94.29,94.29,0,0,1,32.07-32.56l263.19,95.84c.11.78.19,1.52.27,2.23C-61.87,1045.11-86.94,1056.92-86.94,1056.92Z" transform="translate(586.2 120.65)"/><path class="cls-27" d="M-86.67,1056.58l-.56-.77c26.64-19.11,19.48-68.17,18.82-72.29L-241.5,920.21l.33-.92,173.62,63.52,0,.27C-67.41,983.61-58.5,1036.39-86.67,1056.58Z" transform="translate(586.2 120.65)"/><path class="cls-25" d="M13.49,902.33c-8.26-.05-24.91,3.61-33.19,3.72-3.58.05-15.71,1.05-16.47,4.71-.66,3.18,8.92,7,13.76,8.29-25.53,17.19-52.81,48.94-.27,17l0,.08C-27,939.18-59.4,960.78-53.21,966.5c4.53,4.19,30.74-14.38,37.9-19.39l.14.18c-6.9,5.69-28.58,21.79-24.46,26,5.43,5.57,32.78-16.07,32.78-16.07s-23.09,17.4-14.71,20.81c4.72,1.92,18.08-8.8,26.31-15.6h0C6.48,961,8,959.78,9.14,958.85a16.3,16.3,0,0,0,2.36-2.33c13.13-12.19,19.78-22.11,19.78-22.11s9.71-10.37,2-22.59C28.36,904,17.07,902.36,13.49,902.33Z" transform="translate(586.2 120.65)"/><path class="cls-25" d="M1311.31,761.9s-60.18-132.58-35.25-198.38,171.42-80.3,171.42-80.3l-5.07,48.47s-68.15,9.39-95.09,51.11c-16,24.7,11.5,116.15,11.5,116.15Z" transform="translate(586.2 120.65)"/><path class="cls-25" d="M1768.54,998.55s52,11.4,79.74,7.88c14.82-1.88,50.4-10.61,40.71,6.66-4.29,7.64-30,14.87-43.76,21.31-10.33,4.83-27,16.63-37.61,12.45-11.63-4.6-64.5-23.61-64.5-23.61Z" transform="translate(586.2 120.65)"/><path class="cls-18" d="M1391.54,917.49s386.51,51.7,402.45,72.44.59,55.62-25.5,58.05-414.78-20.11-414.78-20.11l-11-110.38Z" transform="translate(586.2 120.65)"/><path class="cls-28" d="M1345,638.47s-63.48,26.87-63.12,70.61c0,5.13,13.38,23,2.86,50-14.53,37.34,119.91,49.7,149,54.67,33.2,5.68,64.68-21.86,64.68-21.86s-18.49-46-71.16-76.75c-5-2.88-10.22-5-15.76-7.48-9.32-4.17-24.32-9-33.68-12.59C1364.62,690,1345,638.47,1345,638.47Z" transform="translate(586.2 120.65)"/><path class="cls-18" d="M1356.88,914.77s-30.61,15.87-61.23,1.35c-49.33-23.4-160.51-56.85-207.24,20.61-45.5,75.43,22.89,145.67,276.56,138.54,0,0,25.07-11.81,19-73C1381.52,978,1356.88,914.77,1356.88,914.77Z" transform="translate(586.2 120.65)"/><path class="cls-27" d="M1243.77,951.25c-3.71-14.58-16.26-24.06-16.39-24.15l.58-.77c.13.09,13,9.76,16.74,24.68Z" transform="translate(586.2 120.65)"/><path class="cls-25" d="M1422.26,712.55c-14.83,9.24-28.63,8.75-41.21,4.32-16-5.63-6.61-22.34-4-22,6.37.75,8.85-1.89,11-7.22l2.76-7,.35-.87,3.6-9.1,6.23-15.71,16.37-41.32-1.87,46.7-.32,7.94L1414,695.55C1413.66,704.36,1416.29,710.53,1422.26,712.55Z" transform="translate(586.2 120.65)"/><path class="cls-29" d="M1414.46,675.12a30.29,30.29,0,0,1-23.71,5.5l.35-.87,3.6-9.1C1402.07,672.47,1414.46,675.12,1414.46,675.12Z" transform="translate(586.2 120.65)"/><path class="cls-28" d="M1307.71,706.25s-48.59,83.63-53.53,215.76c-1.28,34,233.51,86.55,204,4.73-28.75-79.67,5.44-133.34,5.44-133.34l-74.54-53Z" transform="translate(586.2 120.65)"/><path class="cls-25" d="M1431.39,526.47c7.28,4.38,23.94,9.88,31.32,14.12,3.19,1.84,14.46,7.31,17,4.47,2.25-2.46-4.21-10.91-7.83-14.55,31.61-1.83,72.4-15.61,9.14-14.87v-.09c5.45-.46,45.48-2.57,43-10.88-1.81-6.09-34.74-3.4-43.71-2.72l0-.23c9.1-1.42,36.73-4.3,35.3-10.21-1.88-7.78-37.43-3-37.43-3s29.56-3.29,23.93-10.7c-3.17-4.18-20.62-1.7-31.47,0h0c-2.27.35-4.26.68-5.77.89a16.33,16.33,0,0,0-3.31.83c-18,3.9-29.1,9.19-29.1,9.19s-14,4.09-13.62,18.94C1419.12,517.16,1428.23,524.57,1431.39,526.47Z" transform="translate(586.2 120.65)"/><path class="cls-25" d="M1479.71,752.6s73.61,83.5,70.06,127.61S1452.14,964,1452.14,964l-21.93-41.76s64-40.18,63-49.54c-1.83-16.64-82.86-99.78-82.86-99.78S1437,761.33,1479.71,752.6Z" transform="translate(586.2 120.65)"/><path class="cls-28" d="M1422.26,712.55s65.91,14,90.76,70.61c0,0-31.92,37.7-74.58,42.48s-30.74-49.07-30.74-49.07Z" transform="translate(586.2 120.65)"/><path class="cls-34" d="M1318.9,807.81c-27.9-7.67-31.94-23.07-30.18-30.14l1.13.27c-1.65,6.71,2.38,21.34,29.36,28.74Z" transform="translate(586.2 120.65)"/><path class="cls-34" d="M1402.15,820.2c-12.34,0-18.75-6-20.7-10.57l1.07-.44c2.74,6.31,14.76,15.54,40.74,5.15l.43,1.07C1415.09,818.86,1408,820.2,1402.15,820.2Z" transform="translate(586.2 120.65)"/><path class="cls-25" d="M1372.27,919.13s-49.71-.69-70.32-33.66l-16.26,10.39s23,40.81,71.55,46.66Z" transform="translate(586.2 120.65)"/><path class="cls-25" d="M1302.54,894.26c.18-3-.83-9-.71-12,.05-1.29-.09-5.66-1.39-6-1.13-.3-2.69,3.07-3.23,4.79-5.7-9.49-16.6-19.89-6.09-.42h0c-1-1.61-8.18-13.66-10.35-11.54-1.59,1.55,4.59,11.31,6.26,14l-.07,0c-1.92-2.59-7.3-10.67-8.89-9.27-2.11,1.85,5.16,12.07,5.16,12.07s-5.82-8.62-7.21-5.67c-.77,1.66,2.83,6.66,5.12,9.74h0c.48.64.9,1.21,1.21,1.64a6.43,6.43,0,0,0,.8.89,51.08,51.08,0,0,0,7.57,7.52s3.55,3.68,8.08,1.14C1301.65,899.58,1302.47,895.55,1302.54,894.26Z" transform="translate(586.2 120.65)"/><path class="cls-25" d="M1407.68,920.46c15.28-6.39,38.76-19.78,47-43.8l18.19,6.46s-13.24,44.94-59.21,61.56l-9-8.73A9.45,9.45,0,0,1,1407.68,920.46Z" transform="translate(586.2 120.65)"/><path class="cls-25" d="M1456.12,885.35c-.84-2.85-1.22-9-2-11.84-.33-1.24-1.19-5.54,0-6.16s3.32,2.39,4.23,3.93c3.42-10.53,11.69-23.1,5.84-1.77h0c.64-1.81,4.9-15.16,7.49-13.59,1.9,1.16-1.93,12.06-3,15l.07,0c1.29-3,4.71-12,6.58-11,2.47,1.32-2.31,12.92-2.31,12.92s3.73-9.71,5.74-7.15c1.13,1.45-1.25,7.13-2.79,10.65h0l-.81,1.87a5.43,5.43,0,0,1-.57,1,51,51,0,0,1-5.69,9s-2.63,4.38-7.61,2.93C1458.18,890.33,1456.48,886.59,1456.12,885.35Z" transform="translate(586.2 120.65)"/><path class="cls-29" d="M1513.7,1013.38s10.63,1,15.94-3,16.44-11.42,18.18-6.37-4.1,21.82-9.94,23.38-22.06,0-22.06,0Z" transform="translate(586.2 120.65)"/><path class="cls-26" d="M1418.57,993.94s99.33,7.7,106.29,13.67c3.25,2.8,5.81,25-13,27.13-26.63,3-111.06,2.34-116.26-4.62S1412.77,993.64,1418.57,993.94Z" transform="translate(586.2 120.65)"/><path class="cls-29" d="M1484.52,1035.25s10.42,2.3,16.19-1,17.75-9.25,18.85-4-6.83,21.12-12.82,21.94-21.88-2.79-21.88-2.79Z" transform="translate(586.2 120.65)"/><path class="cls-26" d="M1392.61,1004s97.56,20.19,103.71,27c2.87,3.18,2.61,25.55-16.31,25.27-26.8-.4-110.47-11.71-114.75-19.26S1386.89,1002.92,1392.61,1004Z" transform="translate(586.2 120.65)"/><path class="cls-1" d="M1350,1012.39c-.64-2.78-6-92.25,23.37-91,29.49,1.27,43.88-5.46,46.8-.28,9,15.93,35.07,72.86,28.16,82.13S1353.12,1026.06,1350,1012.39Z" transform="translate(586.2 120.65)"/><path class="cls-29" d="M1497.55,1035.29h-.07a.43.43,0,0,1-.33-.47c2-11.59-51.32-21.95-51.86-22a.39.39,0,0,1-.32-.46c0-.22.29-.4.47-.31,2.23.41,54.63,10.61,52.5,23A.39.39,0,0,1,1497.55,1035.29Z" transform="translate(586.2 120.65)"/><path class="cls-1" d="M1388.4,916.84s-27.9,1.24-42.33-2.84c0,0-9.48,16.69-5.8,28.52,0,0,12.81,3.56,11.71,11.06l79.24-10s-.28-8,6.16-11.6c0,0,.25-16.11-10.78-23.1C1426.6,908.88,1409.11,917.61,1388.4,916.84Z" transform="translate(586.2 120.65)"/><path class="cls-25" d="M1386.37,906.91s1.16,10.43,0,12.67,2,6.07,7.84,5.4,4.52-6,3.39-9-3.65-13.73-3.65-13.73Z" transform="translate(586.2 120.65)"/><path class="cls-29" d="M1386.71,910.73a31.13,31.13,0,0,0,9.7,1.35l-1.27-5.63Z" transform="translate(586.2 120.65)"/><path class="cls-29" d="M1407.38,891.45s.15-16.82,0-26.44c-.06-4.27-4.41-6.43-5.51-10.32-3.29-11.65-14.32-7.59-22.5-9.2-3.83-.76-9.64.28-13.14,1.87-3.73,1.7-4.66,4.75-7.65,7-1.39,1-6.32,2-7.64,2.88-9.07,5.8-5.25,13.27-10.19,20.54-9.41,13.88,6.6,24,13.65,27.09s19.85,9.19,30.8,5.05S1407.38,891.45,1407.38,891.45Z" transform="translate(586.2 120.65)"/><ellipse class="cls-25" cx="1384.32" cy="886.42" rx="26.16" ry="24.43" transform="translate(501.26 269.93) rotate(-5.99)"/><path class="cls-14" d="M1380.11,886.75a.65.65,0,0,0,.17-.54.63.63,0,0,0-.72-.53,6.88,6.88,0,0,0-6.22,5.66.62.62,0,0,0,.47.76.7.7,0,0,0,.77-.47,10.81,10.81,0,0,1,5.17-4.7A.69.69,0,0,0,1380.11,886.75Z" transform="translate(586.2 120.65)"/><path class="cls-14" d="M1379.24,895.25c.72,1.32,2.09,2,3.06,1.46s1.18-2,.46-3.33-2.09-2-3.06-1.47S1378.52,893.92,1379.24,895.25Z" transform="translate(586.2 120.65)"/><path class="cls-14" d="M1401.48,878.34a.62.62,0,0,0,.37-.42.63.63,0,0,0-.46-.77,7,7,0,0,0-7.94,2.88.63.63,0,0,0,.14.88.69.69,0,0,0,.89-.14,11,11,0,0,1,6.6-2.4A.61.61,0,0,0,1401.48,878.34Z" transform="translate(586.2 120.65)"/><path class="cls-14" d="M1397.4,885.87c.16,1.5,1.17,2.62,2.27,2.51s1.87-1.41,1.71-2.91-1.17-2.62-2.26-2.51S1397.25,884.38,1397.4,885.87Z" transform="translate(586.2 120.65)"/><path class="cls-20" d="M1384.2,900.21s10.43-2.33,18.35-8.71C1402.55,891.5,1401.24,910.68,1384.2,900.21Z" transform="translate(586.2 120.65)"/><path class="cls-29" d="M1376.81,867.33s19.69,5.67,25.06,1.53-15.72-15.75-25.06-14.59-27.84,22-23.57,29.9l4.26,7.93S1378.68,889.17,1376.81,867.33Z" transform="translate(586.2 120.65)"/><path class="cls-25" d="M1360.94,902c4-.43,6.78-3.3,6.31-6.42s-4.07-5.28-8-4.85-6.78,3.3-6.31,6.42S1357,902.44,1360.94,902Z" transform="translate(586.2 120.65)"/><path class="cls-29" d="M1343.56,852.91a.61.61,0,0,1-.51-.28.59.59,0,0,1,.22-.8,12.48,12.48,0,0,1,13.21,0,.58.58,0,0,1-.68.95,11.14,11.14,0,0,0-12,0A.77.77,0,0,1,1343.56,852.91Z" transform="translate(586.2 120.65)"/><path class="cls-29" d="M1358.89,852a.6.6,0,0,1-.52-.31c-2.33-4.57,1.09-9.47,1.24-9.68a.59.59,0,0,1,.81-.13.57.57,0,0,1,.14.81s-3.16,4.54-1.16,8.46a.59.59,0,0,1-.25.79A.65.65,0,0,1,1358.89,852Z" transform="translate(586.2 120.65)"/><path class="cls-25" d="M1385.42,1026.15s35.46,3.12,51.76,12.13,6.44,28.67-27.41,26.55-31-7.08-31-7.08S1386,1040.43,1385.42,1026.15Z" transform="translate(586.2 120.65)"/><path class="cls-18" d="M1365,1076c-253.67,7.13-322-63.12-276.56-138.55a94.17,94.17,0,0,1,32.07-32.55l263.19,95.84c.11.77.19,1.52.27,2.23C1390.05,1064.18,1365,1076,1365,1076Z" transform="translate(586.2 120.65)"/><path class="cls-27" d="M1365.26,1075.65l-.57-.77c26.64-19.11,19.48-68.17,18.82-72.29l-173.09-63.31.32-.92,173.63,63.52.05.26C1384.51,1002.68,1393.42,1055.45,1365.26,1075.65Z" transform="translate(586.2 120.65)"/><path class="cls-25" d="M1449.57,920.08c-8.23-.72-25.12,1.6-33.37,1-3.58-.24-15.75-.21-16.8,3.38-.92,3.11,8.33,7.73,13,9.36-26.82,15.09-56.55,44.55-1.62,16.89l0,.08c-4.56,2.73-38.62,21.66-32.91,27.86,4.19,4.54,31.79-11.87,39.33-16.29l.13.19c-7.34,5.13-30.23,19.43-26.46,24,5,6,34-13.39,34-13.39s-24.41,15.49-16.33,19.56c4.55,2.3,18.73-7.32,27.49-13.44h0c1.83-1.28,3.43-2.41,4.65-3.24a16,16,0,0,0,2.54-2.14c14.07-11.1,21.49-20.45,21.49-20.45s10.51-9.56,3.81-22.35C1464.26,923,1453.14,920.39,1449.57,920.08Z" transform="translate(586.2 120.65)"/><path class="cls-29" d="M1404.89,583.43s2.92-34,30.69-26.17,14.61,24.48,17.66,31.2-14.61,16.29-28.22,13.22S1404.89,583.43,1404.89,583.43Z" transform="translate(586.2 120.65)"/><path class="cls-29" d="M1462.85,649.5s-5.2,4.46-9.66,17.78c-6.52,19.49-31.32,12.69-33.18,4.61-.23-1,20.06-27.93,20.06-27.93l8.89.83Z" transform="translate(586.2 120.65)"/><ellipse class="cls-25" cx="1413.44" cy="631.84" rx="46.67" ry="40.36" transform="translate(620.61 1456.29) rotate(-51.12)"/><path class="cls-29" d="M1420.87,593.65c.1,1.8-19,17.82,17,49.11s43.55-28.72,15.23-49.35c-40.89-29.79-65.39-7.93-68,4.15S1420.87,593.65,1420.87,593.65Z" transform="translate(586.2 120.65)"/><path class="cls-29" d="M1438,633.59s5,26.51-11.87,38.72c0,0,16-3.09,18.66-6.46s9.17-17.71,9.17-17.71Z" transform="translate(586.2 120.65)"/><path class="cls-25" d="M1438.36,657.19c-6.16.77-11.7-2.47-12.38-7.24s3.75-9.28,9.9-10.05,11.69,2.47,12.38,7.24S1444.51,656.41,1438.36,657.19Z" transform="translate(586.2 120.65)"/><path class="cls-14" d="M1414,631.89a.9.9,0,0,1-.21-.77.85.85,0,0,1,1.06-.62,10.36,10.36,0,0,1,8.42,8.69.82.82,0,0,1-.73,1,1.07,1.07,0,0,1-1.06-.75,16.46,16.46,0,0,0-7-7.22A1,1,0,0,1,1414,631.89Z" transform="translate(586.2 120.65)"/><path class="cls-14" d="M1414.57,643.67c-1.12,1.72-3.13,2.41-4.47,1.56s-1.52-2.93-.4-4.64,3.13-2.42,4.48-1.56S1415.7,642,1414.57,643.67Z" transform="translate(586.2 120.65)"/><path class="cls-14" d="M1384.26,617.17a1,1,0,0,1-.5-.64.84.84,0,0,1,.72-1,10.53,10.53,0,0,1,11.07,5.14.84.84,0,0,1-.27,1.19,1.07,1.07,0,0,1-1.26-.32,16.83,16.83,0,0,0-9.19-4.28A.93.93,0,0,1,1384.26,617.17Z" transform="translate(586.2 120.65)"/><path class="cls-14" d="M1389.46,628.11c-.34,2-1.87,3.42-3.42,3.11s-2.55-2.22-2.21-4.25,1.87-3.43,3.42-3.11S1389.8,626.07,1389.46,628.11Z" transform="translate(586.2 120.65)"/><path class="cls-29" d="M1457.44,606.58s20.66-22.61,42.38-3.74,8.13,27.93,1.34,34.72c-5.05,5.05-21.11,7.73-32.12-.86S1457.44,606.58,1457.44,606.58Z" transform="translate(586.2 120.65)"/><path class="cls-20" d="M1381.63,643.1s10.21,8.53,20.72,11.64c0,0-7.73,6-15.77,1.34S1381.63,643.1,1381.63,643.1Z" transform="translate(586.2 120.65)"/><path class="cls-35" d="M1433.75,920.52a.57.57,0,0,1-.58-.53.59.59,0,0,1,.53-.63c.08,0,7.47-.65,10.16-3,2.84-2.51,22.54-19.22,22.74-19.38a.59.59,0,1,1,.76.89c-.2.16-19.9,16.87-22.73,19.35-3,2.62-10.51,3.27-10.83,3.3Z" transform="translate(586.2 120.65)"/><path class="cls-25" d="M325.22,560s-47.71-105.11-27.94-157.28,135.9-63.65,135.9-63.65l-4,38.42s-54,7.45-75.39,40.52c-12.64,19.59,9.12,92.08,9.12,92.08Z" transform="translate(586.2 120.65)"/><path class="cls-36" d="M388.83,683.35s306.43,41,319.07,57.42.46,44.1-20.22,46-328.84-15.94-328.84-15.94l-8.73-87.5Z" transform="translate(586.2 120.65)"/><path class="cls-12" d="M351.91,462.14s-50.33,21.3-50,56c0,4.07,10.6,18.23,2.26,39.66-11.52,29.6,95.07,39.39,118.11,43.34,26.32,4.5,51.28-17.34,51.28-17.34s-14.66-36.49-56.42-60.84A131.42,131.42,0,0,0,404.6,517c-7.38-3.3-19.27-7.12-26.7-10C367.49,503,351.91,462.14,351.91,462.14Z" transform="translate(586.2 120.65)"/><path class="cls-36" d="M361.35,681.19s-24.27,12.58-48.54,1.06c-39.11-18.55-127.26-45.07-164.3,16.35-36.07,59.8,18.15,115.49,219.26,109.83,0,0,19.87-9.36,15-57.9C380.89,731.3,361.35,681.19,361.35,681.19Z" transform="translate(586.2 120.65)"/><path class="cls-27" d="M271.67,710.09c-2.93-11.52-12.88-19.05-13-19.12l.46-.63c.1.08,10.26,7.77,13.26,19.58Z" transform="translate(586.2 120.65)"/><path class="cls-29" d="M424.28,400.82c17-1.66,51.21,2.75,49.24,35.74-1,16.54,19.25,18.27,20.32,27.91s-3.75,18-13.33,19.38.2,19.13-13.57,18.24-20-6.21-24.42,2.89-19.37,19.12-23.39,7.33-4.1,5.26-14.92-1.33-8.44-23.54-18.6-23.54-29.32-6.59-20.9-17c9.53-11.74-9.75-19.89-3.87-24,12.66-8.79-1.35-24,13.94-23.66C395.49,423.21,394.25,403.76,424.28,400.82Z" transform="translate(586.2 120.65)"/><path class="cls-25" d="M413.19,520.87c-11.76,7.32-22.71,6.94-32.68,3.42-12.68-4.46-5.24-17.71-3.18-17.47,5.05.6,7-1.5,8.68-5.73l2.2-5.54.27-.68,2.85-7.23,4.94-12.44,13-32.76-1.48,37-.25,6.3-.87,21.63C406.36,514.37,408.45,519.26,413.19,520.87Z" transform="translate(586.2 120.65)"/><path class="cls-37" d="M407,491.19a24,24,0,0,1-18.79,4.36l.27-.68,2.85-7.23C397.17,489.09,407,491.19,407,491.19Z" transform="translate(586.2 120.65)"/><ellipse class="cls-25" cx="416.05" cy="457.59" rx="38.92" ry="31.73" transform="translate(385.41 533.6) rotate(-43.58)"/><path class="cls-14" d="M413,455.2a.75.75,0,0,1-.13-.63.72.72,0,0,1,.89-.5,7.84,7.84,0,0,1,6.21,7.27.71.71,0,0,1-.63.79c-.4.05-.67-.26-.8-.63a12.4,12.4,0,0,0-5.16-6.05A.67.67,0,0,1,413,455.2Z" transform="translate(586.2 120.65)"/><path class="cls-14" d="M414.47,465.93a.69.69,0,0,1,.27.58.71.71,0,0,1-.73.7,7.87,7.87,0,0,1-7.79-5.57.71.71,0,0,1,.42-.93.82.82,0,0,1,.93.43,12.34,12.34,0,0,0,6.47,4.63A.73.73,0,0,1,414.47,465.93Z" transform="translate(586.2 120.65)"/><path class="cls-14" d="M397.17,452.78a.71.71,0,0,1-.63,1.2,7.85,7.85,0,0,1-6.91-6.63.71.71,0,0,1,.55-.85.79.79,0,0,1,.86.55,12.44,12.44,0,0,0,5.73,5.51A.72.72,0,0,1,397.17,452.78Z" transform="translate(586.2 120.65)"/><path class="cls-14" d="M394.55,440.57a.72.72,0,0,1,.46-1.28,7.87,7.87,0,0,1,7.77,5.61.72.72,0,0,1-.42.92.81.81,0,0,1-.93-.43,12.36,12.36,0,0,0-6.45-4.66A.81.81,0,0,1,394.55,440.57Z" transform="translate(586.2 120.65)"/><path class="cls-25" d="M434.28,481.51c-4.92.65-9.19-2-9.55-6s3.35-7.65,8.27-8.29,9.2,2,9.55,6S439.2,480.87,434.28,481.51Z" transform="translate(586.2 120.65)"/><path class="cls-14" d="M400.54,476.79h-.09c-12.23-2.43-14.75-12-14.78-12.1a.46.46,0,0,1,.34-.57h.11a.45.45,0,0,1,.44.34c0,.1,2.44,9.11,14.07,11.42a.46.46,0,0,1,.36.55A.45.45,0,0,1,400.54,476.79Z" transform="translate(586.2 120.65)"/><path class="cls-29" d="M421.87,430.58s-6,11.79-1.86,20.31,9.7,7.36,8.58,13.05-1.71,8.23,5.05,12.39,17-3,20.89-10.35,2.51-34.84-6.78-40.45-39.87-10.65-52.65,1.36,6.46,9.29,11.07,6.38S421.87,430.58,421.87,430.58Z" transform="translate(586.2 120.65)"/><path class="cls-12" d="M322.37,515.87s-38.52,66.31-42.44,171c-1,27,185.13,68.63,161.72,3.76C418.85,627.52,446,585,446,585l-59.09-42Z" transform="translate(586.2 120.65)"/><path class="cls-25" d="M420.42,373.34c5.77,3.48,19,7.83,24.83,11.2,2.54,1.46,11.46,5.79,13.52,3.54,1.78-1.95-3.34-8.65-6.21-11.54,25.06-1.44,57.4-12.38,7.25-11.79v-.06c4.32-.37,36.06-2.05,34.09-8.63-1.43-4.83-27.54-2.69-34.65-2.16l0-.18c7.22-1.13,29.12-3.41,28-8.1-1.49-6.16-29.68-2.35-29.68-2.35s23.44-2.61,19-8.49c-2.52-3.31-16.35-1.34-25,0h0l-4.57.71a13,13,0,0,0-2.63.65,115.44,115.44,0,0,0-23.07,7.28s-11.13,3.25-10.8,15C410.69,366,417.92,371.84,420.42,373.34Z" transform="translate(586.2 120.65)"/><path class="cls-25" d="M460.56,552.17S524,613.48,524,648.57,452.21,721,452.21,721l-20-31.61s48-35.81,46.6-43.14c-2.5-13-71.82-73.59-71.82-73.59S427.33,561.8,460.56,552.17Z" transform="translate(586.2 120.65)"/><path class="cls-12" d="M413.19,520.87s52.25,11.06,71.95,56c0,0-25.31,29.88-59.13,33.67s-24.37-38.9-24.37-38.9Z" transform="translate(586.2 120.65)"/><path class="cls-24" d="M331.13,596.75c-28-7.69-24.22-24.18-24.18-24.35l1.63.42c-.15.61-3.32,15.07,23,22.3Z" transform="translate(586.2 120.65)"/><path class="cls-31" d="M420.64,698.14c3.86,12.55,12.6,32.12,30.91,40.51L445,752.49s-34.43-13.93-44-51.49l7.58-6.4A7.49,7.49,0,0,1,420.64,698.14Z" transform="translate(586.2 120.65)"/><path class="cls-31" d="M444.58,739.08c2.31-.44,7.17-.27,9.5-.66,1-.17,4.46-.51,4.86.48s-2.14,2.43-3.43,3c8,3.51,17.32,11,.94,4.74v0c1.37.64,11.57,5,10.13,7-1.06,1.41-9.36-2.46-11.62-3.5l0,.06c2.23,1.25,9.14,4.65,8.2,6-1.24,1.84-10-2.83-10-2.83s7.37,3.7,5.2,5.09c-1.23.78-5.53-1.55-8.19-3h0l-1.41-.79a3.94,3.94,0,0,1-.78-.53,40.72,40.72,0,0,1-6.69-5.19,5.38,5.38,0,0,1-1.71-6.23C440.49,740.32,443.58,739.27,444.58,739.08Z" transform="translate(586.2 120.65)"/><path class="cls-26" d="M485.68,759.37s8.42.76,12.64-2.4,13-9.05,14.41-5.05-3.25,17.3-7.88,18.54-17.49,0-17.49,0Z" transform="translate(586.2 120.65)"/><path class="cls-33" d="M410.26,744s78.75,6.11,84.26,10.84c2.59,2.22,4.61,19.84-10.29,21.51-21.12,2.37-88.05,1.85-92.18-3.66S405.66,743.72,410.26,744Z" transform="translate(586.2 120.65)"/><path class="cls-26" d="M462.54,776.71s8.26,1.82,12.84-.78,14.08-7.34,14.94-3.19-5.41,16.74-10.16,17.39-17.35-2.21-17.35-2.21Z" transform="translate(586.2 120.65)"/><path class="cls-33" d="M389.68,751.89s77.34,16,82.22,21.4c2.28,2.52,2.07,20.25-12.93,20-21.25-.32-87.58-9.28-91-15.27S385.14,751.08,389.68,751.89Z" transform="translate(586.2 120.65)"/><path class="cls-28" d="M355.86,758.58c-.51-2.21-4.49-77.1,18.76-76.1s34.55-.36,36.87,3.74c7.12,12.63,27.8,57.76,22.33,65.12S358.37,769.42,355.86,758.58Z" transform="translate(586.2 120.65)"/><path class="cls-25" d="M373.55,684.65s-39.41-.55-55.74-26.69l-12.9,8.24s18.25,32.35,56.73,37Z" transform="translate(586.2 120.65)"/><path class="cls-25" d="M318.27,664.93c.14-2.35-.66-7.15-.56-9.51,0-1-.07-4.49-1.1-4.76s-2.14,2.44-2.57,3.8c-4.52-7.53-13.15-15.76-4.82-.33h0c-.82-1.28-6.49-10.83-8.22-9.15-1.26,1.23,3.65,9,5,11.08l-.05,0c-1.53-2.05-5.79-8.46-7.06-7.35-1.67,1.47,4.09,9.57,4.09,9.57s-4.61-6.83-5.71-4.49c-.61,1.31,2.24,5.28,4.06,7.72h0l1,1.31a4.91,4.91,0,0,0,.63.7,40.56,40.56,0,0,0,6,6,5.41,5.41,0,0,0,6.41.91C317.57,669.14,318.21,666,318.27,664.93Z" transform="translate(586.2 120.65)"/><path class="cls-28" d="M384.73,682.15s-20.29,1.84-26.47-3-9.59-3.5-8.53,0-.42,5.4-3,6.24.09,4.21,0,6.74-7.21,2-6.12,5.62,2.8,6.46,1.68,7,7.58-.84,10.81,1.13S356.61,721,356.61,721l29.18-18,1.4-18.52Z" transform="translate(586.2 120.65)"/><path class="cls-25" d="M384.73,675s.92,8.27,0,10,1.58,4.81,6.22,4.28,3.58-4.78,2.68-7.13-2.89-10.88-2.89-10.88Z" transform="translate(586.2 120.65)"/><path class="cls-29" d="M385,678a24.68,24.68,0,0,0,7.69,1.06l-1-4.46Z" transform="translate(586.2 120.65)"/><path class="cls-29" d="M401.39,662.7s7.16-17.91-3-29.31-15.32-7.62-20.32-7.29c-3.09.2-6.53.38-9.31,1.65-2.95,1.35-3.69,3.76-6.06,5.56-1.11.83-5,1.62-6.06,2.29-7.19,4.6-5.2,9.78-7.18,16.2-3.91,12.71,4.15,19.12,9.74,21.55s14.26,3.29,22.94,0S401.39,662.7,401.39,662.7Z" transform="translate(586.2 120.65)"/><ellipse class="cls-25" cx="383.1" cy="658.71" rx="20.74" ry="19.37" transform="translate(519.55 164.22) rotate(-5.99)"/><path class="cls-14" d="M379.76,659a.5.5,0,0,0,.15-.42.51.51,0,0,0-.57-.43,5.47,5.47,0,0,0-4.94,4.49.5.5,0,0,0,.37.6.55.55,0,0,0,.61-.37,8.64,8.64,0,0,1,4.1-3.73A.42.42,0,0,0,379.76,659Z" transform="translate(586.2 120.65)"/><path class="cls-14" d="M379.08,665.71a2,2,0,0,0,2.43,1.16,1.92,1.92,0,0,0,.36-2.64,2,2,0,0,0-2.43-1.17A1.93,1.93,0,0,0,379.08,665.71Z" transform="translate(586.2 120.65)"/><path class="cls-14" d="M396.71,652.31a.5.5,0,0,0-.07-.95,5.52,5.52,0,0,0-6.3,2.29.51.51,0,0,0,.12.7.56.56,0,0,0,.7-.11,8.74,8.74,0,0,1,5.23-1.91A.5.5,0,0,0,396.71,652.31Z" transform="translate(586.2 120.65)"/><path class="cls-14" d="M393.48,658.28c.12,1.18.92,2.08,1.8,2s1.47-1.12,1.35-2.31-.92-2.08-1.79-2S393.36,657.09,393.48,658.28Z" transform="translate(586.2 120.65)"/><path class="cls-25" d="M363.13,671.65c2.95-.33,5.07-2.48,4.71-4.8s-3-4-6-3.64-5.07,2.48-4.71,4.8S360.17,672,363.13,671.65Z" transform="translate(586.2 120.65)"/><path class="cls-20" d="M383,669.64s8.27-1.84,14.55-6.9C397.56,662.74,396.52,678,383,669.64Z" transform="translate(586.2 120.65)"/><path class="cls-28" d="M400.32,683.16s13.45.16,19.17,3.34c8.2,4.54,16,9.41,14.12,11.73s-5.52.21-5.92,2.53-.82,4.92-6.19,4.14-4.11-3.93-5.38-.77S400.32,683.16,400.32,683.16Z" transform="translate(586.2 120.65)"/><path class="cls-29" d="M472.87,776.74h-.05a.32.32,0,0,1-.26-.37c1.58-9.2-40.69-17.41-41.12-17.48a.32.32,0,0,1-.25-.37.32.32,0,0,1,.37-.26c1.77.34,43.32,8.42,41.62,18.23A.31.31,0,0,1,472.87,776.74Z" transform="translate(586.2 120.65)"/><path class="cls-29" d="M379.91,637.29s14.17-1,17.11,4.45-7.53,3.09-11,1.35c0,0,8,7.36,1.18,7s-10-7.94-10-7.94,3.05,11-1.79,9-4.45-6.32-4.45-6.32-.2,8-4.65,8c0,0,2.2,11.21-4.42,10.44s-6.55-15.67-6.55-15.67,6.65-7.93,7.65-8.12S379.91,637.29,379.91,637.29Z" transform="translate(586.2 120.65)"/><path class="cls-29" d="M363.82,635.54a.62.62,0,0,1-.45-.21,8.81,8.81,0,0,0-6.54-2.93,8.71,8.71,0,0,0-.87,0h0a.58.58,0,0,1-.06-1.15c.34,0,.66,0,1,0a10.05,10.05,0,0,1,7.44,3.35.57.57,0,0,1-.09.81A.56.56,0,0,1,363.82,635.54Z" transform="translate(586.2 120.65)"/><path class="cls-29" d="M364.91,634a.62.62,0,0,1-.32-.09,6.59,6.59,0,0,1-2.68-5.41.57.57,0,0,1,.58-.56h0a.56.56,0,0,1,.56.59,5.54,5.54,0,0,0,2.17,4.4.58.58,0,0,1-.32,1.07Z" transform="translate(586.2 120.65)"/><path class="cls-25" d="M384,769.49s28.11,2.48,41,9.62,5.11,22.73-21.73,21-24.61-5.61-24.61-5.61S384.43,780.81,384,769.49Z" transform="translate(586.2 120.65)"/><path class="cls-36" d="M367.77,809c-201.11,5.66-255.33-50-219.26-109.84a74.74,74.74,0,0,1,25.42-25.81l208.66,76q.12.93.21,1.77C387.65,799.64,367.77,809,367.77,809Z" transform="translate(586.2 120.65)"/><path class="cls-27" d="M368,808.74l-.45-.62c21.13-15.14,15.44-54,14.93-57.31l-137.24-50.2.27-.71,137.65,50.35,0,.22C383.26,750.88,390.33,792.73,368,808.74Z" transform="translate(586.2 120.65)"/><path class="cls-25" d="M447.39,686.44c-6.55,0-19.75,2.87-26.31,2.95-2.84,0-12.46.83-13.06,3.73-.52,2.52,7.08,5.58,10.91,6.58-20.24,13.63-41.86,38.8-.22,13.45l0,.05c-3.42,2.45-29.13,19.58-24.23,24.12,3.6,3.32,24.37-11.4,30.05-15.38a.76.76,0,0,0,.11.14c-5.47,4.52-22.66,17.28-19.39,20.64,4.31,4.42,26-12.73,26-12.73S413,743.78,419.6,746.48c3.75,1.53,14.34-7,20.87-12.37h0c1.37-1.13,2.56-2.12,3.47-2.86a11.71,11.71,0,0,0,1.87-1.85,111.81,111.81,0,0,0,15.69-17.52s7.69-8.23,1.58-17.91C459.18,687.8,450.23,686.46,447.39,686.44Z" transform="translate(586.2 120.65)"/><path class="cls-29" d="M883,744s25.51-17.8,53.31,0,38.36,52,26.5,79.44,32.35,36.5,40.05,68.72-41.56,21.39-19.64,42.29,23.11,54.21-7.68,67-79-47.8-79-47.8l-.73-88.8Z" transform="translate(586.2 120.65)"/><polygon class="cls-29" points="1432.58 961.83 1439.16 1025.54 1462.92 1048.09 1503.81 1048.09 1501.49 985.43 1494.52 956.73 1432.58 961.83"/><path class="cls-25" d="M732.7,949.67S664.06,798.45,692.5,723.4,888,631.82,888,631.82l-5.77,55.27s-77.74,10.72-108.46,58.3c-18.2,28.18,13.12,132.47,13.12,132.47Z" transform="translate(586.2 120.65)"/><path class="cls-25" d="M1254.21,1219.58s59.32,13,91,9c16.89-2.15,57.48-12.11,46.42,7.59-4.89,8.72-34.21,17-49.91,24.31-11.78,5.51-30.83,19-42.89,14.19-13.27-5.24-73.57-26.92-73.57-26.92Z" transform="translate(586.2 120.65)"/><path class="cls-28" d="M824.21,1127.13s440.84,59,459,82.62.66,63.44-29.1,66.2S781.07,1253,781.07,1253l-12.55-125.89Z" transform="translate(586.2 120.65)"/><path class="cls-33" d="M771.1,808.89s-72.4,30.65-72,80.53c0,5.86,15.26,26.23,3.26,57.06-16.57,42.58,136.77,56.67,169.91,62.35,37.88,6.48,73.78-24.94,73.78-24.94s-21.1-52.5-81.16-87.53c-5.65-3.29-11.66-5.7-18-8.54-10.62-4.76-27.73-10.25-38.41-14.35C793.51,867.7,771.1,808.89,771.1,808.89Z" transform="translate(586.2 120.65)"/><path class="cls-28" d="M784.68,1124s-34.92,18.09-69.84,1.53c-56.26-26.69-183.07-64.84-236.36,23.51-51.9,86,26.11,166.14,315.43,158,0,0,28.6-13.47,21.63-83.3C812.78,1196.12,784.68,1124,784.68,1124Z" transform="translate(586.2 120.65)"/><path class="cls-27" d="M655.67,1165.62c-4.22-16.61-18.54-27.43-18.69-27.53l.66-.89c.14.12,14.78,11.15,19.1,28.15Z" transform="translate(586.2 120.65)"/><path class="cls-25" d="M859.25,893.38c-16.91,10.53-32.66,10-47,4.93-18.25-6.42-7.55-25.49-4.58-25.14,7.26.86,10.09-2.16,12.49-8.24l3.16-8,.39-1,4.11-10.39,7.1-17.91,18.67-47.12-2.12,53.26-.37,9.06L849.85,874C849.44,884,852.44,891.07,859.25,893.38Z" transform="translate(586.2 120.65)"/><path class="cls-29" d="M850.35,850.68a34.47,34.47,0,0,1-27,6.28l.39-1,4.11-10.39C836.22,847.66,850.35,850.68,850.35,850.68Z" transform="translate(586.2 120.65)"/><ellipse class="cls-25" cx="863.38" cy="802.35" rx="55.99" ry="45.65" transform="translate(271.02 937) rotate(-43.58)"/><path class="cls-14" d="M859,798.9a1,1,0,0,1-.18-.9,1,1,0,0,1,1.26-.72,11.3,11.3,0,0,1,8.95,10.46,1,1,0,0,1-.91,1.14A1.15,1.15,0,0,1,867,808a17.85,17.85,0,0,0-7.42-8.7A1,1,0,0,1,859,798.9Z" transform="translate(586.2 120.65)"/><path class="cls-14" d="M861.1,814.34a1,1,0,0,1-.66,1.84,11.31,11.31,0,0,1-11.21-8,1,1,0,0,1,.6-1.33,1.15,1.15,0,0,1,1.34.61,17.94,17.94,0,0,0,9.31,6.67A1,1,0,0,1,861.1,814.34Z" transform="translate(586.2 120.65)"/><path class="cls-14" d="M836.22,795.43a1.06,1.06,0,0,1,.27.88,1,1,0,0,1-1.19.84,11.3,11.3,0,0,1-9.94-9.54,1,1,0,0,1,.8-1.23,1.15,1.15,0,0,1,1.23.8,18,18,0,0,0,8.25,7.94A1,1,0,0,1,836.22,795.43Z" transform="translate(586.2 120.65)"/><path class="cls-14" d="M832.44,777.86a1.05,1.05,0,0,1-.39-.84,1,1,0,0,1,1.06-1,11.31,11.31,0,0,1,11.17,8.07,1,1,0,0,1-.61,1.32,1.13,1.13,0,0,1-1.33-.62,18,18,0,0,0-9.28-6.71A1.06,1.06,0,0,1,832.44,777.86Z" transform="translate(586.2 120.65)"/><path class="cls-14" d="M841.06,830a.23.23,0,0,1-.12,0c-17.61-3.5-21.24-17.28-21.27-17.41a.66.66,0,1,1,1.28-.32c0,.13,3.5,13.11,20.24,16.43a.65.65,0,0,1,.52.78A.67.67,0,0,1,841.06,830Z" transform="translate(586.2 120.65)"/><path class="cls-29" d="M863.38,761.52S882,776,877.55,791.77c-2.92,10.32-3.2,21.85,10.21,24.48,15.51,3-8.94,24.46-4.5,34.92s26.22,6.42,26.22,6.42l18.75-62.94-7.52-23.23-17.22-16.64Z" transform="translate(586.2 120.65)"/><path class="cls-25" d="M889.6,836.76c-7.08.93-13.23-2.91-13.74-8.58s4.82-11,11.9-11.93,13.23,2.92,13.74,8.58S896.68,835.84,889.6,836.76Z" transform="translate(586.2 120.65)"/><path class="cls-29" d="M867.78,765.59s-25.08-6.37-44.46,12.81c0,0-1.47-30.14,34.68-38.37,14.09-3.2,24-4,34.64,5.07,7.41,6.3,10.85,9.68,10.85,9.68Z" transform="translate(586.2 120.65)"/><path class="cls-33" d="M728.6,886.19s-55.42,95.39-61.06,246.09c-1.45,38.78,266.33,98.72,232.66,5.4-32.79-90.87,6.2-152.09,6.2-152.09l-85-60.41Z" transform="translate(586.2 120.65)"/><path class="cls-25" d="M869.66,681.15c8.3,5,27.31,11.26,35.72,16.1,3.65,2.1,16.49,8.34,19.45,5.1,2.57-2.81-4.8-12.44-8.93-16.6,36.05-2.08,82.58-17.81,10.42-17,0,0,0-.07,0-.1,6.21-.53,51.87-2.94,49-12.42-2.07-6.94-39.63-3.87-49.86-3.09a2,2,0,0,0,0-.26c10.38-1.63,41.89-4.91,40.26-11.65-2.14-8.88-42.69-3.39-42.69-3.39s33.72-3.75,27.3-12.21c-3.62-4.76-23.53-1.93-35.9,0h0c-2.59.4-4.86.77-6.57,1a18,18,0,0,0-3.78.94c-20.55,4.45-33.2,10.48-33.2,10.48s-16,4.67-15.53,21.61C855.67,670.52,866.06,679,869.66,681.15Z" transform="translate(586.2 120.65)"/><path class="cls-25" d="M927.41,938.42s91.32,88.2,91.32,138.68-103.34,104.12-103.34,104.12l-28.75-45.46s69.05-51.53,67-62.08c-3.59-18.75-103.32-105.87-103.32-105.87S879.6,952.26,927.41,938.42Z" transform="translate(586.2 120.65)"/><path class="cls-33" d="M859.25,893.38s29.87,9.25,55.17,27.67c14.91,10.85,32.66,30,48.35,55.37,0,0-36.41,40.49-85.06,45.94s-35.07-56-35.07-56Z" transform="translate(586.2 120.65)"/><path class="cls-24" d="M752.54,1002.54c-32.23-8.84-36.85-26.77-34.8-35l2.36.59c-.22.88-4.79,21.69,33.08,32.09Z" transform="translate(586.2 120.65)"/><path class="cls-31" d="M870,1148.41c5.55,18.06,18.13,46.21,44.46,58.28l-9.36,19.91s-49.54-20-63.26-74.08l10.91-9.2A10.78,10.78,0,0,1,870,1148.41Z" transform="translate(586.2 120.65)"/><path class="cls-31" d="M904.42,1207.31c3.33-.63,10.32-.38,13.66-1,1.45-.25,6.42-.74,7,.68.5,1.24-3.08,3.5-4.94,4.37,11.57,5,24.92,15.85,1.36,6.82v0c2,.93,16.65,7.26,14.58,10-1.52,2-13.47-3.53-16.73-5l0,.08c3.2,1.8,13.14,6.69,11.79,8.71-1.78,2.65-14.41-4.07-14.41-4.07s10.6,5.32,7.47,7.31c-1.77,1.13-7.95-2.22-11.77-4.35h0l-2-1.13a6.26,6.26,0,0,1-1.12-.77,58.24,58.24,0,0,1-9.62-7.46s-4.68-3.48-2.47-9C898.54,1209.1,903,1207.58,904.42,1207.31Z" transform="translate(586.2 120.65)"/><path class="cls-33" d="M963.54,1236.49s12.12,1.1,18.18-3.44,18.75-13,20.74-7.27-4.68,24.88-11.34,26.67-25.16,0-25.16,0Z" transform="translate(586.2 120.65)"/><path class="cls-32" d="M855,1214.32s113.29,8.79,121.23,15.59c3.71,3.19,6.63,28.53-14.82,30.94-30.37,3.41-126.67,2.67-132.6-5.26S848.43,1214,855,1214.32Z" transform="translate(586.2 120.65)"/><path class="cls-33" d="M934.54,1261.44s11.89,2.62,18.48-1.12,20.24-10.55,21.49-4.59-7.79,24.09-14.62,25-25-3.17-25-3.17Z" transform="translate(586.2 120.65)"/><path class="cls-32" d="M825.43,1225.74s111.28,23,118.29,30.78c3.28,3.63,3,29.14-18.61,28.82-30.56-.46-126-13.35-130.87-22S818.91,1224.56,825.43,1225.74Z" transform="translate(586.2 120.65)"/><path class="cls-26" d="M776.78,1235.36c-.74-3.17-6.45-110.92,27-109.48,33.64,1.45,49.71-.52,53,5.39,10.25,18.16,40,83.09,32.12,93.67S780.39,1251,776.78,1235.36Z" transform="translate(586.2 120.65)"/><path class="cls-25" d="M802.23,1129s-56.7-.79-80.2-38.39l-18.54,11.85s26.25,46.54,81.6,53.21Z" transform="translate(586.2 120.65)"/><path class="cls-25" d="M722.71,1100.63c.2-3.38-1-10.28-.82-13.67.06-1.47-.1-6.46-1.58-6.85-1.29-.34-3.07,3.5-3.69,5.46-6.5-10.83-18.92-22.68-6.94-.47h0c-1.18-1.84-9.34-15.58-11.81-13.17-1.82,1.77,5.23,12.9,7.13,15.94l-.07,0c-2.19-2.94-8.32-12.17-10.15-10.57-2.4,2.11,5.89,13.77,5.89,13.77s-6.64-9.83-8.21-6.47c-.89,1.89,3.22,7.6,5.83,11.12h0c.55.73,1,1.38,1.38,1.87a6.52,6.52,0,0,0,.91,1,58.12,58.12,0,0,0,8.63,8.58s4.05,4.2,9.22,1.3C721.69,1106.69,722.62,1102.1,722.71,1100.63Z" transform="translate(586.2 120.65)"/><path class="cls-26" d="M818.32,1125.41s-29.2,2.64-38.08-4.34-13.81-5-12.27,0-.61,7.77-4.38,9,.13,6.06,0,9.69-10.38,2.85-8.81,8.08,4,9.3,2.42,10.11,10.91-1.22,15.56,1.61,5.1,21.67,5.1,21.67l42-25.91,2-26.63Z" transform="translate(586.2 120.65)"/><path class="cls-25" d="M818.32,1115.06s1.32,11.9,0,14.45,2.27,6.92,8.94,6.16,5.15-6.88,3.86-10.26-4.16-15.65-4.16-15.65Z" transform="translate(586.2 120.65)"/><path class="cls-29" d="M818.7,1119.42a35.45,35.45,0,0,0,11.07,1.53l-1.45-6.42Z" transform="translate(586.2 120.65)"/><path class="cls-29" d="M842.28,1097.42s13.33-20.36-1.27-36.77-25.08-16.35-32.28-15.88c-4.45.29-9.39.55-13.38,2.37-4.25,1.94-5.32,5.42-8.73,8-1.59,1.2-7.21,2.33-8.71,3.29-10.35,6.62-5.84,15.46-8.69,24.71-5.63,18.28,9,30.08,17.07,33.59s18.21,6.51,30.69,1.78S842.28,1097.42,842.28,1097.42Z" transform="translate(586.2 120.65)"/><ellipse class="cls-25" cx="815.98" cy="1091.68" rx="29.83" ry="27.87" transform="translate(476.78 211.72) rotate(-5.99)"/><path class="cls-14" d="M811.17,1092.06a.68.68,0,0,0,.2-.61.72.72,0,0,0-.82-.61,7.85,7.85,0,0,0-7.1,6.45.72.72,0,0,0,.54.87.78.78,0,0,0,.87-.53,12.44,12.44,0,0,1,5.9-5.36A.77.77,0,0,0,811.17,1092.06Z" transform="translate(586.2 120.65)"/><path class="cls-14" d="M810.18,1101.75c.82,1.52,2.39,2.27,3.5,1.68s1.34-2.29.52-3.81-2.38-2.26-3.49-1.67S809.36,1100.24,810.18,1101.75Z" transform="translate(586.2 120.65)"/><path class="cls-14" d="M835.55,1082.47a.72.72,0,0,0-.1-1.36,8,8,0,0,0-9.06,3.29.73.73,0,0,0,.16,1,.82.82,0,0,0,1-.16,12.5,12.5,0,0,1,7.52-2.74A.72.72,0,0,0,835.55,1082.47Z" transform="translate(586.2 120.65)"/><path class="cls-14" d="M830.9,1091.06c.18,1.71,1.33,3,2.59,2.87s2.12-1.61,2-3.32-1.33-3-2.59-2.87S830.73,1089.35,830.9,1091.06Z" transform="translate(586.2 120.65)"/><path class="cls-25" d="M787.23,1110.3c4.26-.47,7.3-3.56,6.79-6.91s-4.38-5.69-8.63-5.23-7.3,3.56-6.79,6.91S783,1110.76,787.23,1110.3Z" transform="translate(586.2 120.65)"/><path class="cls-29" d="M813.94,1059.32s16.57.94,23.72,7.89-10.57,4.49-13.35,9.63-4.8.34-13.06,3.79-5.18,11.86-12.22,11.61-18.45,4.07-20.68,2.13S784.87,1059,813.94,1059.32Z" transform="translate(586.2 120.65)"/><path class="cls-20" d="M815.84,1107.41s11.9-2.65,20.93-9.93C836.77,1097.48,835.27,1119.36,815.84,1107.41Z" transform="translate(586.2 120.65)"/><path class="cls-29" d="M776.08,1063.61s-8.16-12.55-16.89-7.54-7.2-4.27-14-4.1-2.82,10-8.3,11.6S729.72,1068,733,1074s10.88-2.06,12.3,6.82,7.77,10.65,11,6.09,1.34-11.09,6-4.16S776.08,1063.61,776.08,1063.61Z" transform="translate(586.2 120.65)"/><path class="cls-29" d="M797.45,1058.34s-9.17-11.83-1.57-18.43-1.66-8.2.72-14.54,10.35.62,13.68-4,6.53-5.34,11.14-.27-5.52,9.6,2.4,13.85,7.51,10.84,2.15,12.38-10.92-2.38-5.9,4.27S797.45,1058.34,797.45,1058.34Z" transform="translate(586.2 120.65)"/><path class="cls-26" d="M840.75,1126.86s19.34.23,27.58,4.8c11.79,6.54,23,13.55,20.3,16.88s-7.93.3-8.51,3.64-1.18,7.08-8.91,6-5.92-5.66-7.73-1.11S840.75,1126.86,840.75,1126.86Z" transform="translate(586.2 120.65)"/><path class="cls-29" d="M945.12,1261.49H945a.45.45,0,0,1-.37-.52c2.29-13.23-58.54-25-59.16-25.16a.44.44,0,0,1-.35-.53.44.44,0,0,1,.44-.37h.09c2.54.49,62.31,12.09,59.87,26.2A.45.45,0,0,1,945.12,1261.49Z" transform="translate(586.2 120.65)"/><path class="cls-25" d="M817.23,1251.06s40.44,3.56,59,13.84,7.36,32.7-31.26,30.27-35.41-8.07-35.41-8.07S817.88,1267.34,817.23,1251.06Z" transform="translate(586.2 120.65)"/><path class="cls-28" d="M793.91,1307.9c-289.32,8.13-367.32-72-315.44-158a107.53,107.53,0,0,1,36.58-37.13l300.19,109.31c.12.89.21,1.73.3,2.55C822.51,1294.43,793.91,1307.9,793.91,1307.9Z" transform="translate(586.2 120.65)"/><path class="cls-27" d="M794.23,1307.51l-.63-.88c30.37-21.78,22.2-77.75,21.45-82.44L617.63,1152l.37-1,198,72.46.05.31C816.18,1224.29,826.36,1284.49,794.23,1307.51Z" transform="translate(586.2 120.65)"/><path class="cls-25" d="M908.46,1131.58c-9.42-.06-28.41,4.12-37.85,4.24-4.09.06-17.92,1.2-18.79,5.37-.75,3.63,10.18,8,15.69,9.46-29.11,19.61-60.22,55.82-.3,19.35l0,.08c-4.93,3.53-41.92,28.17-34.86,34.69,5.17,4.78,35.06-16.4,43.22-22.12l.16.2c-7.87,6.51-32.59,24.87-27.89,29.7,6.19,6.35,37.38-18.33,37.38-18.33s-26.33,19.85-16.78,23.74c5.39,2.19,20.63-10,30-17.8h0c2-1.62,3.69-3.06,5-4.11a17.89,17.89,0,0,0,2.69-2.67c15-13.9,22.56-25.21,22.56-25.21s11.08-11.83,2.28-25.76C925.43,1133.53,912.54,1131.61,908.46,1131.58Z" transform="translate(586.2 120.65)"/><path class="cls-29" d="M1001.81,983.76a.52.52,0,0,1-.33-.11.57.57,0,0,1-.15-.8c6.17-8.93,8.41-17.11,6.68-24.33-1.61-6.72-6.64-12.43-15-16.93-14.77-8-18.77-18.58-18.94-19a.59.59,0,0,1,.35-.74.65.65,0,0,1,.75.35c0,.11,4,10.64,18.39,18.42,8.62,4.67,13.85,10.61,15.55,17.68,1.81,7.54-.51,16-6.85,25.25A.61.61,0,0,1,1001.81,983.76Z" transform="translate(586.2 120.65)"/><g class="cls-2"><path class="cls-3" d="M-302.87,389.88c7.89-11.91,4.74-19.09-2-23.57s-14.61-4.58-22.5,7.32c-14.36,21.69-9,40.29-9,40.29S-317.44,411.88-302.87,389.88Z" transform="translate(586.2 120.65)"/></g><g class="cls-2"><path class="cls-3" d="M745.19,561.37c5.33-8,3.21-12.9-1.37-15.93s-9.87-3.09-15.2,4.95c-9.7,14.65-6.11,27.22-6.11,27.22S735.35,576.23,745.19,561.37Z" transform="translate(586.2 120.65)"/></g><g class="cls-2"><path class="cls-3" d="M1641.89,510.1c-7.19-6.43-12.3-5-16-.94s-4.49,9.32,2.7,15.75c13.09,11.72,26,10,26,10S1655.17,522,1641.89,510.1Z" transform="translate(586.2 120.65)"/></g><g class="cls-2"><path class="cls-3" d="M1681.8,498.22c-.7-9.62-5.35-12.16-10.82-11.76s-9.7,3.59-9,13.21c1.28,17.53,11.81,25.27,11.81,25.27S1683.1,516,1681.8,498.22Z" transform="translate(586.2 120.65)"/></g></svg>