<svg id="Layer_1" data-name="Layer 1" xmlns="http://www.w3.org/2000/svg" viewBox="0 0 1078.36 226.78"><defs><style>.cls-1{fill:#1877f2;}.cls-2{fill:#1877f2;}.cls-3{fill:none;}</style></defs><path class="cls-1" d="M390.53,679.76H361.84V608.22H342.29V584.93h19.55V568.35c0-19.64,8.64-33.72,37.26-33.72,6,0,15.56,1.22,15.56,1.22v21.63h-10c-10.17,0-14.15,3.09-14.15,11.64v15.81h23.75l-2.12,23.29H390.53Zm65.85-96.69-1.27,0c-26.61,0-38.79,20-38.79,48.43,0,35.79,15.79,50.12,39,50.12,13.28,0,22-5.59,27.3-16v14.14H509.9V584.94H482.61v14.58C478.28,590.14,469.32,583.18,456.38,583.07Zm6.94,22.4c11.18,0,17.88,7.8,17.88,21.06l0,13.54c0,8.94-5.54,19.4-17.91,19.4-19,0-18.51-20.54-18.51-27.38,0-23,10.13-26.62,18.51-26.62Zm57.61,26.89c0-11.53-.55-49.23,48.57-49.23,19.72,0,28,6.27,28,6.27l-6.61,20.52a43.29,43.29,0,0,0-18.94-4.52c-13.73,0-22.48,8-22.48,22v10c0,13.45,8.45,22.43,22.5,22.43,9.76,0,18.75-4.57,18.75-4.57l6.61,20.1s-7.53,6.31-27.65,6.31c-46.78,0-48.71-33.83-48.71-49.3ZM757.5,583.09c26.61,0,39,20,39,48.43,0,35.79-15.79,50.12-39,50.12-13.27,0-23.09-5.59-28.39-16v14.14h-27V537.51L730.76,535v63.22c4.13-11.06,17.7-15.15,26.74-15.15Zm-8,22.38c-11.17,0-18.71,7.8-18.71,21.06l0,13.54c0,8.94,5.22,19.4,18.74,19.4,19,0,18.51-20.54,18.51-27.38,0-23-10.13-26.62-18.51-26.62ZM647.1,583.17c-30.18,0-46.11,16.46-46.11,45.7v5.43c0,38,22.38,47.73,49,47.73,25.93,0,37.67-7.25,37.67-7.25l-5.36-19.32s-13.8,5.88-28.88,5.88c-15.62,0-22.35-4-24.07-19H690v-15.5c0-31.72-17.89-43.67-42.9-43.67Zm.73,19.34c10.45,0,17.22,6.41,16.85,21.26H629.45c.61-15.63,7.92-21.26,18.38-21.26ZM853.53,583c-31,0-47.31,17.47-47.31,48.77,0,42.94,28.13,49.86,47.36,49.86,28.16,0,46.9-15.17,46.9-49.47,0-35.71-21.07-49.16-47-49.16Zm-.39,22.51c13.63,0,19,10.2,19,21.81v10c0,14.07-7.56,22.2-19.08,22.2-10.78,0-18.35-7.61-18.35-22.2v-10C834.74,611.8,843.75,605.55,853.14,605.55ZM957.48,583c-31,0-47.31,17.47-47.31,48.77,0,42.94,28.13,49.86,47.37,49.86,28.16,0,46.89-15.17,46.89-49.47,0-35.71-21.06-49.16-46.95-49.16Zm-.39,22.51c13.63,0,19,10.2,19,21.81v10c0,14.07-7.55,22.2-19.08,22.2-10.78,0-18.35-7.61-18.35-22.2v-10C938.69,611.8,947.7,605.55,957.09,605.55Zm58.16,74.21V537.51l28.69-2.49v95.34l28.48-45.43h30.3L1073,632l30.85,47.78h-30.4l-29.53-46.39v46.39Z" transform="translate(-25.51 -491.29)"/><g id="Layer_1-2" data-name="Layer_1"><path class="cls-2" d="M252.29,604.68a113.39,113.39,0,1,0-131.11,112V637.47H92.38V604.68h28.8v-25c0-28.41,16.94-44.12,42.83-44.12a174.06,174.06,0,0,1,25.39,2.22v27.9H175.09c-14.08,0-18.48,8.74-18.48,17.72v21.27h31.45l-5,32.79H156.61V716.7A113.41,113.41,0,0,0,252.29,604.68Z" transform="translate(-25.51 -491.29)"/><path class="cls-3" d="M183,637.47l5-32.79H156.61V583.41c0-9,4.39-17.72,18.48-17.72H189.4v-27.9A174.06,174.06,0,0,0,164,535.57c-25.89,0-42.83,15.69-42.83,44.12v25H92.38v32.79h28.8V716.7a113.71,113.71,0,0,0,17.72,1.37,116.17,116.17,0,0,0,17.71-1.37V637.47Z" transform="translate(-25.51 -491.29)"/></g></svg>