<svg width="51" height="38" viewBox="0 0 51 38" fill="none" xmlns="http://www.w3.org/2000/svg">
<path d="M1 13.5V7.82843C1 6.01742 1.71942 4.28058 3 3C4.28058 1.71942 6.01742 1 7.82843 1H17H44C45.8885 1 47.6669 1.88917 48.8 3.4C49.5789 4.43858 50 5.70178 50 7V13.5V24.5V31C50 32.2982 49.5789 33.5614 48.8 34.6C47.6669 36.1108 45.8885 37 44 37H34.25H17.5H7.82843C6.01742 37 4.28058 36.2806 3 35C1.71942 33.7194 1 31.9826 1 30.1716V24.5V13.5Z" fill="url(#paint0_linear_8_54)"/>
<path d="M34 1.5L26 8.5M26 8.5C26 9 26 13.5 26 13.5H19.5M26 8.5L17 1M1 13.5V7.82843C1 6.01742 1.71942 4.28058 3 3V3C4.28058 1.71942 6.01742 1 7.82843 1H17M1 13.5H19.5M1 13.5V24.5M19.5 13.5V24.5M19.5 24.5H1M19.5 24.5H26M1 24.5V30.1716C1 31.9826 1.71942 33.7194 3 35V35C4.28058 36.2806 6.01742 37 7.82843 37H17.5M50 24.5V31C50 32.2982 49.5789 33.5614 48.8 34.6V34.6C47.6669 36.1108 45.8885 37 44 37H34.25M50 24.5V13.5M50 24.5H32M26 24.5V29M26 24.5H32M26 29L17.5 37M26 29L34.25 37M17.5 37H34.25M50 13.5V7C50 5.70178 49.5789 4.43858 48.8 3.4V3.4C47.6669 1.88917 45.8885 1 44 1H17M50 13.5H32V24.5" stroke="black" stroke-opacity="0.9" stroke-width="0.5"/>
<defs>
<linearGradient id="paint0_linear_8_54" x1="25.5" y1="0.999999" x2="42.5" y2="37" gradientUnits="userSpaceOnUse">
<stop stop-color="#F3AF53" stop-opacity="0.2"/>
<stop offset="1" stop-color="#F3AF53" stop-opacity="0.7"/>
</linearGradient>
</defs>
</svg>
