<svg width="1000" height="363" viewBox="0 0 1000 363" fill="none" xmlns="http://www.w3.org/2000/svg">
<path d="M193.64 362.099V205.49H359.46L377.251 228.682L395.63 205.49H997.517V351.298C997.517 351.298 981.776 361.942 963.572 362.099H630.295L610.237 337.412V362.099H544.507V319.957C544.507 319.957 535.528 325.84 516.117 325.84H493.744V362.099H394.224L376.458 338.409L358.42 362.099H193.64Z" fill="white"/>
<path d="M0 87.4539L37.3931 0.277344H102.061L123.282 49.1101V0.277344H203.669L216.302 35.5721L228.549 0.277344H589.407V18.0212C589.407 18.0212 608.377 0.277344 639.553 0.277344L756.638 0.686523L777.492 48.8801V0.277344H844.765L863.28 27.9607V0.277344H931.17V156.887H863.28L845.536 129.114V156.887H746.698L736.758 132.199H710.187L700.409 156.887H633.381C606.555 156.887 589.407 139.505 589.407 139.505V156.887H488.344L468.285 132.199V156.887H92.4805L82.5478 132.199H56.0614L46.1989 156.887H0V87.4539Z" fill="white"/>
<path d="M50.628 19.5839L0.192871 136.848H33.0288L42.3347 113.366H96.4343L105.692 136.848H139.251L88.8642 19.5839H50.628ZM69.2881 46.8748L85.7784 87.9077H52.7496L69.2881 46.8748Z" fill="#016FD0"/>
<path d="M142.723 136.828V19.5641L189.384 19.7374L216.524 95.3419L243.014 19.5641H289.303V136.828H259.987V50.4231L228.911 136.828H203.201L172.039 50.4231V136.828H142.723Z" fill="#016FD0"/>
<path d="M309.361 136.828V19.5641H405.024V45.7943H338.986V65.8525H403.481V90.5398H338.986V111.37H405.024V136.828H309.361Z" fill="#016FD0"/>
<path d="M421.997 19.5839V136.848H451.313V95.1884H463.656L498.807 136.848H534.632L496.058 93.6455C511.889 92.3096 528.219 78.7222 528.219 57.6273C528.219 32.9508 508.851 19.5839 487.235 19.5839H421.997ZM451.313 45.814H484.824C492.863 45.814 498.71 52.1022 498.71 58.1576C498.71 65.9481 491.134 70.5012 485.258 70.5012H451.313V45.814Z" fill="#016FD0"/>
<path d="M570.12 136.828H540.187V19.5641H570.12V136.828Z" fill="#016FD0"/>
<path d="M641.096 136.828H634.634C603.373 136.828 584.392 112.199 584.392 78.6783C584.392 44.3295 603.16 19.5641 642.638 19.5641H675.04V47.3372H641.454C625.428 47.3372 614.094 59.8438 614.094 78.9677C614.094 101.677 627.054 111.215 645.724 111.215H653.439L641.096 136.828Z" fill="#016FD0"/>
<path d="M704.887 19.5839L654.452 136.848H687.288L696.593 113.366H750.693L759.951 136.848H793.51L743.123 19.5839H704.887ZM723.547 46.8748L740.037 87.9077H707.008L723.547 46.8748Z" fill="#016FD0"/>
<path d="M796.933 136.828V19.5641H834.205L881.796 93.24V19.5641H911.112V136.828H875.045L826.249 61.2238V136.828H796.933Z" fill="#016FD0"/>
<path d="M213.698 342.041V224.776H309.361V251.007H243.323V271.065H307.818V295.752H243.323V316.582H309.361V342.041H213.698Z" fill="#016FD0"/>
<path d="M682.447 342.041V224.776H778.109V251.007H712.071V271.065H776.258V295.752H712.071V316.582H778.109V342.041H682.447Z" fill="#016FD0"/>
<path d="M313.074 342.041L359.652 284.132L311.965 224.776H348.899L377.299 261.47L405.796 224.776H441.284L394.224 283.408L440.887 342.041H403.959L376.383 305.926L349.478 342.041H313.074Z" fill="#016FD0"/>
<path d="M444.369 224.796V342.06H474.457V305.03H505.316C531.427 305.03 551.219 291.177 551.219 264.238C551.219 241.921 535.696 224.796 509.125 224.796H444.369ZM474.457 251.316H506.955C515.391 251.316 521.42 256.486 521.42 264.816C521.42 272.643 515.421 278.317 506.859 278.317H474.457V251.316Z" fill="#016FD0"/>
<path d="M563.948 224.776V342.041H593.264V300.381H605.608L640.758 342.041H676.583L638.01 298.838C653.84 297.502 670.17 283.915 670.17 262.82C670.17 238.143 650.802 224.776 629.186 224.776H563.948ZM593.264 251.007H626.775C634.814 251.007 640.662 257.295 640.662 263.35C640.662 271.141 633.085 275.694 627.209 275.694H593.264V251.007Z" fill="#016FD0"/>
<path d="M791.687 342.041V316.582H850.358C859.039 316.582 862.798 311.891 862.798 306.746C862.798 301.816 859.051 296.832 850.358 296.832H823.845C800.8 296.832 787.965 282.791 787.965 261.711C787.965 242.909 799.718 224.776 833.964 224.776H891.053L878.71 251.161H829.335C819.897 251.161 816.992 256.113 816.992 260.843C816.992 265.704 820.582 271.065 827.792 271.065H855.565C881.256 271.065 892.403 285.637 892.403 304.72C892.403 325.237 879.981 342.041 854.167 342.041H791.687Z" fill="#016FD0"/>
<path d="M899.284 342.041V316.582H957.955C966.636 316.582 970.395 311.891 970.395 306.746C970.395 301.816 966.648 296.832 957.955 296.832H931.442C908.396 296.832 895.562 282.791 895.562 261.711C895.562 242.909 907.315 224.776 941.561 224.776H998.65L986.306 251.161H936.932C927.494 251.161 924.588 256.113 924.588 260.843C924.588 265.704 928.179 271.065 935.389 271.065H963.162C988.852 271.065 1000 285.637 1000 304.72C1000 325.237 987.578 342.041 961.763 342.041H899.284Z" fill="#016FD0"/>
</svg>
