<svg width="583" height="503" viewBox="0 0 583 503" fill="none" xmlns="http://www.w3.org/2000/svg">
<path d="M253.8 498C388.171 498 497.1 389.071 497.1 254.7C497.1 120.329 388.171 11.4 253.8 11.4C119.429 11.4 10.5 120.329 10.5 254.7C10.5 389.071 119.429 498 253.8 498Z" fill="white"/>
<path fill-rule="evenodd" clip-rule="evenodd" d="M254.1 502.4C114.7 503 0 390.1 0 252.6C0 102.3 114.7 -1.59998 254.1 -1.59998H319.5C457.2 -1.59998 583 102.3 583 252.6C583 390 457.2 502.4 319.5 502.4H254.1ZM254.7 19.3C127.3 19.3 24 122.6 24 250C24 377.3 127.3 480.6 254.7 480.6C382.1 480.6 485.3 377.3 485.3 250C485.3 122.6 382.1 19.3 254.7 19.3V19.3ZM108.4 250C108.6 187.7 147.5 134.6 202.3 113.5V386.4C147.5 365.3 108.6 312.2 108.4 250V250ZM307 386.4V113.5C361.8 134.5 400.8 187.6 400.9 250C400.8 312.3 361.8 365.3 307 386.4Z" fill="#09489A"/>
</svg>
